<?xml version="1.0" encoding="utf-8"?>
<!-- Generator: Adobe Illustrator 19.0.0, SVG Export Plug-In . SVG Version: 6.00 Build 0)  -->
<svg version="1.1" xmlns="http://www.w3.org/2000/svg" xmlns:xlink="http://www.w3.org/1999/xlink" x="0px" y="0px"
	 viewBox="0 0 401.9 401.5" style="enable-background:new 0 0 401.9 401.5;" xml:space="preserve">
<style type="text/css">
	.st0{display:none;}
	.st1{display:inline;}
	.st2{fill:#FFFFFF;}
</style>
<g id="Layer_4" class="st0">
	<g id="XMLID_28_" class="st1">
		<path id="XMLID_27_" class="st2" d="M131,58.7c32,34,56.3,85.9,56.3,85.9c-72,22.3-139,16.8-139,16.8S67,86.7,131,58.7"/>
		<path id="XMLID_26_" class="st2" d="M299,77.1c-27.6,36.5-77.1,55.3-77.1,55.3c-23.5-45.5-54.7-86-54.7-86S238.1,27.3,299,77.1"/>
		<path id="XMLID_25_" class="st2" d="M43.3,197.6c0,0-3,64,37.7,103.7c0,0,38.7-70.7,131.8-102.7l-9.2-21.2
			C203.7,177.4,122.3,201.9,43.3,197.6z"/>
		<path id="XMLID_24_" class="st2" d="M237.3,164.9l10,24.5c0,0,49.5-11,110.5,3.3c0,0,1.4-48.6-33.4-90
			C324.5,102.6,286.7,143.9,237.3,164.9z"/>
		<path id="XMLID_23_" class="st2" d="M225.3,232.4c0,0,18.9,62.3,31.5,114.5c0,0-74.2,35-149.2-20.3c0,0,35.1-67.8,118.2-94.3"/>
		<path id="XMLID_22_" class="st2" d="M261,224.2c0,0,22.7,68.7,28.8,105.3c0,0,54.3-30.2,65.8-100.4
			C355.6,229.1,302.3,214.9,261,224.2"/>
	</g>
</g>
<g id="Layer_2">
	<g id="XMLID_9_">
		<g id="XMLID_12_">
			<path id="XMLID_14_" class="st2" d="M107.6,327.6c75,55.3,149.2,20.3,149.2,20.3c-12.2-50.8-30.5-111.2-31.5-114.4
				C142.6,260.1,107.6,327.6,107.6,327.6z M201,0.3c110.8,0,200.7,89.8,200.7,200.5c0,110.7-89.9,200.5-200.7,200.5
				C90.1,401.2,0.3,311.5,0.3,200.7C0.3,90,90.1,0.3,201,0.3z M357.8,193.6c0,0,1.4-48.6-33.4-90c0,0-37.8,41.3-87.1,62.3l10,24.5
				C247.3,190.4,296.8,179.4,357.8,193.6z M289.8,330.6c0,0,54.3-30.2,65.8-100.4c0,0-53.2-14.2-94.6-4.9
				C261,225.2,283.7,293.9,289.8,330.6z M221.9,133.4c0,0,49.5-18.8,77.1-55.3c-60.9-49.9-131.8-30.8-131.8-30.8
				S198.4,87.9,221.9,133.4z M212.8,199.6l-9.2-21.2c0,0-81.3,24.5-160.3,20.2c0,0-3,64,37.7,103.7
				C81,302.2,119.7,231.6,212.8,199.6z M187.3,145.6c0,0-24.3-51.9-56.3-85.9c-64,28-82.7,102.7-82.7,102.7S115.3,167.9,187.3,145.6
				z"/>
		</g>
		<g id="XMLID_13_">
		</g>
	</g>
</g>
<g id="Layer_3">
</g>
</svg>
