<?xml version="1.0" encoding="utf-8"?>
<!-- Generator: Adobe Illustrator 19.0.0, SVG Export Plug-In . SVG Version: 6.00 Build 0)  -->
<svg version="1.1" id="Layer_1" xmlns="http://www.w3.org/2000/svg" xmlns:xlink="http://www.w3.org/1999/xlink" x="0px" y="0px"
	 viewBox="0 0 672.2 515.9" style="enable-background:new 0 0 672.2 515.9;" xml:space="preserve">
<style type="text/css">
	.st0{fill:#00AEEF;}
	.st1{fill:none;stroke:#00AEEF;stroke-miterlimit:10;}
	.st2{fill:#2E3192;}
	.st3{fill:none;stroke:#2E3192;stroke-miterlimit:10;}
	.st4{fill:none;stroke:#000000;stroke-miterlimit:10;}
</style>
<g id="XMLID_59_">
	<g id="XMLID_1148_">
		<g id="XMLID_1149_">
			<g id="XMLID_1293_">
				<path id="XMLID_20_" class="st0" d="M670.8,220.2c-23.5,45.9-52.7,89.9-92.3,123.4c-40.2,34-92.2,56.5-145.2,54.2
					c-55.1-2.4-105.3-30.5-159-42.9c-74.3-17.2-155.7-2.3-218.9,39.7c66.7-67.4,154.3-103.1,247.1-80
					c45.1,11.2,87.5,33.7,133.9,37.4c46.9,3.7,93.8-12.6,133.1-38.1C608.4,288.7,640.7,255,670.8,220.2z"/>
			</g>
			<g id="XMLID_1290_">
				<path id="XMLID_22_" class="st1" d="M671.7,219.1c-0.3,0.3-0.6,0.7-0.9,1c-30.2,34.8-62.5,68.6-101.4,93.8
					c-39.3,25.4-86.2,41.7-133.1,38.1c-46.4-3.7-88.8-26.1-133.9-37.4c-92.9-23.1-180.4,12.6-247.1,80c-0.6,0.6-1.2,1.2-1.8,1.8"/>
				<path id="XMLID_21_" class="st1" d="M671.8,218.4c-0.3,0.6-0.6,1.2-0.9,1.8c-23.5,45.9-52.7,89.9-92.3,123.4
					c-40.2,34-92.2,56.5-145.2,54.2c-55.1-2.4-105.3-30.5-159-42.9c-74.3-17.2-155.7-2.3-218.9,39.7c-1.1,0.7-2.1,1.4-3.1,2.1"/>
			</g>
		</g>
	</g>
	<g id="XMLID_1132_">
		<g id="XMLID_1133_">
			<g id="XMLID_1264_">
				<path id="XMLID_14_" class="st2" d="M648.6,315.4l0.5,0.6c-15.1,50.4-44.6,94.5-89.9,122.4c-45.3,27.9-101.1,39-153.8,30.5
					c-51.7-8.3-98.6-37-150.6-43.5c-74.7-9.4-195.5,51.1-199.3,53c0.1,0,0.1-0.1,0.3-0.1c34.4-38,76.5-70.1,126.4-84
					c-38.6-1.6-77.6,8.8-110,29.4c-32.4,20.5-55.7,56.8-70.1,91.9l-1.7-0.7c12.6-46.1,42-87.7,81.6-115.4
					c39.6-27.7,89.2-41.5,137.8-38.2c85,5.8,163.2,61.2,248.1,53.6C538,408.6,595.8,361,648.6,315.4z"/>
			</g>
			<g id="XMLID_1258_">
				<path id="XMLID_19_" class="st3" d="M55.5,478.4C55.5,478.4,55.5,478.4,55.5,478.4C55.5,478.4,55.6,478.3,55.5,478.4
					c0.1-0.1,0.2-0.1,0.4-0.2"/>
				<path id="XMLID_18_" class="st3" d="M649.2,316c-15.1,50.4-44.6,94.5-89.9,122.4c-45.3,27.9-101.1,39-153.8,30.5
					c-51.7-8.3-98.6-37-150.6-43.5c-74.7-9.4-195.5,51.1-199.3,53"/>
				<path id="XMLID_17_" class="st3" d="M649.6,314.5c-0.3,0.3-0.7,0.6-1,0.9C595.8,361,538,408.6,468,414.8
					c-84.9,7.5-163.1-47.9-248.1-53.6c-48.6-3.3-98.2,10.5-137.8,38.2c-39.6,27.8-69,69.3-81.6,115.4"/>
				<path id="XMLID_16_" class="st3" d="M2.1,515.6c0-0.1,0-0.1,0.1-0.2c14.3-35.1,37.7-71.4,70.1-91.9c32.4-20.6,71.4-31,110-29.4"
					/>
				<path id="XMLID_15_" class="st3" d="M182.2,394.2c-49.9,13.9-92,45.9-126.4,84"/>
			</g>
		</g>
	</g>
	<g id="XMLID_1084_">
		<g id="XMLID_1247_">
			<path id="XMLID_10_" d="M488.3,263.7l0.9,1.8c-2.3,25.8-11.6,50.2-27.6,70.7c3.4-15.9,3.6-32.4,0.5-48.4
				c-44.6-1.9-93.6,4.9-140.9,17.5c-8.5-2.5-17.3-3.6-25.9-2.5c-2-0.4-4-0.8-6.1-1.2c34.5-15.5,70.7-27.5,107-35.9
				C426.8,258.6,467.9,256.8,488.3,263.7z"/>
		</g>
		<g id="XMLID_1243_">
			<path id="XMLID_13_" class="st4" d="M461.5,336.2c16-20.5,25.3-45,27.6-70.7"/>
			<path id="XMLID_12_" class="st4" d="M461.5,336.2c3.4-15.9,3.6-32.4,0.5-48.4"/>
			<path id="XMLID_11_" class="st4" d="M462,287.8c-44.6-1.9-93.6,4.9-140.9,17.5"/>
		</g>
	</g>
	<g id="XMLID_1119_">
		<g id="XMLID_1120_">
			<g id="XMLID_1232_">
				<path id="XMLID_6_" d="M428.9,6.4c55.4,51,100.5,113,136.7,178.4c-66.3-24.9-139.4-22.9-205.3,2.8
					C383.2,127.2,406,66.8,428.9,6.4z"/>
			</g>
			<g id="XMLID_1228_">
				<path id="XMLID_9_" class="st4" d="M360.3,187.6C383.2,127.2,406,66.8,428.9,6.4"/>
				<path id="XMLID_8_" class="st4" d="M360.3,187.6c65.8-25.6,139-27.7,205.3-2.8"/>
				<path id="XMLID_7_" class="st4" d="M428.9,6.4c55.4,51,100.5,113,136.7,178.4"/>
			</g>
		</g>
	</g>
	<g id="XMLID_1104_">
		<g id="XMLID_1105_">
			<g id="XMLID_1219_">
				<path id="XMLID_1_" d="M535.3,238.1c-28.7-11.2-87.8-11.5-132.3-3.5c-66.5,12.1-133.2,32.4-195.2,60.9
					c-23.7,4-44.2,16.3-66.2,25c30.7-27.9,64.7-52.3,101.1-72.4c50.6-27.9,106.2-47.7,163.8-55.2c57.6-7.5,117.1-2.6,171.7,17
					l0.7,0.1c-4.5,55.4-35.3,104.6-84.7,131.8c24.5-28.4,35.7-66.8,40.9-103.6L535.3,238.1z"/>
			</g>
			<g id="XMLID_1198_">
				<path id="XMLID_5_" class="st4" d="M494.4,341.9c49.4-27.2,80.1-76.5,84.7-131.8"/>
				<path id="XMLID_4_" class="st4" d="M494.4,341.9c24.5-28.4,35.7-66.8,40.9-103.6"/>
				<path id="XMLID_3_" class="st4" d="M207.8,295.6c62-28.6,128.8-48.9,195.2-60.9c44.5-8.1,103.6-7.8,132.3,3.5c0,0,0.1,0,0.1,0"
					/>
				<path id="XMLID_2_" class="st4" d="M141.6,320.6c30.7-27.9,64.7-52.3,101.1-72.4c50.6-27.9,106.2-47.7,163.8-55.2
					c57.6-7.5,117.1-2.6,171.7,17"/>
			</g>
		</g>
	</g>
	<g id="XMLID_1082_">
		<line id="XMLID_39_" x1="397.2" y1="2.4" x2="319.3" y2="226.7"/>
		<g id="XMLID_34_">
			<path id="XMLID_38_" d="M394.8,1.7c-8.8,25.3-17.6,50.7-26.4,76c-13.9,40.2-27.9,80.4-41.8,120.5c-3.2,9.3-6.4,18.5-9.6,27.8
				c-1.1,3,3.8,4.4,4.8,1.3c8.8-25.3,17.6-50.7,26.4-76C362.1,111.2,376,71,390,30.8c3.2-9.3,6.4-18.5,9.6-27.8
				C400.7,0,395.8-1.3,394.8,1.7L394.8,1.7z"/>
		</g>
	</g>
</g>
</svg>
