<?xml version="1.0" encoding="utf-8"?>
<!-- Generator: Adobe Illustrator 19.0.0, SVG Export Plug-In . SVG Version: 6.00 Build 0)  -->
<svg version="1.1" xmlns="http://www.w3.org/2000/svg" xmlns:xlink="http://www.w3.org/1999/xlink" x="0px" y="0px"
	 viewBox="0 0 504 552.9" style="enable-background:new 0 0 504 552.9;" xml:space="preserve">
<style type="text/css">
	.st0{fill:#B3B3B3;}
	.st1{fill:none;stroke:#000000;stroke-miterlimit:10;}
	.st2{fill:#A67C52;}
	.st3{fill:#C69C6D;}
	.st4{fill:#603813;}
	.st5{fill:#00FF00;}
	.st6{display:none;}
	.st7{display:inline;}
	.st8{fill:#754C24;}
	.st9{fill:#FFFFFF;}
	.st10{fill:#FF0000;}
	.st11{opacity:0.3;}
	.st12{opacity:0.23;}
</style>
<g id="Layer_8">
</g>
<g id="Layer_3">
	<g id="XMLID_26_">
		<g id="XMLID_6_">
			<g id="XMLID_42_">
				<path id="XMLID_18_" d="M231.3,147c-7.8,62.6-6.5,135.7,45.3,180.2c11.6,10,25.2,17.5,40,21.5c1.9,0.5,2.7-2.4,0.8-2.9
					c-27.1-7.3-49-26.5-63.5-50.1c-16.8-27.3-22.9-59.3-23.4-91c-0.3-19.3,1.4-38.6,3.8-57.7C234.6,145.1,231.6,145.1,231.3,147
					L231.3,147z"/>
			</g>
		</g>
		<g id="XMLID_19_">
			<g id="XMLID_49_">
				<path id="XMLID_33_" d="M434.7,147c7.6,61,7,131.7-42.2,176.2c-11.7,10.6-25.6,18.5-40.9,22.6c-1.9,0.5-1.1,3.4,0.8,2.9
					c26.9-7.2,48.8-25.9,63.8-48.9c17.6-27.1,24.4-59.4,25.3-91.3c0.6-20.5-1.2-41.1-3.7-61.4C437.5,145.1,434.5,145.1,434.7,147
					L434.7,147z"/>
			</g>
		</g>
		<g id="XMLID_25_">
			<g id="XMLID_56_">
				<path id="XMLID_32_" d="M313.3,347.8c13.3,3.9,27.2,4.3,40.7,1c1.9-0.5,1.1-3.3-0.8-2.9c-13,3.1-26.3,2.8-39.1-1
					C312.2,344.4,311.4,347.3,313.3,347.8L313.3,347.8z"/>
			</g>
		</g>
	</g>
	<g id="XMLID_34_">
		<g id="XMLID_47_">
			<g id="XMLID_79_">
				<path id="XMLID_54_" d="M154.3,156c-7.8,62.6-6.5,135.7,45.3,180.2c11.6,10,25.2,17.5,40,21.5c1.9,0.5,2.7-2.4,0.8-2.9
					c-27.1-7.3-49-26.5-63.5-50.1c-16.8-27.3-22.9-59.3-23.4-91c-0.3-19.3,1.4-38.6,3.8-57.7C157.6,154.1,154.6,154.1,154.3,156
					L154.3,156z"/>
			</g>
		</g>
		<g id="XMLID_41_">
			<g id="XMLID_73_">
				<path id="XMLID_53_" d="M357.7,156c7.6,61,7,131.7-42.2,176.2c-11.7,10.6-25.6,18.5-40.9,22.6c-1.9,0.5-1.1,3.4,0.8,2.9
					c26.9-7.2,48.8-25.9,63.8-48.9c17.6-27.1,24.4-59.4,25.3-91.3c0.6-20.5-1.2-41.1-3.7-61.4C360.5,154.1,357.5,154.1,357.7,156
					L357.7,156z"/>
			</g>
		</g>
		<g id="XMLID_39_">
			<g id="XMLID_67_">
				<path id="XMLID_48_" d="M236.3,356.8c13.3,3.9,27.2,4.3,40.7,1c1.9-0.5,1.1-3.3-0.8-2.9c-13,3.1-26.3,2.8-39.1-1
					C235.2,353.4,234.4,356.3,236.3,356.8L236.3,356.8z"/>
			</g>
		</g>
	</g>
</g>
<g id="Layer_1">
	<g id="XMLID_85_">
		<g id="XMLID_88_">
			<circle id="XMLID_90_" class="st0" cx="252" cy="300.9" r="251.5"/>
		</g>
		<g id="XMLID_89_">
			<circle id="XMLID_92_" class="st1" cx="252" cy="300.9" r="251.5"/>
		</g>
	</g>
</g>
<g id="Layer_6">
	<g id="XMLID_95_">
		<g id="XMLID_98_">
			<path id="XMLID_37_" class="st2" d="M117.9,184.4c2-2.4,4-4.9,6.9-4.7c1.7,12,3.3,24,5,36c0.3,2.1,0.6,4.3,0.9,6.4
				c1.6,11.6,3.2,23.3,4.8,34.9c-6.9-0.7-12.4-7.3-15.9-14.2c-3.5-6.9-4.8-14.9-5.7-22.8c-1-9.4-1.5-19.1,0.7-28.2
				C115.3,189.1,116.2,186.5,117.9,184.4z"/>
			<path id="XMLID_72_" class="st2" d="M387.1,176.4c2.9-0.2,4.9,2.4,6.9,4.8c1.6,2.1,2.5,4.8,3.1,7.4c2.1,9.1,1.4,18.8,0.2,28.2
				c-1,7.8-2.5,15.8-6.1,22.7c-3.6,6.8-9.2,13.4-16.1,14c1.8-11.6,3.6-23.2,5.4-34.8c0.3-2.1,0.7-4.3,1-6.4
				C383.4,200.3,385.2,188.4,387.1,176.4z"/>
		</g>
		<g id="XMLID_99_">
		</g>
	</g>
</g>
<g id="Layer_2">
	<g id="XMLID_160_">
		<g id="XMLID_10_">
			<path id="XMLID_172_" class="st3" d="M200.1,396.9c9.3,5.6,19.8,11.1,31.8,16.9c16.9,5.4,30.5,5.1,47.5,0.2
				c9.5-5.1,18.1-10.2,25.9-15.2l2.8,0.6c-0.1,9.8,0.7,19.4,0.6,29.2c-36-2.5-72.4,0.7-108.2,5.7
				C200.1,432.8,199.6,410.1,200.1,396.9z"/>
			<path id="XMLID_169_" class="st3" d="M231.9,413.8c-12-5.8-22.5-11.3-31.8-16.9c-27.4-16.7-44-34.8-55.9-67.3
				c-15.4-41.7-23.6-110.1-23.9-166.5c11.5-10,24.4-42,39.4-41.9c9.2,0,17.9,4,26.6,7c31.3,10.8,66.6,9.6,97.1-3.2
				c6.6-2.8,13.2-6.1,20.3-7c7.1-0.9,13.2-30.4,16.9-24.2c2.2,3.7,7.3,2.6,9.5,1.3c2.4,2.8,5.3,3,9.2,1c4.5-2.3,4.6,4.9,7.3,0.7
				c2.8-4.2-0.3,4.3,4,1.7c6.2-3.7,13.3,21.4,19.8,24.5c5.6,2.7,13,27.1,18.3,37c-0.7,54.9-9.7,120.5-21.1,164.1
				c-6.9,26.2-24.8,50.4-62.2,74.9c-7.8,5.1-16.4,10.1-25.9,15.2C262.4,419,248.7,419.3,231.9,413.8z"/>
			<path id="XMLID_101_" class="st4" d="M159.6,121.2c-15-0.1-27.9,31.9-39.4,41.9c-0.1-18.3,0.6-35.3,2.2-49.8
				c8.9-25.5,15.9-31,39.5-47.4c28-10.7,58.4-16.6,90.1-16.6c38,0,74,8.4,106.3,23.5c12.7,12,20.8,22.1,28.4,40.5
				c1.5,13.9,2.1,29.7,1.9,46.5c-5.2-9.9-12.7-34.3-18.3-37c-6.5-3.1-13.7-28.2-19.8-24.5c-4.3,2.6-1.2-5.9-4-1.7
				c-2.8,4.2-2.8-3-7.3-0.7c-3.9,2-6.8,1.8-9.2-1c1.5-0.9,1.7-1.9-1.2-1.6c0.4,0.6,0.8,1.2,1.2,1.6c-2.2,1.3-7.3,2.4-9.5-1.3
				c-3.7-6.2-9.7,23.4-16.9,24.2c-7.1,0.9-13.7,4.2-20.3,7c-30.5,12.9-65.8,14-97.1,3.2C177.5,125.2,168.8,121.2,159.6,121.2z"/>
			<path id="XMLID_151_" class="st5" d="M435.7,472.1l0.3,0.2c-45.9,49.2-111.3,80-184,80c-67,0-127.8-26.2-172.9-68.9
				c14.1-16.1,33.3-27.3,53.5-34.5c20.3-7.3,41.8-10.9,63.2-14c1.6-0.2,3.1-0.4,4.7-0.7c10,22.3,32.8,36.8,56.1,35.7
				c23.3-1.2,45.1-19.1,52.1-41.4c3.8,0.3,7.6,0.6,11.4,1C361.4,434,402.6,447,435.7,472.1z"/>
			<path id="XMLID_66_" class="st4" d="M343.2,59.2c5.7,5.1,10.7,9.5,15.1,13.7C326,57.8,290,49.4,252,49.4
				c-31.8,0-62.1,5.9-90.1,16.6c1.4-0.9,2.8-1.9,4.3-3c26.1-18.1,59.1-28.2,93.3-27.3C291.5,36.5,321,39.5,343.2,59.2z"/>
			<path id="XMLID_55_" class="st4" d="M328.8,93.4c2.9-0.3,2.7,0.8,1.2,1.6C329.6,94.5,329.2,94,328.8,93.4z"/>
			<path id="XMLID_36_" class="st3" d="M308.7,428.6c-7,22.3-28.8,40.2-52.1,41.4c-23.3,1.2-46.2-13.3-56.1-35.7
				C236.3,429.4,272.6,426.1,308.7,428.6z"/>
		</g>
		<g id="XMLID_12_">
		</g>
	</g>
</g>
<g id="Layer_7" class="st6">
	<g id="XMLID_155_" class="st7">
		<g id="XMLID_167_">
			<path id="XMLID_174_" class="st8" d="M162.7,124.5l0-0.6c-11.6-11.8-14.7-30.4-10.2-46.3c4.6-15.9,16.7-28.3,29.5-38.9
				c14.3-11.9,46-19.9,67-22.6c-11.2,4.5-20.7,9.2-20.7,21.3c4.5-6.5,9.3-8.4,16.2-12.1c7.5-4,27-10.3,34.9-9.3
				c20.7,2.6,37,5,56.2,13.3c16.6,7.2,32.5,25,40,42.5c7.6,17.7,17.8,39.6,17.7,56.5c-22.4-12.6-54.3-18.2-79.4-12.4
				c-12.7,2.9-24.4,8-36.4,11.6C239.3,139,199,140.9,162.7,124.5z"/>
		</g>
		<g id="XMLID_168_">
		</g>
	</g>
</g>
<g id="Layer_4">
	<g id="XMLID_152_">
		<g id="XMLID_126_">
			<path id="XMLID_111_" class="st9" d="M315.1,329.6c-2.9,5.7-6.9,11-11.5,15.7l-0.6-0.6c-29.6-5.9-60.9-3.2-89,7.7l-0.3,0.3
				c-3.6-2.8-6.8-6.1-9.8-9.7C237.1,323.7,278.3,318.7,315.1,329.6z"/>
			<path id="XMLID_110_" d="M303,344.7l0.6,0.6c-7,7.1-15.7,12.9-25,16.7l-0.9-2.3c-5.2-4.6-13.4-5.5-19.5-2.1l-0.5-0.2
				c-7.7-1.9-16.2,0.4-22,5.7l-0.3,0.9c-7.8-2.4-15.2-6.2-21.6-11.4l0.3-0.3C242.1,341.5,273.4,338.8,303,344.7z"/>
			<path id="XMLID_109_" class="st10" d="M277.7,359.7l0.9,2.3c-5.8,2.4-11.7,3.9-17.7,4.6c-8.7,0.9-17.4,0-25.6-2.5l0.3-0.9
				c5.8-5.4,14.3-7.6,22-5.7l0.5,0.2C264.3,354.2,272.5,355.1,277.7,359.7z"/>
		</g>
		<g id="XMLID_128_">
		</g>
	</g>
	<g id="XMLID_112_" class="st11">
		<g id="XMLID_119_">
			<path id="XMLID_121_" d="M285.6,292c0.5,1.4-1.5,2.3-2.5,3c-2.6,1.9-5.5,3.5-8.5,4.8c-6.1,2.5-12.7,3.6-19.2,3
				c-5.7-0.5-11.2-2.2-16.5-4.4c-2-0.8-14.4-5.4-13.3-7.8c0.4-0.8,1.4-1.2,2.2-1.1c0.9,0.1,1.7,0.6,2.4,1c7.4,4.1,15.4,7.3,23.8,8.1
				c8.4,0.8,17.2-0.9,24.1-5.8c1.2-0.9,2.5-1.9,4-2.2C283.3,290.4,285.2,290.8,285.6,292z"/>
		</g>
		<g id="XMLID_117_">
			<path id="XMLID_118_" class="st1" d="M255.3,302.9c6.5,0.6,13.2-0.5,19.2-3c3-1.3,5.9-2.9,8.5-4.8c1-0.7,3-1.7,2.5-3
				c-0.4-1.2-2.3-1.6-3.4-1.4c-1.5,0.3-2.7,1.3-4,2.2c-6.9,4.9-15.7,6.6-24.1,5.8c-8.4-0.8-16.5-4-23.8-8.1c-0.8-0.4-1.6-0.9-2.4-1
				c-0.9-0.1-1.9,0.3-2.2,1.1c-1.1,2.4,11.3,7,13.3,7.8C244.1,300.6,249.6,302.4,255.3,302.9z"/>
		</g>
	</g>
	<g id="XMLID_130_">
		<path id="XMLID_144_" d="M137.9,188.5c0,0,0.2-0.4,0.6-1.1c0.4-0.7,1-1.8,1.9-3c0.4-0.6,0.9-1.4,1.5-2.1c0.6-0.7,1.2-1.5,1.9-2.4
			c0.7-0.8,1.5-1.6,2.3-2.5c0.9-0.9,1.8-1.7,2.8-2.7c1-0.9,2.1-1.8,3.2-2.7c1.2-0.9,2.4-1.8,3.7-2.6c2.6-1.7,5.5-3.3,8.6-4.7
			c1.6-0.7,3.2-1.4,4.8-1.9c1.6-0.6,3.4-1.1,5.1-1.6c1.8-0.4,3.5-0.9,5.3-1.1c0.9-0.1,1.8-0.3,2.7-0.4l2.8-0.3
			c3.3-0.2,7.3-0.1,10.8,0.3c1.8,0.2,3.6,0.4,5.3,0.8c1.7,0.3,3.4,0.8,5,1.2c3.3,1,6.3,2.1,9.1,3.5c1.4,0.6,2.7,1.4,4,2.1
			c1.3,0.7,2.4,1.5,3.6,2.2c1.1,0.8,2.1,1.5,3.1,2.3c0.9,0.8,1.8,1.5,2.7,2.2c0.8,0.7,1.5,1.4,2.2,2.1c0.7,0.7,1.2,1.3,1.8,1.9
			c1.1,1.1,1.8,2.1,2.3,2.7c0.5,0.7,0.8,1,0.8,1s-0.4-0.2-1.1-0.7c-0.7-0.4-1.7-1.1-3-1.9c-0.7-0.4-1.4-0.8-2.1-1.3
			c-0.8-0.4-1.7-0.9-2.6-1.4c-0.9-0.5-1.9-0.9-2.9-1.5c-1-0.5-2.1-1-3.3-1.5c-2.3-0.9-4.8-1.9-7.6-2.8c-2.7-0.9-5.6-1.6-8.6-2.2
			c-3-0.6-6.1-1-9.3-1.2c-3.3-0.2-6.2-0.2-9.8,0l-2.3,0.2c-0.8,0.1-1.6,0.2-2.4,0.3c-1.6,0.2-3.2,0.5-4.8,0.8
			c-3.1,0.7-6.2,1.5-9.1,2.5c-2.9,1-5.7,2.1-8.2,3.3c-2.6,1.2-4.9,2.5-7.1,3.8c-1.1,0.7-2.1,1.3-3.1,1.9c-1,0.7-1.9,1.3-2.7,1.8
			c-0.8,0.6-1.6,1.2-2.3,1.7c-0.7,0.5-1.4,1.1-1.9,1.5c-1.2,0.9-2.1,1.7-2.7,2.3C138.2,188.2,137.9,188.5,137.9,188.5z"/>
	</g>
	<g id="XMLID_127_">
		<path id="XMLID_142_" d="M381.8,188.5c0,0-0.3-0.3-1-0.8c-0.6-0.5-1.5-1.3-2.7-2.3c-0.6-0.5-1.2-1-1.9-1.5
			c-0.7-0.5-1.5-1.1-2.3-1.7c-0.9-0.6-1.8-1.2-2.7-1.8c-1-0.6-2-1.3-3.1-1.9c-2.2-1.2-4.5-2.6-7.1-3.8c-2.5-1.3-5.3-2.3-8.2-3.3
			c-2.9-1-6-1.8-9.1-2.5c-1.6-0.3-3.2-0.6-4.8-0.8c-0.8-0.1-1.6-0.3-2.4-0.3l-2.3-0.2c-3.6-0.2-6.5-0.2-9.8,0
			c-3.2,0.3-6.3,0.6-9.3,1.2c-3,0.6-5.9,1.3-8.6,2.2c-2.7,0.8-5.2,1.8-7.6,2.8c-1.1,0.5-2.2,1-3.3,1.5c-1,0.5-2,1-2.9,1.5
			c-0.9,0.5-1.8,1-2.6,1.4c-0.8,0.4-1.5,0.9-2.1,1.3c-1.3,0.8-2.3,1.4-3,1.9c-0.7,0.4-1.1,0.7-1.1,0.7s0.3-0.3,0.8-1
			c0.5-0.6,1.2-1.6,2.3-2.7c0.5-0.6,1.1-1.2,1.8-1.9c0.7-0.7,1.4-1.3,2.2-2.1c0.8-0.7,1.7-1.4,2.7-2.2c1-0.7,2-1.5,3.1-2.3
			c1.1-0.7,2.3-1.5,3.6-2.2c1.3-0.7,2.6-1.4,4-2.1c2.8-1.4,5.9-2.5,9.1-3.5c1.6-0.5,3.3-0.9,5-1.2c1.7-0.4,3.5-0.6,5.3-0.8
			c3.5-0.4,7.5-0.4,10.8-0.3l2.8,0.3c0.9,0.1,1.8,0.2,2.7,0.4c1.8,0.2,3.6,0.7,5.3,1.1c1.7,0.5,3.5,0.9,5.1,1.6
			c1.7,0.5,3.3,1.2,4.8,1.9c3.1,1.4,6,3,8.6,4.7c1.3,0.8,2.5,1.7,3.7,2.6c1.2,0.9,2.2,1.8,3.2,2.7c1,0.9,1.9,1.8,2.8,2.7
			c0.8,0.9,1.6,1.7,2.3,2.5c0.7,0.8,1.3,1.6,1.9,2.4c0.6,0.7,1,1.5,1.5,2.1c0.9,1.2,1.4,2.3,1.9,3
			C381.6,188.1,381.8,188.5,381.8,188.5z"/>
	</g>
	<g id="XMLID_133_">
		<g id="XMLID_137_">
			<path id="XMLID_165_" class="st9" d="M329.3,178.7c7.9,2.6,13.9,13,13.9,25.4s-5.9,22.8-13.9,25.4c5.2-3.4,9-13.5,9-25.4
				S334.5,182.1,329.3,178.7z"/>
			<path id="XMLID_164_" d="M329.3,178.7c5.2,3.4,9,13.5,9,25.4s-3.8,21.9-9,25.4c-1.3,0.4-2.6,0.6-3.9,0.6s-2.7-0.2-3.9-0.6
				c-5.2-3.4-9-13.5-9-25.4s3.8-21.9,9-25.4c1.3-0.4,2.6-0.6,3.9-0.6S328.1,178.3,329.3,178.7z"/>
			<path id="XMLID_163_" class="st9" d="M321.5,178.7c-5.2,3.4-9,13.5-9,25.4s3.8,21.9,9,25.4c-7.9-2.6-13.8-13-13.8-25.4
				S313.6,181.3,321.5,178.7z"/>
			<path id="XMLID_159_" class="st9" d="M189.3,178c10.2,0,18.5,11.6,18.5,26s-8.3,26-18.5,26c7.6,0,13.8-11.6,13.8-26
				S196.9,178,189.3,178z"/>
			<path id="XMLID_158_" d="M189.3,178c7.6,0,13.8,11.6,13.8,26s-6.2,26-13.8,26s-13.8-11.6-13.8-26S181.7,178,189.3,178z"/>
			<path id="XMLID_157_" class="st9" d="M189.3,178c-7.6,0-13.8,11.6-13.8,26s6.2,26,13.8,26c-10.2,0-18.5-11.6-18.5-26
				S179.1,178,189.3,178z"/>
		</g>
		<g id="XMLID_138_">
		</g>
	</g>
</g>
<g id="Layer_5">
	<g id="XMLID_14_" class="st12">
		<g id="XMLID_77_">
			<path id="XMLID_91_" d="M308.1,400.5c-0.1,9.8,0.7,19.4,0.6,29.2c-5,15.9-17.5,29.6-32.8,36.6c-0.6-8.6-3.6-17.9-10.3-23.3
				c-9.1-7.2-22-6.2-33-9.9c-5.2-1.7-10-4.6-14.7-7.5c-5.5-3.5-11.1-7.3-14.6-12.9c-2.4-3.9-3.3-8.7-3.3-13.3c0-0.3,0-0.7,0-1
				c0-0.3,0-0.5,0-0.8c0-0.3,0-0.5,0-0.8c9.8,6.8,20.3,13.6,31.7,17c16.9,5.4,30.5,5.1,47.5,0.2C289.5,411,299.2,406.3,308.1,400.5
				L308.1,400.5z"/>
		</g>
		<g id="XMLID_78_">
		</g>
	</g>
</g>
<g id="Layer_9">
	<g id="XMLID_180_">
		<g id="XMLID_178_">
			<path id="XMLID_183_" class="st8" d="M368.8,74.5c11.8,10.4,16.7,41.6,17.9,57.2c-2-10.1-12.5-27.4-21.7-32.1
				c-9.2-4.7-12.9-6.9-22.8-6.8c-9.1,0.1-14.7,7.7-21.9,13.4c-20.1,16.2-46.2,25.1-71.8,27.8c-28,3-56.5,2.3-77.9-11.5
				c-24.6-11.4-26.1-48-12.9-71.9C170,28.4,186.8,7.3,211.5,1.3c-7.5,7.7-10.7,20.6-10.7,31.3c3.6-14,16.2-24.3,30-28.8
				c13.8-4.4,28.6-3.9,43-2.7c12.2,1,24.6,2.5,36,6.9c11.5,4.4,22,12,27.8,22.9c-7.3-4.7-17.1-3.8-25.6-1.8
				c23.9,1.1,45.8,15.2,60.3,34.2c-13.5-7.3-29-10.8-44.4-10C343.7,53.4,357.1,64.1,368.8,74.5z"/>
		</g>
		<g id="XMLID_182_">
		</g>
	</g>
</g>
</svg>
