<?xml version="1.0" encoding="utf-8"?>
<!-- Generator: Adobe Illustrator 19.0.0, SVG Export Plug-In . SVG Version: 6.00 Build 0)  -->
<svg version="1.1" xmlns="http://www.w3.org/2000/svg" xmlns:xlink="http://www.w3.org/1999/xlink" x="0px" y="0px"
	 viewBox="0 0 499 531" style="enable-background:new 0 0 499 531;" xml:space="preserve">
<style type="text/css">
	.st0{fill:#CCCCCC;}
	.st1{fill:none;stroke:#000000;stroke-miterlimit:10;}
	.st2{fill:#A67C52;}
	.st3{fill:#603813;}
	.st4{fill:#C69C6D;}
	.st5{fill:#42210B;}
	.st6{fill:#00FFFF;}
	.st7{fill:#FFFFFF;}
	.st8{opacity:0.3;}
	.st9{opacity:0.16;}
</style>
<g id="Layer_5">
	<g id="XMLID_68_">
		<g id="XMLID_72_">
			<circle id="XMLID_11_" class="st0" cx="249.5" cy="281.5" r="249"/>
		</g>
		<g id="XMLID_80_">
			<circle id="XMLID_12_" class="st1" cx="249.5" cy="281.5" r="249"/>
		</g>
	</g>
</g>
<g id="Layer_4">
	<g id="XMLID_144_">
		<g id="XMLID_7_">
			<path id="XMLID_66_" class="st2" d="M401.2,130c11.3,11.6,17.7,27.9,17.5,44.1c-0.3,16.3-7.3,32.4-19.1,43.7l-0.7,0
				c1-57.3-0.1-34.6-0.1-53.3h0.6C400.2,153,401,141.5,401.2,130z"/>
			<path id="XMLID_65_" class="st3" d="M401.2,130c-0.2,11.5-1,23-1.9,34.5h-0.6c0-0.1,0-0.2,0-0.2c0.1-20.4-9.4-42.4-20.6-59.4
				c-16.7,8.6-36.5,11.1-54.8,6.9c5.1-2.6,10-5.8,14.5-9.5c11.3-9.3,19.6-21.7,27.5-33.9c1.1-1.7,2.2-3.5,3.4-5.4
				c10.2,5.6,19.9,11.8,29.2,18.7c0.1,0.5,0.2,0.9,0.3,1.4C400.8,98.4,401.5,114.2,401.2,130z"/>
			<path id="XMLID_42_" class="st4" d="M300.5,325.3c-35.3-5-69-3.9-103.7,4.2c8.3,21.3,31,36,53.9,34.9
				C273.2,363.3,294.1,346.9,300.5,325.3z M337.5,390.5c-14.8,13.6-30.2,26.6-46.2,38.8c-29.1,9.7-55.3,8.8-83.5-3
				c-10.7-8.2-21.1-16.7-31.3-25.5c-17.9-15.5-35-31.9-51.1-49.3c-8.5-9.1-16.9-18.7-21.1-30.4c-3.9-10.8-4-22.5-4-34
				c0-22.1,0-44.2,0-66.3c-0.1-2.1-0.1-4.3-0.2-6.4c-0.2-13.5,0.2-27.3,1.7-40.9v0c3-28.3,10.2-56.1,24.7-80.8
				c16.3,17.5,42.2,30.2,65.8,34.1c23.7,3.9,47.9,2.3,71.7-0.4c20.3-2.2,41.4-5.5,59.3-14.8c18.3,4.2,38.1,1.7,54.8-6.9
				c11.2,17,20.7,39.1,20.6,59.4c0,0.1,0,0.2,0,0.2c0,18.6,1.1-4.1,0.1,53.3c0,1.9-0.1,4-0.1,6.1c0,22.1,0,44.2,0,66.3
				c0,11.5-0.1,23.2-4,34c-4.2,11.7-12.6,21.3-21.1,30.4C362,367,350,379,337.5,390.5z M340.9,191.2c0-12.4-6.1-22.8-14.3-25.4
				c-1.3-0.8-2.6-1.3-4-1.3c-1.4,0-2.8,0.4-4,1.3c-8.2,2.6-14.2,13-14.2,25.4s6.1,22.8,14.2,25.4c1.3,0.8,2.6,1.3,4,1.3
				c1.4,0,2.8-0.4,4-1.3C334.8,213.9,340.9,203.5,340.9,191.2z M201.6,191.2c0-14.4-8.5-26-19-26s-19,11.6-19,26s8.5,26,19,26
				S201.6,205.5,201.6,191.2z"/>
			<path id="XMLID_41_" class="st3" d="M391.4,63.4c3.6,5.4,5.3,11.8,6.5,18.2c-9.3-6.9-19-13.1-29.2-18.7c1.7-2.9,3.5-6,5.2-9.2
				l0.1,0.1C381,53.2,387.5,57.6,391.4,63.4z"/>
			<path id="XMLID_40_" class="st5" d="M160.1,37.4c8.6-11,16.4-21.4,34.1-29.4c16.6-7.5,49.4-10.3,68-5c18.6,5.3,30,11.5,49,14.5
				c28.8,4.5,62.9,0.3,88-14.5c-0.9,0.6-13.2,28.5-25.3,50.6c-1.8,3.2-3.5,6.3-5.2,9.2c-35.4-19.3-76-30.3-119.2-30.3
				c-36.8,0-71.7,8-103.1,22.3c2.1-3.1,4.5-6.2,7.2-9.3C155.9,42.8,158,40.1,160.1,37.4z"/>
			<path id="XMLID_36_" class="st5" d="M323.3,111.7c-17.9,9.2-39,12.5-59.3,14.8c-23.8,2.6-48,4.3-71.7,0.4
				c-23.6-3.9-49.5-16.6-65.8-34.1c0,0-0.1-0.1-0.1-0.1h0c6.2-13.1,11.4-25.5,20-37.9c31.4-14.3,66.4-22.3,103.1-22.3
				c43.2,0,83.8,11,119.2,30.3c-1.2,1.9-2.3,3.7-3.4,5.4c-7.9,12.3-16.2,24.6-27.5,33.9C333.3,105.9,328.4,109.1,323.3,111.7z"/>
			<path id="XMLID_33_" class="st6" d="M172.1,463.8c6.2,2.2,12.6,4.1,19,5.6c32.1,7.7,66.1,7.1,97.9-1.6
				c19.2-5.3,38-10.1,55.1-18.2c0,0.1,0.1,0.3,0.1,0.4l0.3-0.1c18.5-2.3,39.1,11.4,54.3,31c-41.6,31.2-93.2,49.6-149.2,49.6
				c-50.7,0-97.9-15.2-137.3-41.2c15.7-13.8,39.6-24.5,58.2-26.1C171,463.4,171.5,463.6,172.1,463.8z"/>
			<path id="XMLID_30_" class="st4" d="M172.1,463.1c1.4-20.2,2.9-41.7,4.3-62.3c10.2,8.8,20.6,17.3,31.3,25.5
				c28.3,11.8,54.5,12.7,83.5,3c16-12.2,31.4-25.2,46.2-38.8c-0.4,19.9,1.8,39.8,6.6,59.1c-17.1,8.1-35.9,12.9-55.1,18.2
				c-31.8,8.7-65.8,9.3-97.9,1.6c-6.4-1.5-12.8-3.4-19-5.6C172.1,463.5,172.1,463.3,172.1,463.1z"/>
			<path id="XMLID_29_" d="M326.7,165.8c5.4,3.4,9.3,13.5,9.3,25.4c0,11.9-3.9,21.9-9.3,25.4c-1.3,0.4-2.7,0.6-4,0.6
				c-1.4,0-2.7-0.2-4-0.6c-5.4-3.4-9.2-13.5-9.2-25.4c0-11.9,3.9-21.9,9.2-25.4c1.3-0.4,2.7-0.6,4-0.6
				C324,165.2,325.4,165.4,326.7,165.8z"/>
			<path id="XMLID_22_" class="st7" d="M300.5,325.3c-6.5,21.6-27.3,38-49.8,39.1c-22.8,1.1-45.6-13.6-53.9-34.9
				C231.6,321.4,265.2,320.3,300.5,325.3z"/>
			<path id="XMLID_16_" d="M182.6,165.2c7.9,0,14.2,11.6,14.2,26s-6.4,26-14.2,26s-14.2-11.6-14.2-26S174.7,165.2,182.6,165.2z"/>
			<path id="XMLID_15_" class="st3" d="M160.1,37.4c-2.1,2.7-4.2,5.4-6.6,8.1c-2.7,3.1-5,6.2-7.2,9.3c-15.6,7.1-30.4,15.8-44.1,25.9
				c2.4-7.3,5.8-14.3,11.1-20.2C124.5,48.5,143.9,40,160.1,37.4z"/>
			<path id="XMLID_14_" class="st3" d="M126.3,92.7L126.3,92.7c0,0,0.1,0.1,0.1,0.1c-14.5,24.7-21.7,52.6-24.7,80.8
				c-2.9-11.4-6.6-29.9-6.9-46.4c-0.1-5.7,0.2-11.2,1.1-16.1c1.7-8.9,2.9-20,6.3-30.4c13.7-10.1,28.4-18.8,44.1-25.9
				C137.7,67.2,132.6,79.6,126.3,92.7z"/>
			<path id="XMLID_13_" class="st2" d="M101.8,173.6L101.8,173.6c-1.4,13.7-1.9,27.4-1.7,40.9l-1.5,0c-13-10.1-21.4-26-22.4-42.5
				c-1-16.5,6.9-33.3,18.6-44.9h0C95.1,143.7,98.9,162.2,101.8,173.6z"/>
		</g>
		<g id="XMLID_10_">
		</g>
	</g>
</g>
<g id="Layer_7">
	<g id="XMLID_52_">
		<path id="XMLID_64_" d="M126.6,176.6c0,0,0.2-0.4,0.6-1.1c0.4-0.7,1-1.8,1.9-3c0.4-0.6,0.9-1.4,1.5-2.1c0.6-0.7,1.2-1.5,1.9-2.4
			c0.7-0.8,1.5-1.6,2.3-2.5c0.9-0.9,1.8-1.7,2.8-2.7c1-0.9,2.1-1.8,3.2-2.7c1.2-0.9,2.4-1.8,3.7-2.6c2.6-1.7,5.5-3.3,8.6-4.7
			c1.6-0.7,3.2-1.4,4.8-1.9c1.6-0.6,3.4-1.1,5.1-1.6c1.8-0.4,3.5-0.9,5.3-1.1c0.9-0.1,1.8-0.3,2.7-0.4l2.8-0.3
			c3.3-0.2,7.3-0.1,10.8,0.3c1.8,0.2,3.6,0.4,5.3,0.8c1.7,0.3,3.4,0.8,5,1.2c3.3,1,6.3,2.1,9.1,3.5c1.4,0.6,2.7,1.4,4,2.1
			c1.3,0.7,2.4,1.5,3.6,2.2c1.1,0.8,2.1,1.5,3.1,2.3c0.9,0.8,1.8,1.5,2.7,2.2c0.8,0.7,1.5,1.4,2.2,2.1c0.7,0.7,1.2,1.3,1.8,1.9
			c1.1,1.1,1.8,2.1,2.3,2.7c0.5,0.7,0.8,1,0.8,1s-0.4-0.2-1.1-0.7c-0.7-0.4-1.7-1.1-3-1.9c-0.7-0.4-1.4-0.8-2.1-1.3
			c-0.8-0.4-1.7-0.9-2.6-1.4c-0.9-0.5-1.9-0.9-2.9-1.5c-1-0.5-2.1-1-3.3-1.5c-2.3-0.9-4.8-1.9-7.6-2.8c-2.7-0.9-5.6-1.6-8.6-2.2
			c-3-0.6-6.1-1-9.3-1.2c-3.3-0.2-6.2-0.2-9.8,0l-2.3,0.2c-0.8,0.1-1.6,0.2-2.4,0.3c-1.6,0.2-3.2,0.5-4.8,0.8
			c-3.1,0.7-6.2,1.5-9.1,2.5c-2.9,1-5.7,2.1-8.2,3.3c-2.6,1.2-4.9,2.5-7.1,3.8c-1.1,0.7-2.1,1.3-3.1,1.9c-1,0.7-1.9,1.3-2.7,1.8
			c-0.8,0.6-1.6,1.2-2.3,1.7c-0.7,0.5-1.4,1.1-1.9,1.5c-1.2,0.9-2.1,1.7-2.7,2.3C126.9,176.3,126.6,176.6,126.6,176.6z"/>
	</g>
	<g id="XMLID_50_">
		<path id="XMLID_62_" d="M370.5,176.6c0,0-0.3-0.3-1-0.8c-0.6-0.5-1.5-1.3-2.7-2.3c-0.6-0.5-1.2-1-1.9-1.5
			c-0.7-0.5-1.5-1.1-2.3-1.7c-0.9-0.6-1.8-1.2-2.7-1.8c-1-0.6-2-1.3-3.1-1.9c-2.2-1.2-4.5-2.6-7.1-3.8c-2.5-1.3-5.3-2.3-8.2-3.3
			c-2.9-1-6-1.8-9.1-2.5c-1.6-0.3-3.2-0.6-4.8-0.8c-0.8-0.1-1.6-0.3-2.4-0.3l-2.3-0.2c-3.6-0.2-6.5-0.2-9.8,0
			c-3.2,0.3-6.3,0.6-9.3,1.2c-3,0.6-5.9,1.3-8.6,2.2c-2.7,0.8-5.2,1.8-7.6,2.8c-1.1,0.5-2.2,1-3.3,1.5c-1,0.5-2,1-2.9,1.5
			c-0.9,0.5-1.8,1-2.6,1.4c-0.8,0.4-1.5,0.9-2.1,1.3c-1.3,0.8-2.3,1.4-3,1.9c-0.7,0.4-1.1,0.7-1.1,0.7s0.3-0.3,0.8-1
			c0.5-0.6,1.2-1.6,2.3-2.7c0.5-0.6,1.1-1.2,1.8-1.9c0.7-0.7,1.4-1.3,2.2-2.1c0.8-0.7,1.7-1.4,2.7-2.2c1-0.7,2-1.5,3.1-2.3
			c1.1-0.7,2.3-1.5,3.6-2.2c1.3-0.7,2.6-1.4,4-2.1c2.8-1.4,5.9-2.5,9.1-3.5c1.6-0.5,3.3-0.9,5-1.2c1.7-0.4,3.5-0.6,5.3-0.8
			c3.5-0.4,7.5-0.4,10.8-0.3l2.8,0.3c0.9,0.1,1.8,0.2,2.7,0.4c1.8,0.2,3.6,0.7,5.3,1.1c1.7,0.5,3.5,0.9,5.1,1.6
			c1.7,0.5,3.3,1.2,4.8,1.9c3.1,1.4,6,3,8.6,4.7c1.3,0.8,2.5,1.7,3.7,2.6c1.2,0.9,2.2,1.8,3.2,2.7c1,0.9,1.9,1.8,2.8,2.7
			c0.8,0.9,1.6,1.7,2.3,2.5c0.7,0.8,1.3,1.6,1.9,2.4c0.6,0.7,1,1.5,1.5,2.1c0.9,1.2,1.4,2.3,1.9,3
			C370.3,176.2,370.5,176.6,370.5,176.6z"/>
	</g>
	<g id="XMLID_23_" class="st8">
		<g id="XMLID_57_">
			<path id="XMLID_60_" d="M288.6,281.4c0.6,1.8-2,3.1-3.3,4c-3.5,2.6-7.3,4.7-11.3,6.3c-8,3.3-16.8,4.7-25.4,3.9
				c-7.5-0.7-14.8-3-21.8-5.9c-2.6-1.1-18.9-7.1-17.5-10.3c0.5-1.1,1.8-1.5,2.9-1.4c1.2,0.1,2.2,0.7,3.2,1.3
				c9.7,5.5,20.3,9.6,31.4,10.7c11.1,1,22.7-1.2,31.8-7.7c1.6-1.2,3.3-2.5,5.2-2.9C285.6,279.2,288.1,279.7,288.6,281.4z"/>
		</g>
		<g id="XMLID_58_">
			<path id="XMLID_59_" class="st1" d="M248.7,295.7c8.6,0.8,17.4-0.6,25.4-3.9c4-1.6,7.8-3.8,11.3-6.3c1.3-0.9,3.9-2.2,3.3-4
				c-0.6-1.6-3-2.2-4.5-1.9c-2,0.4-3.6,1.7-5.2,2.9c-9.1,6.5-20.7,8.7-31.8,7.7c-11.1-1-21.7-5.2-31.4-10.7c-1-0.6-2.1-1.2-3.2-1.3
				c-1.2-0.1-2.5,0.3-2.9,1.4c-1.4,3.2,14.9,9.2,17.5,10.3C233.9,292.7,241.2,295,248.7,295.7z"/>
		</g>
	</g>
	<g id="XMLID_86_" class="st9">
		<g id="XMLID_5_">
			<path id="XMLID_3_" d="M343.9,449.6c-0.9,0.6-2.2,1.1-3.2,1.5l-0.1,0c-0.9-3.6-2-7.4-4.4-10.5c-2.6-3.3-6.9-5.9-11.8-5.9
				c-4.6,0-8.6,2.2-12.4,4.1c-25.2,12.4-59,13.3-85.3,2.4c-10.8-4.5-20.2-10.7-29.3-17.1c-9.7-6.8-18-13.6-20.9-23.4
				c9.8,9.1,20.9,16.9,31.3,25.5c28.3,11.8,54.5,12.7,83.5,3c6.1-4.7,12.2-9.5,18.2-14.4c20.9-16.9,8.9-5.2,28-24.2
				C336.3,413.4,338.3,427.6,343.9,449.6z"/>
		</g>
		<g id="XMLID_8_">
			<path id="XMLID_69_" class="st1" d="M337.5,390.7c-19.1,18.9-7,7.2-28,24.2c-6,4.9-12.1,9.7-18.2,14.4"/>
			<path id="XMLID_67_" class="st1" d="M176.4,400.8c9.8,9.1,20.9,16.9,31.3,25.5"/>
			<path id="XMLID_34_" class="st1" d="M207.7,426.3c28.3,11.8,54.5,12.7,83.5,3"/>
			<path id="XMLID_18_" class="st1" d="M337.5,390.7c-1.1,22.7,0.9,36.9,6.4,58.9"/>
			<path id="XMLID_9_" class="st1" d="M176.4,400.8c2.9,9.8,11.3,16.6,20.9,23.4c9.1,6.4,18.5,12.6,29.3,17.1
				c26.3,10.9,60.1,9.9,85.3-2.4c3.8-1.9,7.8-4.1,12.4-4.1c4.9,0,9.3,2.6,11.8,5.9c2.4,3.1,3.5,6.9,4.4,10.5c0,0.2,0.1,0.3,0.1,0.5"
				/>
			<path id="XMLID_6_" class="st1" d="M340.7,451.1c1.1-0.4,2.3-0.8,3.2-1.5c0.2-0.1,0.4-0.3,0.5-0.4"/>
		</g>
	</g>
</g>
</svg>
