<?xml version="1.0" encoding="utf-8"?>
<!-- Generator: Adobe Illustrator 19.0.0, SVG Export Plug-In . SVG Version: 6.00 Build 0)  -->
<svg version="1.1" id="Layer_2" xmlns="http://www.w3.org/2000/svg" xmlns:xlink="http://www.w3.org/1999/xlink" x="0px" y="0px"
	 viewBox="0 0 117.2 755.3" style="enable-background:new 0 0 117.2 755.3;" xml:space="preserve">
<style type="text/css">
	.st0{fill:#414042;}
	.st1{fill:#6D6E71;}
	.st2{fill:#58595B;}
	.st3{fill:#603913;}
	.st4{fill:#8B5E3C;}
	.st5{fill:none;stroke:#000000;stroke-miterlimit:10;}
	.st6{fill:none;stroke:#000000;stroke-width:0.5;stroke-linecap:round;stroke-linejoin:round;}
	.st7{fill:none;stroke:#000000;stroke-width:0.25;stroke-linecap:round;stroke-linejoin:round;}
</style>
<g id="XMLID_34_">
	<g id="XMLID_924_">
		<path id="XMLID_240_" class="st0" d="M116.7,696.2c0,1.3,0.1,2.5,0,3.8l-0.4,0c-1.4-3-3.5-5.6-6.1-7.6c0.2-1,0.4-1.9,0.6-2.9
			l0.1,0C112.8,691.7,114.7,693.9,116.7,696.2z"/>
		<path id="XMLID_239_" class="st0" d="M116.3,700l0.4,0c0,0.9,0,1.9-0.1,2.8l-0.6,0c-1.6-3.1-3.8-6-6.4-8.4c0.2-0.7,0.3-1.3,0.5-2
			C112.7,694.3,114.9,697,116.3,700z"/>
		<path id="XMLID_238_" class="st0" d="M111,687.9c0.1-0.7,0.2-1.4,0.3-2.1l0.3,0c1.6,2.3,3.2,4.7,4.8,7l0.1,0
			c0.1,1.1,0.1,2.2,0.2,3.3c-2-2.2-3.9-4.5-5.9-6.7l-0.1,0C110.8,688.9,110.9,688.4,111,687.9z"/>
		<path id="XMLID_237_" class="st0" d="M116.1,702.7l0.6,0c0,0.8-0.1,1.6-0.1,2.3h-0.4c-0.5-0.4-1-0.7-1.5-1
			c-1.7-2.6-3.4-5.1-5.1-7.7l-0.3-0.1c0.2-0.7,0.4-1.3,0.5-2C112.2,696.7,114.4,699.6,116.1,702.7z"/>
		<path id="XMLID_236_" class="st0" d="M116.5,692.9l-0.1,0c-1.6-2.3-3.2-4.7-4.8-7l-0.3,0c0.6-4.3,0.8-8.6,0.9-12.9l0.4-0.1
			C114.7,679.3,116,686.1,116.5,692.9z"/>
		<path id="XMLID_235_" class="st0" d="M109.4,696.4c1.7,2.6,3.4,5.1,5.1,7.7c-1-0.5-2.1-0.8-3.1-0.8c-0.9-1.7-1.9-3.3-2.8-5
			c0.2-0.7,0.4-1.3,0.6-2L109.4,696.4z"/>
		<path id="XMLID_234_" class="st1" d="M109.2,693.6c-3.8-0.5-7.7,0.6-10.9,2.9c5.7-7,10.4-15,13.7-23.5l0.1,0.1
			c0,4.3-0.3,8.6-0.9,12.9c-0.1,0.7-0.2,1.4-0.3,2.1c-0.1,0.5-0.2,1-0.3,1.5c-0.2,1-0.4,1.9-0.6,2.9c-0.1,0.7-0.3,1.4-0.5,2
			c-0.2-0.2-0.3-0.3-0.5-0.5L109.2,693.6z"/>
		<path id="XMLID_233_" class="st2" d="M110,703.4c0,0.2,0,0.5,0,0.7c-0.7-1.1-1.5-2.3-2.2-3.4c0.3-0.8,0.5-1.5,0.8-2.3
			c0.9,1.7,1.9,3.3,2.8,5C110.9,703.3,110.5,703.3,110,703.4L110,703.4z"/>
		<path id="XMLID_232_" class="st2" d="M106.9,703.2c0.3-0.8,0.6-1.7,0.9-2.5c0.7,1.1,1.5,2.3,2.2,3.4c0.1,3.2-0.3,6.3-1.3,9.3
			l-0.3-0.1c0-2.8-0.8-5.7-2.4-8C106.3,704.6,106.6,703.9,106.9,703.2z"/>
		<path id="XMLID_231_" class="st1" d="M57.8,711.2L57.8,711.2c0-0.6,0-1.3-0.1-1.9c0,0,0,0,0,0c0.4-20.6,0.6-41.6,1-62.2
			c1.6,0,3.2-0.1,4.8-0.3l0,0.3c-0.3,23.4-0.6,46.9-0.9,70.3h0c0.1,4.4,4.1,8,8.4,8.7c4.2,0.7,8.6-0.7,12.4-2.8
			c8.9-4.7,16.2-12.7,20.3-22.1l0.1-0.6c-2.6-0.3-5.3-0.5-7.9-0.8l-0.2-0.2c1-1,1.9-2.1,2.8-3.2c3.1-2.3,7.1-3.3,10.9-2.9l0,0.3
			c0.2,0.2,0.3,0.3,0.5,0.5c-0.2,0.7-0.3,1.3-0.5,2c-0.2,0.7-0.4,1.3-0.6,2c-0.2,0.8-0.5,1.6-0.8,2.3c-0.3,0.8-0.6,1.7-0.9,2.5
			c-0.3,0.7-0.6,1.4-0.9,2.1c-0.5,1.2-1.1,2.4-1.7,3.6c-0.1,0.2-0.2,0.4-0.3,0.6c-0.5,0.9-1,1.8-1.5,2.7c-0.4,0.7-0.9,1.4-1.3,2.1
			c-0.4,0.7-0.9,1.3-1.4,1.9c-0.3,0.4-0.6,0.9-1,1.3c-2.1,2.7-4.5,5.3-7.2,7.5c-1.3,1.1-2.6,2.1-3.9,3c-0.1,0-0.2,0-0.2,0.1
			c-1.4,0.4-2.6,1.2-3.7,2.3c-2.3,1.2-4.8,2.2-7.4,2.9l0,0c-2.3,0.6-4.8,1.1-7.2,0.9c-1-0.1-1.9-0.2-2.8-0.6
			c-0.7-0.3-1.4-0.6-2.1-1.1c-1.7-1.3-2.7-3.2-3.6-5.1c-0.1-0.2-0.1-0.3-0.2-0.5c-1.3-3.2-2.1-6.6-2.6-10
			C57.9,715,57.8,713.1,57.8,711.2z"/>
		<path id="XMLID_230_" class="st2" d="M108.5,713.3l0.3,0.1c-0.6,1.9-1.3,3.7-2.3,5.4l-0.3-0.2c0.2-3.3-0.3-6.6-1.7-9.6l-0.2-0.1
			c0.6-1.2,1.2-2.4,1.7-3.6C107.6,707.7,108.5,710.5,108.5,713.3z"/>
		<path id="XMLID_229_" class="st2" d="M106.2,718.7l0.3,0.2c-0.7,1.4-1.6,2.6-2.5,3.9l-0.3-0.2c0.4-3.4-0.1-6.9-1.3-10.1
			c0.5-0.9,1.1-1.8,1.5-2.7c0.1-0.2,0.2-0.4,0.3-0.6l0.2,0.1C105.8,712.1,106.4,715.4,106.2,718.7z"/>
		<path id="XMLID_228_" class="st2" d="M104,722.7c-0.1,0.1-0.2,0.3-0.3,0.4c-0.5,0.6-1.1,1.3-1.6,1.8c0.3-3.5,0.1-7-0.7-10.4
			l-0.2-0.2c0.5-0.7,0.9-1.4,1.3-2.1c1.2,3.2,1.6,6.7,1.3,10.1L104,722.7z"/>
		<path id="XMLID_227_" class="st2" d="M101.4,714.6c0.7,3.4,1,6.9,0.7,10.4c-0.3,0.4-0.7,0.7-1.1,1c0.3-3.3-0.1-6.6-1.2-9.6
			c0.5-0.6,0.9-1.3,1.4-1.9L101.4,714.6z"/>
		<path id="XMLID_226_" class="st2" d="M99.8,716.4c1.1,3.1,1.5,6.4,1.2,9.6c-0.5,0.5-1.1,1-1.7,1.5L99,727c0.8-3.1,0.7-6.3-0.1-9.4
			C99.2,717.2,99.5,716.8,99.8,716.4z"/>
		<path id="XMLID_225_" class="st2" d="M99,727l0.3,0.5c-2.4,2-5,3.6-7.7,5.1l-0.2-0.5c-0.5-2.1-0.2-4.5,0.8-6.4l-0.5-0.6
			c2.6-2.2,5-4.7,7.2-7.5C99.7,720.7,99.8,724,99,727z"/>
		<path id="XMLID_224_" class="st2" d="M87.7,728.1c1.4-0.9,2.7-1.9,3.9-3l0.5,0.6c-1,1.9-1.3,4.3-0.8,6.4l0.2,0.5
			c-1.2,0.7-2.5,1.3-3.7,1.9l-0.2-0.5c-0.6-1.5-0.5-3.2,0.1-4.7l-0.2-1.1C87.6,728.2,87.7,728.1,87.7,728.1z"/>
		<path id="XMLID_223_" class="st1" d="M88.7,640.1c0.1,1.9-0.7,3.8-2.2,4.9c-1.4,1.1-3.5,1.4-5.2,0.8l-0.2-0.1
			c0.8-2.3,1.1-4.7,1-7.3c-0.1-1.3-0.3-2.6-1-3.7c1.6-0.2,3.3,0,4.7,0.8C87.5,636.4,88.6,638.2,88.7,640.1z"/>
		<path id="XMLID_222_" class="st2" d="M87.7,734l0.2,0.5c-2.6,1.2-5.2,2.4-7.8,3.6c-1.6,0.7-3.2,1.5-4.8,2.3l0-0.1
			c1.7-0.7,3.1-2.2,4.2-3.7c1.3-1.8,2.3-3.7,3.7-5.4c0.2-0.2,0.4-0.5,0.6-0.7c1.3-0.7,2.5-1.4,3.7-2.2l0.2,1.1
			C87.1,730.8,87.1,732.5,87.7,734z"/>
		<path id="XMLID_221_" class="st3" d="M87.7,728.1c-0.1,0.1-0.1,0.1-0.2,0.1l0-0.1C87.6,728.1,87.6,728.1,87.7,728.1z"/>
		<path id="XMLID_220_" class="st3" d="M87.5,728.2L87.5,728.2c-1.2,0.9-2.4,1.6-3.7,2.3C84.8,729.4,86.1,728.5,87.5,728.2z"/>
		<path id="XMLID_219_" class="st3" d="M84.1,271.2c0.8,0.7,1.4,1.5,1.8,2.5c0.6,1.6,0.3,3.4-0.7,4.7l-0.6,0.2
			c-0.1-0.1-0.1-0.2-0.2-0.3c-0.9-1.1-2.3-1.6-3.5-2.4c-0.2-0.1-0.3-0.2-0.5-0.4c-2.2-1.8-2.8-5.3-1.4-7.7l0.1-0.1
			c0.9,0.8,2,1.4,3,2.1C82.8,270.1,83.5,270.6,84.1,271.2z"/>
		<path id="XMLID_218_" class="st3" d="M83.6,255.8c1.2,1,2.1,2.3,2.1,3.9c0,1.6-0.9,3-1.8,4.2l0,0.1c0,0,0,0,0,0
			c-1-0.7-2.2-1.1-3.2-1.7c-0.8-0.5-1.4-1.2-1.9-2c-1.1-1.9-1.3-4.4-0.2-6.3l0.9-0.7c1,0.6,2.1,1.2,3.2,1.8
			C82.9,255.2,83.2,255.5,83.6,255.8z"/>
		<path id="XMLID_217_" class="st3" d="M79.1,285.2L79.1,285.2c-0.1-1.5-0.1-3-0.1-4.5c0,0.1,0.1,0.2,0.1,0.2
			c0.7,1.6,2.1,2.8,3.4,3.9c0.5,0.4,0.9,0.8,1.4,1.3c0.8,0.8,1.4,1.8,1.7,2.9c0.4,1.7-0.5,3.9-2.2,4.1l-0.3,0.1
			c-0.6-1.1-1.4-2.1-2.2-3c-0.5-0.6-0.9-1.3-1.1-1.9C79.3,287.3,79.1,286.3,79.1,285.2z"/>
		<path id="XMLID_216_" class="st3" d="M85.6,267.5c0,1.4-0.5,2.7-1.5,3.7c-0.6-0.6-1.3-1.1-2-1.5c-1-0.7-2.1-1.3-3-2.1
			c-0.5-0.4-0.9-0.9-1.3-1.4c-1.1-1.6-1.3-3.9,0-5.2l0.8-0.7c0.5,0.8,1.1,1.5,1.9,2c1,0.7,2.2,1,3.2,1.7c0,0,0,0,0,0
			C84.9,264.8,85.6,266.1,85.6,267.5z"/>
		<path id="XMLID_214_" class="st3" d="M79,280.7c-0.6-1.6-0.2-3.7,1.3-4.4l0.7-0.5c1.2,0.8,2.6,1.3,3.5,2.4
			c0.1,0.1,0.2,0.2,0.2,0.3c0.6,1,0.8,2.3,0.6,3.5c-0.2,1.3-0.7,2.6-1.2,3.9l-0.2,0.2c-0.4-0.5-0.9-0.9-1.4-1.3
			c-1.3-1.1-2.7-2.3-3.4-3.9C79,280.9,79,280.8,79,280.7z"/>
		<path id="XMLID_213_" class="st3" d="M76.1,295.1c-0.6-1.3-0.6-2.9,0-4.2c0.6-1.3,1.9-2.3,3.4-2.6l0.3-0.1
			c0.3,0.7,0.7,1.3,1.1,1.9c0.7,1,1.5,2,2.2,3c0.5,0.8,0.9,1.7,1.1,2.7c0.5,2.6-0.8,5.4-3.1,6.7l-1.3-0.2c0.2-1.2,0-2.4-0.6-3.4
			c-0.8-1.4-2.2-2.3-3-3.7C76.2,295.2,76.1,295.2,76.1,295.1z"/>
		<path id="XMLID_212_" class="st3" d="M83,247.8c1.3,1.7,1.9,6.2,0.6,8c-0.3-0.3-0.7-0.6-1.1-0.8c-1-0.7-2.1-1.2-3.2-1.8
			c-0.6-0.4-1.2-0.8-1.7-1.3c-1.4-1.4-2.9-6.6-1.9-8.3c1,0.7,2.2,1.2,3.4,1.7c0.2,0.1,0.4,0.1,0.5,0.2
			C80.9,246.1,82.1,246.7,83,247.8z"/>
		<path id="XMLID_211_" class="st0" d="M75.2,740.2L75.2,740.2c-3.2,1.7-6.5,3.5-9.4,5.7l-0.5-0.8c1.3-3.4,2.6-6.8,3.9-10.2l0-0.6
			c2.3,0.2,4.8-0.3,7.2-0.9l0,0c2.6-0.7,5-1.7,7.4-2.9c-0.2,0.2-0.4,0.4-0.6,0.7c-1.4,1.7-2.4,3.6-3.7,5.4
			C78.3,738,76.9,739.5,75.2,740.2z"/>
		<path id="XMLID_210_" class="st3" d="M75.7,243.6c-0.2-0.2-0.5-0.4-0.7-0.6c-1.1-1.1-2.5-7.3-1.7-8.7c1.4,1.2,3.2,1.9,4.9,2.7
			c0.4,0.2,0.8,0.4,1.3,0.7c1.2,0.7,2.3,1.7,2.9,3c0.8,1.7,0.2,4.2-1.6,4.8l-1.2,0c-0.2-0.1-0.4-0.2-0.5-0.2
			C77.9,244.8,76.7,244.4,75.7,243.6z"/>
		<path id="XMLID_209_" d="M71.8,645.6c0.8-2.5,1.7-5.2,1.2-7.8c-0.3-1.5-1.1-2.9-2.2-4l0.1-0.1c1.7-0.7,3.5-1.3,5.4-1.4
			c1.9-0.1,3.8,0.6,4.9,2.2c0,0,0,0.1,0.1,0.1c0.7,1.1,0.9,2.4,1,3.7c0.1,2.6-0.2,4.9-1,7.3c-0.2,0.6-0.4,1.2-0.7,1.7
			c-3,1.3-6.6,0.6-9-1.6l0-0.1C71.5,645.6,71.6,645.6,71.8,645.6z"/>
		<path id="XMLID_208_" class="st3" d="M79.1,228.1c1.2,1.1,1.6,2.8,1.6,4.5c0,1.6-0.5,3.2-1,4.8l-0.2,0.3c-0.4-0.2-0.8-0.5-1.3-0.7
			c-1.7-0.8-3.5-1.4-4.9-2.7c-1.4-1.2-3.6-6-3-7.8l0-0.1c1.1,0.1,2.3,0.1,3.5,0c1.3,0,2.7,0.1,3.9,0.6
			C78.2,227.4,78.7,227.7,79.1,228.1z"/>
		<path id="XMLID_207_" class="st3" d="M79.2,299c0.6,1,0.8,2.3,0.6,3.4c-0.1,0.5-0.2,1-0.5,1.4c-0.8,1.5-2.4,2.5-4,2.6l-0.1,0
			c-0.1-0.7-0.4-1.4-0.8-1.9c-0.7-1.1-1.8-2-2.5-3.2c-0.1-0.2-0.2-0.3-0.3-0.5c-0.6-1.4-0.4-3.2,0.6-4.3c0.9-1.1,2.5-1.7,3.9-1.4
			c0,0.1,0,0.1,0.1,0.1C76.9,296.7,78.4,297.6,79.2,299z"/>
		<path id="XMLID_206_" class="st3" d="M65.6,221.7c0.4-1.6,2-2.7,3.7-2.7c1.7,0,3.3,0.9,4.6,2.1c1.8,1.6,3.2,3.7,4,5.9l-0.1,0.2
			c-1.2-0.5-2.6-0.7-3.9-0.6c-1.2,0-2.3,0.1-3.5,0c-0.7-0.1-1.4-0.2-2.1-0.5C66.6,225.3,65.2,223.4,65.6,221.7z"/>
		<path id="XMLID_205_" class="st3" d="M76.4,596.4c1.4,1.6,1.7,4.1,0.8,6c-0.2,0.4-0.5,0.8-0.8,1.2c-0.4,0.4-0.8,0.8-1.3,1
			c0.1-2.2-0.2-4.4-0.9-6.5c0.7-0.2,1.3-0.5,1.8-1C76.1,596.8,76.3,596.6,76.4,596.4z"/>
		<path id="XMLID_204_" class="st3" d="M76.4,596.4c-0.1,0.2-0.3,0.4-0.5,0.6c-0.5,0.5-1.1,0.9-1.8,1c-0.5-1.5-1.1-2.8-2-4.1
			c-0.9-1.4-2.1-2.6-3.4-3.6c0.1-0.1,0.3-0.2,0.5-0.2c0.3,0.5,0.6,1,1.2,1c0.8,0,1.3-0.9,1.5-1.8c0,0,0-0.1,0-0.1
			c0.9,0.2,1.8,0.6,2.6,1.1C76.5,591.6,77.5,594.5,76.4,596.4z"/>
		<path id="XMLID_203_" class="st3" d="M76.4,603.6c0.2,1.9-0.6,3.8-2,5c0.3-1.3,0.5-2.7,0.6-4C75.5,604.3,76,604,76.4,603.6
			L76.4,603.6z"/>
		<path id="XMLID_202_" class="st3" d="M70.3,301.9l1.6-0.6c0.7,1.2,1.8,2,2.5,3.2c0.4,0.6,0.6,1.3,0.8,1.9c0.3,1.6,0.1,3.3-0.8,4.7
			c-1.2,1.9-3.5,2.9-5.7,2.6c0.1-1,0-1.9-0.2-2.8c-0.2-1.2-0.7-2.4-0.9-3.6c0-0.1,0-0.2,0-0.2c-0.2-1.1-0.2-2.4,0.2-3.4
			C68.2,302.7,69.2,301.9,70.3,301.9z"/>
		<path id="XMLID_195_" class="st3" d="M66.7,602.1c-0.1-0.9,0.3-1.6,0.9-2.2c0.7-0.7,1.8-1.1,2.8-1.3c1.2-0.2,2.6-0.2,3.7-0.5
			c0.7,2.1,1,4.3,0.9,6.5c-1.1,0.6-2.3,0.8-3.5,0.5c-1.1-0.2-2-0.8-3.1-1.1c-0.7-0.2-1.6-0.2-2.3,0.1c0-0.4,0-0.9,0-1.3
			c0-0.2-0.1-0.3-0.1-0.5c0,0,0,0,0,0L66.7,602.1z"/>
		<path id="XMLID_193_" class="st3" d="M72.4,609.8C72.4,609.8,72.3,609.8,72.4,609.8c-2.7,0.7-5.6-0.7-6.7-3.2l-0.1-0.1
			c0.3-0.7,0.5-1.5,0.6-2.4c0.7-0.3,1.5-0.3,2.3-0.1c1.1,0.3,2,0.9,3.1,1.1c1.2,0.3,2.5,0.1,3.5-0.5c0,1.4-0.2,2.7-0.6,4
			C73.9,609.1,73.2,609.5,72.4,609.8z"/>
		<path id="XMLID_192_" class="st1" d="M57,610.6c1.5,0.4,3.1,0.4,4.5-0.2c1,2,3,3.5,5.2,3.5c2.5,0,4.9-1.8,5.7-4.2
			c0.8-0.2,1.5-0.6,2.1-1.2c-0.1,0.3-0.2,0.6-0.3,0.9c-0.8,2.6-2.2,5.1-4,7.1c-1.7,1.9-3.6,3.5-5.8,4.8l0.1,0.1
			c0,0.7-0.1,1.4-0.1,2.1c-0.1,1.5-0.1,3,0,4.5c0,1.6,0.1,3.2,0.2,4.8c0,0,0,0.1,0,0.1v0.1c-3.6-0.1-7.1-0.2-10.7-0.1l0-0.2
			c0.1-4.1,0.2-8.1,0.2-12.2l0-0.2c-3.6-0.4-6.7-2.9-8.4-6.1c-1.7-3.2-2.1-7.1-1.7-10.7c0.5-4,2-7.9,4.6-10.9
			c0.7-0.8,1.4-1.5,2.2-2.2c0.3,1,0.5,2.1,0.8,3.1l-0.8,0.2c-0.5,3.1,1.2,6.5,3.9,8c-0.3,1.2-0.3,2.4-0.1,3.6
			C54.8,607.4,55.8,609.1,57,610.6z"/>
		<path id="XMLID_191_" class="st3" d="M66.7,592.4c0.5-0.9,1.2-1.6,2-2.1c1.3,1,2.5,2.2,3.4,3.6c0.9,1.3,1.5,2.6,2,4.1
			c-1.2,0.3-2.5,0.4-3.7,0.5c-1,0.1-2.1,0.6-2.8,1.3l-0.7-1C65.5,597.1,65.6,594.4,66.7,592.4z"/>
		<path id="XMLID_190_" class="st4" d="M58.7,647.1c-1.9,0.1-3.8,0-5.6-0.1c-1.6-0.1-3.2-0.2-4.8-0.4c-1.1-0.1-2.3-0.3-3.4-0.5
			c0,0-0.1,0-0.1,0l0-0.2c-1.3-4-1.8-8.2-1.6-12.3c3.5-0.3,7.1-0.5,10.7-0.6c3.6-0.1,7.1-0.1,10.7,0.1c2,0.1,4.1,0.2,6.1,0.3l0,0.2
			c0.1,0.1,0.1,0.1,0.2,0.2c1.1,1,1.8,2.4,2.2,4c0.5,2.6-0.3,5.3-1.2,7.8c-0.1,0-0.2,0-0.3,0.1c-2.6,0.5-5.3,0.9-7.9,1.1
			C61.9,647,60.3,647,58.7,647.1z"/>
		<path id="XMLID_189_" class="st3" d="M72.3,609.8C72.3,609.8,72.4,609.8,72.3,609.8c-0.7,2.4-3.1,4.2-5.6,4.2
			c-2.2,0-4.3-1.5-5.2-3.5c0,0,0.1,0,0.1-0.1c1.8-0.7,3.2-2.2,4-3.9l0.1,0.1C66.8,609,69.7,610.5,72.3,609.8z"/>
		<path id="XMLID_188_" class="st3" d="M60.8,587.2C60.8,587.2,60.8,587.2,60.8,587.2c-0.7,0-1.3,0-1.9,0.1
			c-0.1-0.2-0.1-0.3-0.2-0.5c0.6-3.5,4.3-6.2,7.8-5.6c3.5,0.6,6.1,4.5,5.4,8.1c-1.1-0.2-2.2-0.3-3.3-0.4c-0.8-1.7-2.6-2.9-4.4-3
			C63,585.9,61.8,586.3,60.8,587.2z"/>
		<path id="XMLID_186_" class="st3" d="M69.2,590.1c-0.2-0.4-0.4-0.8-0.5-1.1c0,0,0,0,0-0.1c1.1,0,2.2,0.1,3.3,0.4c0,0,0,0.1,0,0.1
			c-0.2,0.8-0.7,1.8-1.5,1.8C69.9,591.1,69.5,590.6,69.2,590.1z"/>
		<path id="XMLID_185_" class="st3" d="M70.2,616.6c1.1,1.6,1.1,3.9,0,5.5c-0.1,0.1-0.2,0.3-0.3,0.4c-1.3,1.4-3.5,1.9-5.3,1l-0.2,0
			c0-0.7,0.1-1.4,0.1-2.1l-0.1-0.1C66.5,620.2,68.5,618.6,70.2,616.6z"/>
		<path id="XMLID_184_" class="st3" d="M70.2,622.7c0.1,1.2-0.2,2.3-0.9,3.2c-1.2,1.6-3.2,2.6-5.1,2.1c0-1.5,0-3,0-4.5l0.2,0
			c1.7,0.8,3.9,0.4,5.3-1L70.2,622.7z"/>
		<path id="XMLID_183_" class="st3" d="M69.8,626.1c0.7,1.7,0.3,3.8-0.9,5.2c-1.1,1.3-2.8,1.8-4.4,1.6c-0.1-1.6-0.2-3.2-0.2-4.8
			c1.9,0.5,3.9-0.5,5.1-2.1L69.8,626.1z"/>
		<path id="XMLID_182_" class="st0" d="M69.3,734.3l0,0.6c-1.3,3.4-2.6,6.8-3.9,10.2l0.5,0.8c-3.4,2.5-6.3,5.5-8.3,9.2
			c-0.1-0.3-0.2-0.6-0.3-0.8l0.1,0c0.1-2.9,0.1-5.8,0.2-8.8l1.2,0c1.9-4.3,4.5-8.3,7.8-11.7C67.4,734.1,68.3,734.3,69.3,734.3z"/>
		<path id="XMLID_181_" class="st3" d="M64.3,587.9c-1.1-0.4-2.3-0.6-3.4-0.7c0,0,0,0-0.1-0.1c1-0.8,2.2-1.3,3.4-1.3
			c1.9,0.1,3.6,1.3,4.4,3c0,0,0,0,0,0.1c0.2,0.4,0.3,0.8,0.5,1.1c-0.2,0.1-0.3,0.1-0.5,0.2C67.4,589.3,65.9,588.5,64.3,587.9z"/>
		<path id="XMLID_180_" class="st3" d="M68.7,313.8c0,0.7-0.1,1.3-0.3,2c-0.2,0.9-0.6,1.9-1.3,2.6c-0.7,0.7-1.7,1.1-2.6,0.9l-0.4,0
			c-0.1-1.6-0.6-3.1-1.5-4.4c-0.7-1-1.6-1.8-2.1-2.9c-0.2-0.3-0.3-0.7-0.3-1.1c-0.1-1.6,1.2-3,2.6-3.5c1.4-0.5,3-0.4,4.6-0.2l0.2,0
			c0,0.1,0,0.2,0,0.2c0.3,1.2,0.7,2.4,0.9,3.6C68.7,311.9,68.8,312.8,68.7,313.8z"/>
		<path id="XMLID_174_" class="st3" d="M62.3,593.3c-0.7-0.1-1.4-0.3-2-0.5l0.4-1.2c-0.6-1.4-1.1-2.9-1.7-4.3c0.6-0.1,1.2-0.1,1.8,0
			c0,0,0.1,0,0.1,0c1.2,0.1,2.3,0.3,3.4,0.7c0.1,1.8,1,3.4,2.4,4.5c-1.1,2-1.2,4.6,0.2,6.5l0.7,1c-0.7,0.6-1.1,1.4-0.9,2.2l-0.7,0.1
			c-0.3-1.4-1.2-2.7-2.3-3.6c0.5-1.8-0.1-4-1.4-5.3L62.3,593.3z"/>
		<path id="XMLID_173_" class="st3" d="M68.7,590.3c-0.9,0.5-1.5,1.2-2,2.1c-1.4-1-2.3-2.7-2.4-4.5
			C65.9,588.5,67.4,589.3,68.7,590.3z"/>
		<path id="XMLID_172_" class="st3" d="M66.2,604.1c0,0.8-0.2,1.6-0.6,2.4c-0.8,1.8-2.2,3.2-4,3.9c0,0-0.1,0-0.1,0.1
			c-0.2-0.4-0.3-0.8-0.4-1.2l-0.4-0.1c-1.5-2.6,0.7-6.5,3.7-6.4l1.7-0.3c0,0.2,0.1,0.3,0.1,0.5C66.2,603.3,66.2,603.7,66.2,604.1z"
			/>
		<path id="XMLID_171_" class="st3" d="M63.5,600.3l-0.2-0.4c0.2-0.4,0.3-0.8,0.4-1.2c1.1,0.9,2,2.2,2.3,3.6c0,0,0,0,0,0l-1.7,0.3
			c-2.9-0.1-5.2,3.8-3.7,6.4l0.4,0.1c0.1,0.4,0.2,0.8,0.4,1.2c-1.4,0.5-3,0.6-4.5,0.2c-1.2-1.5-2.1-3.3-2.5-5.2
			c-0.2-1.2-0.2-2.4,0.1-3.6c0.1,0.1,0.2,0.1,0.4,0.2C57.8,603.3,61.3,602.6,63.5,600.3z"/>
		<path id="XMLID_170_" class="st0" d="M60.9,727.5c0.8,2,1.9,3.9,3.6,5.1c0.6,0.5,1.3,0.8,2.1,1.1c-3.2,3.4-5.9,7.4-7.8,11.7
			l-1.2,0c0.2-9.5,0.4-19,0.6-28.5c0.4,3.4,1.3,6.8,2.6,10C60.7,727.2,60.8,727.3,60.9,727.5z"/>
		<path id="XMLID_169_" class="st3" d="M56.3,317.5c-0.5-0.7-0.7-1.5-0.6-2.3c0.2-0.9,0.9-1.7,1.7-2.1c0.8-0.4,1.8-0.6,2.7-0.7
			l0.3-0.3c0.5,1,1.4,1.9,2.1,2.9c0.9,1.3,1.4,2.8,1.5,4.4c0,1.1-0.1,2.2-0.5,3.2c-0.3,0.7-0.6,1.3-1.2,1.8c-0.6,0.4-1.4,0.6-2,0.2
			l0,0c-0.3-1.7-1.1-3.3-2.2-4.6C57.6,319.1,56.8,318.3,56.3,317.5z"/>
		<path id="XMLID_168_" class="st3" d="M51.5,593.7c-0.3-1-0.5-2.1-0.8-3.1c0.8-0.6,1.6-1.2,2.5-1.7c0.8,0.7,1.7,1.3,2.7,1.8
			c1.4,0.8,2.8,1.5,4.4,2c0.7,0.2,1.3,0.4,2,0.5l0,0.1c1.4,1.3,1.9,3.4,1.4,5.3c-1.2-0.9-2.7-1.5-4.2-1.3c-1.6,0.2-3.1,1.1-4,2.4
			c-0.4,0.6-0.7,1.3-0.9,2c-2.7-1.5-4.4-4.8-3.9-8L51.5,593.7z"/>
		<path id="XMLID_167_" class="st3" d="M63.3,599.9l0.2,0.4c-2.1,2.3-5.7,3.1-8.5,1.8c-0.1-0.1-0.3-0.1-0.4-0.2
			c0.2-0.7,0.5-1.4,0.9-2c0.9-1.3,2.4-2.2,4-2.4c1.5-0.2,3,0.4,4.2,1.3C63.6,599.1,63.5,599.5,63.3,599.9z"/>
		<path id="XMLID_166_" class="st3" d="M60.8,587.2C60.8,587.2,60.9,587.2,60.8,587.2C60.8,587.2,60.8,587.2,60.8,587.2
			C60.8,587.2,60.8,587.2,60.8,587.2z"/>
		<path id="XMLID_165_" class="st3" d="M50.6,486.5c-0.9-0.2-1.9-0.7-2.1-1.7c-0.4-1.3,0.8-2.6,1.8-3.5l0.2-0.8
			c0.6,0.2,1.3,0.2,2,0.2c1.4,0,2.9-0.3,4.2,0c0.5,0.1,0.9,0.3,1.3,0.5c1.3,0.8,2.3,2.1,2.6,3.6c0.4,2-0.5,4.2-2.1,5.3l-0.2,0.1
			c-0.8-2-2.6-3.4-4.6-3.7c-1-0.1-2,0-3-0.2C50.7,486.6,50.6,486.6,50.6,486.5z"/>
		<path id="XMLID_164_" class="st3" d="M58.9,587.2c0.6,1.4,1.1,2.9,1.7,4.3l-0.4,1.2c-1.5-0.5-3-1.1-4.4-2l0.9-0.2
			c0.5-1,0.8-2.1,1-3.2c0.3-0.1,0.5-0.1,0.8-0.1C58.7,587.2,58.8,587.2,58.9,587.2z"/>
		<path id="XMLID_163_" class="st3" d="M60.3,324.4c0.2,1,0.3,2.1,0.2,3.1c-0.1,1.5-0.8,3.2-2.2,3.7c-0.1-0.3-0.2-0.5-0.4-0.8
			c-1.1-1.7-3-2.5-4.2-4.1c-1.2-1.5-1.5-3.7-0.9-5.5c0.6-1.6,1.9-2.9,3.5-3.4c0.5,0.8,1.2,1.6,1.8,2.3
			C59.2,321.1,60,322.7,60.3,324.4z"/>
		<path id="XMLID_162_" class="st3" d="M58.8,586.8c0.1,0.2,0.1,0.3,0.2,0.5c-0.1,0-0.2,0-0.4,0c-0.3,0-0.5,0.1-0.8,0.1
			c0.1-1.1,0.1-2.2,0-3.3C58.1,585,58.4,585.9,58.8,586.8z"/>
		<path id="XMLID_161_" class="st1" d="M57.7,709.3c0,0.6,0,1.3,0,1.9c0,5.1-1,10.2-2.9,14.9c-1.2,3-2.9,6-5.7,7.6
			c-2.7,1.5-6,1.5-8.9,0.6c-2.9-0.9-5.6-2.5-8.2-4.2l0,0c-9.5-5.4-17.4-14.2-21.8-24.4c-0.9-2-1.6-4-2.3-6.1c-0.8-2.5-1.4-5-2-7.5
			l0,0c1.9,2.4,4.3,4.3,7.1,5.5c-0.4,0-0.7,0-1.1,0.1c2.5,8.9,7.9,16.9,15.1,22.4c3,2.3,6.4,4.2,10.1,5c3.7,0.8,7.7,0.2,10.8-2
			c2.9-2.1,4.8-5.9,4.3-9.5l0.2,0c0.1-20,0.2-39.9,0.3-59.9c0-2.2,0-4.4,0-6.6l0-0.1c1.9,0.1,3.8,0.1,5.6,0.1
			C58.3,667.7,58.2,688.7,57.7,709.3C57.7,709.3,57.7,709.3,57.7,709.3z"/>
		<path id="XMLID_159_" class="st3" d="M58.3,490.6c0.7,2,0.2,4.5-1.3,6l-0.3,0c-0.4-0.9-0.9-1.6-1.5-2.3c-1.2-1.2-2.8-1.9-4.1-2.9
			c-0.4-0.3-0.6-0.7-0.7-1.2c-0.3-1.1,0-2.6,0.2-3.8c0,0,0.1,0,0.1,0c1,0.2,2,0,3,0.2c2,0.3,3.9,1.8,4.6,3.7
			C58.3,490.5,58.3,490.5,58.3,490.6z"/>
		<path id="XMLID_158_" class="st3" d="M53,327l0.7-0.5c1.2,1.6,3.2,2.4,4.2,4.1c0.2,0.2,0.3,0.5,0.4,0.8c0.5,1.4,0.5,3-0.2,4.3
			c-0.8,1.4-2.4,2.4-4,2.4c-0.2-1-0.6-1.9-1.2-2.8c-0.8-1.2-2-2.1-2.6-3.4c-0.2-0.4-0.4-0.8-0.4-1.3C49.7,328.7,51.2,327,53,327z"/>
		<path id="XMLID_157_" class="st3" d="M57.3,474.7c0.1,0.2,0.2,0.3,0.3,0.5c0.8,1.5,1.4,4.8,0.4,6.2c-0.4-0.2-0.9-0.4-1.3-0.5
			c-1.4-0.3-2.8-0.1-4.2,0c-0.7,0-1.4,0-2-0.2c-0.7-0.2-1.4-0.6-1.9-1.1c-1-1.2-0.9-2.9-0.3-4.3c0.6-1.4,1.5-4,2.6-5l0,0
			c0.2,0.2,0.4,0.4,0.6,0.5c1,0.7,2.2,1.2,3.2,1.8C55.7,473.1,56.7,473.8,57.3,474.7z"/>
		<path id="XMLID_156_" class="st1" d="M58.1,717c-0.2,9.5-0.4,19-0.6,28.5c-0.1,2.9-0.1,5.8-0.2,8.8l-0.1,0
			c-2.3-6-8.7-10.4-14.4-13.2c-6-2.9-12.5-4.6-18.2-8C13.7,726.5,6.4,714,6,701.1l-1-0.2c0.3-0.2,0.6-0.4,0.9-0.5l2.2-0.7
			c0.7,2.1,1.4,4.1,2.3,6.1c4.5,10.1,12.3,19,21.8,24.4l0,0c2.6,1.6,5.2,3.3,8.2,4.2c2.9,0.9,6.2,0.9,8.9-0.6
			c2.8-1.6,4.5-4.6,5.7-7.6c1.9-4.7,2.9-9.8,2.9-14.9h0C57.8,713.1,57.9,715,58.1,717z"/>
		<path id="XMLID_155_" class="st3" d="M57.7,584.1c0.2,1.1,0.2,2.2,0,3.3c-1.6,0.3-3.1,0.8-4.6,1.6c-1.4-1.1-2.8-2.5-3.9-3.9
			c-1.9-2.4-3.3-5.1-4.1-8l0-1c0-0.1-0.1-0.3-0.1-0.4c3-0.8,6.4,0,8.9,1.9c0.6,0.5,1.1,1,1.6,1.6C56.7,580.6,57.5,582.3,57.7,584.1z
			"/>
		<path id="XMLID_154_" class="st3" d="M57.4,459.3c0.2,1.9-0.4,3.9-1.7,5.3l-0.6,0.3c-0.2-0.2-0.5-0.5-0.7-0.7
			c-1-0.9-2.1-1.6-2.9-2.5c-0.3-0.3-0.5-0.6-0.7-0.9c-0.5-0.8-0.9-1.7-0.9-2.6c0-1.3-0.1-5.1,1.2-5.3c1.2,0.5,2.5,0.9,3.6,1.6
			c0.7,0.5,1.3,1.1,1.7,1.8C56.9,457.2,57.3,458.2,57.4,459.3z"/>
		<path id="XMLID_153_" class="st3" d="M56.6,467.3c0.5,1.7,2,6.3,0.7,7.4c-0.6-1-1.6-1.7-2.6-2.2c-1.1-0.6-2.2-1.1-3.2-1.8
			c-0.2-0.2-0.4-0.3-0.6-0.5c-0.7-0.7-1.2-1.6-1.3-2.6c-0.1-1.7-0.3-5.5,0.9-6.7l0.2-0.1c0.2,0.3,0.5,0.6,0.7,0.9
			c0.9,0.9,2,1.7,2.9,2.5c0.2,0.2,0.5,0.4,0.7,0.7C55.7,465.6,56.3,466.4,56.6,467.3z"/>
		<path id="XMLID_152_" class="st3" d="M56.7,496.7c0.4,1,0.6,2.1,0.5,3.2c-0.1,2-1.2,3.9-2.8,5.1l-0.4,0c0.1-1.4-0.5-2.9-1.6-3.7
			c-0.7-0.5-1.5-0.8-2.2-1.3c-1.5-1-2.5-2.7-2.6-4.5c0-0.1,0-0.1,0-0.2c-0.1-1.9,0.8-3.7,2.3-4.8l0.4-0.1c0.1,0.5,0.3,0.9,0.7,1.2
			c1.4,1,2.9,1.7,4.1,2.9C55.9,495,56.4,495.8,56.7,496.7z"/>
		<path id="XMLID_151_" class="st3" d="M57.8,587.4c-0.1,1.1-0.5,2.2-1,3.2l-0.9,0.2c-0.9-0.6-1.8-1.2-2.7-1.8
			C54.6,588.2,56.2,587.6,57.8,587.4z"/>
		<path id="XMLID_150_" class="st3" d="M55.6,450.4c1.5,1.4,2.3,3.9,1.1,5.6l-0.4,0.3c-0.5-0.7-1.1-1.3-1.7-1.8
			c-1.1-0.7-2.4-1.1-3.6-1.6c-1.2-0.5-2.4-1.3-3-2.4c-0.6-1.2-0.4-2.8,0.7-3.5c0.5,0.2,1,0.5,1.5,0.6c1.2,0.5,2.4,0.9,3.5,1.5
			C54.4,449.5,55,449.9,55.6,450.4z"/>
		<path id="XMLID_149_" class="st3" d="M54.7,435.7c0.2,2-0.8,4.1-2.5,5.2l-0.1,0.2c-1.5-1.3-3.2-2.2-4.7-3.5
			c-0.1-0.1-0.2-0.2-0.3-0.3c-1.7-1.6-3.2-3.8-2.9-6.1l0.1-0.8c0.7,0.1,1.3,0.1,2,0.1c1.4,0,2.9-0.1,4.2,0.3
			c0.3,0.1,0.6,0.2,0.9,0.3C53.2,431.9,54.5,433.7,54.7,435.7z"/>
		<path id="XMLID_148_" class="st3" d="M48.8,447c-1.4-0.7-2.6-1.6-3.3-3c-1.1-2-0.6-4.8,1.2-6.3l0.5-0.4c0.1,0.1,0.2,0.2,0.3,0.3
			c1.5,1.2,3.2,2.2,4.7,3.5c0.4,0.3,0.8,0.7,1.1,1.1c1.7,1.8,2.6,4.7,1.3,6.8l-0.7,0.2c-1.1-0.6-2.4-1-3.5-1.5
			C49.7,447.4,49.2,447.2,48.8,447z"/>
		<path id="XMLID_147_" class="st3" d="M54.1,338c0.5,2.7-0.3,5.7-2.4,7.5c-0.1-0.3-0.2-0.6-0.3-0.9c-0.8-2.1-2.2-4-3-6.2
			c-0.1-0.2-0.2-0.5-0.2-0.7c-0.5-2-0.2-4.4,1.4-5.6l0.6-0.1c0.6,1.2,1.8,2.2,2.6,3.4C53.5,336,53.9,337,54.1,338z"/>
		<path id="XMLID_145_" class="st3" d="M44.9,500.2c0.8-1.6,1.6-3.2,2.4-4.8l0.4,0c0.1,1.8,1.1,3.5,2.6,4.5c0.7,0.5,1.5,0.8,2.2,1.3
			c1.1,0.9,1.7,2.3,1.6,3.7c0,0.2,0,0.4-0.1,0.7c-0.4,1.5-1.6,2.8-3.1,3.1c-0.8-0.9-2-1.5-3-2.1c-1.2-0.7-2.4-1.5-3.1-2.7
			c-0.4-0.7-0.6-1.7-0.4-2.5C44.5,501,44.7,500.6,44.9,500.2z"/>
		<path id="XMLID_144_" class="st3" d="M51.4,571.9c1.4,1.5,2.6,3.7,2.6,5.6c-2.5-2-5.8-2.7-8.9-1.9c-0.7-2.5-0.3-5.3,0.9-7.6
			c1.3,1.2,2.9,2,4.4,3C50.7,571.2,51.1,571.5,51.4,571.9z"/>
		<path id="XMLID_143_" class="st3" d="M46,567.9c-0.4-0.4-0.8-0.8-1.2-1.3c-1.6-2.3-0.4-7.8,1.1-10.2l0.1,0c-0.1,1.2,0.1,2.2,0.6,3
			c1,1.4,2.4,2.3,3.8,3.3c0.4,0.3,0.7,0.5,1.1,0.8c0.9,0.8,1.8,1.7,2.3,2.8c0.6,1.6-0.9,4.6-2.3,5.4l-0.1,0.1
			c-0.3-0.4-0.7-0.7-1.1-0.9C48.9,570,47.3,569.1,46,567.9z"/>
		<path id="XMLID_142_" class="st3" d="M53.2,588.9c-0.9,0.5-1.7,1-2.5,1.7c-0.5-1.9-0.9-3.7-1.4-5.6
			C50.5,586.5,51.8,587.8,53.2,588.9z"/>
		<path id="XMLID_141_" class="st3" d="M51.1,653.7c-1.2-0.2-2.4-1-3-2.2c-0.5-0.9-0.6-2-0.4-3c0.1-0.5,0.3-1,0.6-1.4l0-0.4
			c1.6,0.2,3.2,0.3,4.8,0.4l0,0.1c0,2.2,0,4.4,0,6.6l-1.1,0C51.7,653.7,51.4,653.7,51.1,653.7z"/>
		<path id="XMLID_140_" class="st3" d="M52.9,549.5c0.4,1.9-0.4,4.2-2.2,4.7l-0.5,0.2c-0.5-0.5-1-1-1.4-1.5c-0.5-0.5-1-1-1.4-1.5
			c-0.8-0.9-1.4-1.8-1.8-2.9c-0.6-1.7-0.3-5.2,1.2-6.2l0.1-0.1c0.9,0.9,1.9,1.8,2.9,2.6c0.6,0.6,1.2,1.2,1.8,1.8
			C52.2,547.5,52.7,548.4,52.9,549.5z"/>
		<path id="XMLID_139_" class="st3" d="M51.6,538c0.3,0.3,0.5,0.6,0.7,1c1.4,2.3,1.1,5.5-0.7,7.5l-0.2,0.2c-0.5-0.7-1.1-1.3-1.8-1.8
			c-1-0.9-2-1.7-2.9-2.6c-0.4-0.4-0.8-0.9-1.1-1.4c-1-1.5-0.6-5.8,0.2-7.6c0.8,1,1.9,1.7,2.9,2.5C49.9,536.4,50.8,537.1,51.6,538z"
			/>
		<path id="XMLID_138_" class="st3" d="M52.5,427.3c0.2,1.2-0.2,2.5-1,3.4l-1,0c-1.4-0.4-2.8-0.3-4.2-0.3c-0.7,0-1.3,0-2-0.1
			c-1.1-0.1-2.1-0.4-2.9-1c-1.4-1-2.1-4.9-1.1-6.3c0.8,0.6,1.8,0.9,2.8,1c1.2,0.1,2.5-0.2,3.7-0.3c0.9-0.1,1.8-0.1,2.7,0.2
			c0.3,0.1,0.7,0.2,1,0.4C51.5,425,52.3,426.1,52.5,427.3z"/>
		<path id="XMLID_137_" class="st3" d="M52.2,557.3c0.8,1.9,0.6,4.3-0.4,6.1l-0.2,0.2c-0.3-0.3-0.7-0.6-1.1-0.8
			c-1.4-1-2.8-1.9-3.8-3.3c-0.5-0.8-0.7-1.9-0.6-3c0.1-1.7,0.7-3.6,1.3-4.9l0,0c0.4,0.5,0.9,1,1.4,1.5c0.5,0.5,1,1,1.4,1.5
			C51,555.3,51.7,556.2,52.2,557.3z"/>
		<path id="XMLID_136_" class="st3" d="M46,533.3c-0.2-0.3-0.4-0.5-0.6-0.8c-0.9-1.4-1.1-3.3-0.2-4.6l0.6-0.8c0.5,0.3,1,0.5,1.6,0.8
			c1.2,0.6,2.5,1.1,3.5,2c0.2,0.1,0.3,0.3,0.5,0.4c1.9,2,2.1,5.6,0.4,7.8c-0.8-0.9-1.8-1.6-2.8-2.3C47.8,535,46.8,534.2,46,533.3z"
			/>
		<path id="XMLID_135_" class="st3" d="M51.7,345.4c0.5,2,0.3,4.2-1.1,5.5h0c-0.5-0.8-1.2-1.5-1.9-2.1c-1.1-1-2.2-1.9-2.9-3.2
			c-0.4-0.8-0.7-1.7-0.7-2.7c0-2.2,1.2-4.4,3.1-5.3l0,0c0,0.3,0.1,0.5,0.2,0.7c0.7,2.2,2.2,4,3,6.2
			C51.5,344.8,51.6,345.1,51.7,345.4z"/>
		<path id="XMLID_134_" class="st3" d="M50.8,515.9c0.2,0.3,0.4,0.6,0.6,0.9c1.1,2.1,0.9,4.9-0.7,6.7l-0.6,0.1
			c-0.4-0.4-1-0.8-1.5-1.1c-1.1-0.6-2.2-1.1-3-2c-0.5-0.5-0.9-1.1-1.1-1.8c-0.3-0.8-0.3-1.6-0.2-2.4c0.2-1.5,1.2-2.9,2.5-3.6l0,0
			c0.2,0.2,0.4,0.3,0.6,0.4C48.7,514,49.9,514.8,50.8,515.9z"/>
		<path id="XMLID_133_" class="st3" d="M50.9,508.7c0.1,0.1,0.2,0.2,0.3,0.3c1.6,2,1.4,5.2-0.3,6.9c-0.9-1.1-2.2-2-3.4-2.8
			c-0.2-0.1-0.4-0.3-0.6-0.4c-1.3-0.9-2.6-1.9-3.3-3.3c-0.8-1.7-0.6-4,0.9-5l0.3-0.5c0.7,1.2,1.9,2,3.1,2.7
			C48.9,507.2,50,507.8,50.9,508.7z"/>
		<path id="XMLID_131_" class="st3" d="M51.2,525.1c0.5,1.1,0.8,4.1-0.3,4.5l-0.1,0.2c-1-0.9-2.3-1.4-3.5-2
			c-0.5-0.2-1.1-0.5-1.6-0.8c-0.8-0.5-1.6-1.1-2.2-1.9c-0.9-1.3,0-5.1,1-6.4l0.1,0c0.2,0.7,0.6,1.3,1.1,1.8c0.8,0.9,2,1.4,3,2
			c0.5,0.3,1.1,0.7,1.5,1.1C50.6,524.1,51,524.5,51.2,525.1z"/>
		<path id="XMLID_130_" class="st3" d="M44.2,350.7c-0.5-0.5-0.9-1.1-1.1-1.8c-0.4-1.1-0.1-2.6,0.8-3.2l0.1-0.2
			c0.3-0.9,0.6-1.7,0.8-2.6l0.2,0c0,0.9,0.2,1.9,0.7,2.7c0.7,1.3,1.9,2.2,2.9,3.2c0.7,0.6,1.4,1.3,1.9,2.1c0.3,0.4,0.5,0.9,0.6,1.4
			c0.4,1.4-0.1,3.2-1.4,3.8l-0.5,0.1c-0.3-0.8-0.7-1.5-1.3-2.2c-0.8-0.9-1.8-1.5-2.7-2.3C44.9,351.4,44.5,351.1,44.2,350.7z"/>
		<path id="XMLID_129_" class="st3" d="M40.3,423.1c-0.2-0.1-0.4-0.3-0.5-0.5c-0.8-1-0.9-5.9,0.1-6.7c1.6,0.8,3.5,0.4,5.3,0.2
			c0.8-0.1,1.6-0.1,2.4,0.1c1,0.2,1.9,0.6,2.5,1.4c0.7,0.9,0.9,2,0.7,3.1c-0.1,1.1-0.5,2.1-0.9,3.1l-0.4,0.1
			c-0.9-0.2-1.8-0.3-2.7-0.2c-1.2,0.1-2.5,0.4-3.7,0.3C42.1,424.1,41,423.8,40.3,423.1z"/>
		<path id="XMLID_128_" class="st3" d="M51.1,653.7c-0.3,3.2-2,6.3-4.6,8.2l-0.2-0.1c0.2-0.6,0.4-1.3,0.4-1.9c0-2.1-0.9-4-1.3-6
			c-0.1-0.4-0.1-0.8-0.1-1.2c0-1.7,0.5-3.5,1.8-4.3l0.6,0.1c-0.2,1-0.1,2.1,0.4,3C48.8,652.6,49.9,653.4,51.1,653.7z"/>
		<path id="XMLID_127_" class="st3" d="M43,358.5c-0.3-0.5-0.5-1.1-0.6-1.7c-0.3-1.6,0.5-5.1,1.9-6.1c0.3,0.4,0.7,0.7,1.1,1
			c0.9,0.7,1.9,1.4,2.7,2.3c0.6,0.6,1,1.4,1.3,2.2c0.4,1,0.5,2,0.4,3.1c-0.2,1.9-1.1,3.7-2.6,4.9l-0.3,0.1c-0.5-1.1-1.3-2.1-2.1-3.1
			C44.1,360.3,43.4,359.4,43,358.5z"/>
		<path id="XMLID_126_" class="st3" d="M46.9,411.5c1.1,0.9,1.7,2.7,0.8,3.9l-0.2,0.9c-0.8-0.1-1.6-0.1-2.4-0.1
			c-1.8,0.2-3.7,0.5-5.3-0.2c-1.2-0.5-2-1.6-2.4-2.9c-0.3-1.3,0-2.7,0.7-3.7l0.4-0.5c0.1,0.1,0.1,0.1,0.2,0.2c1.2,0.8,2.7,1,4.1,1.2
			c0.6,0.1,1.2,0.2,1.8,0.3C45.5,410.7,46.3,411,46.9,411.5z"/>
		<path id="XMLID_125_" class="st3" d="M47.3,365.4c0.6,2.2-0.1,4.7-1.8,6.2l-0.1,0.1c-0.4-0.9-1.1-1.6-1.8-2.3
			c-0.9-0.9-1.8-1.7-2.4-2.8c-0.1-0.2-0.2-0.4-0.3-0.6c-0.9-2.2,0.8-5.4,2.1-7.4c0.5,1,1.1,1.8,1.8,2.7c0.8,1,1.6,2,2.1,3.1
			C47.1,364.6,47.2,365,47.3,365.4z"/>
		<path id="XMLID_124_" class="st3" d="M46.6,659.9c0,0.6-0.1,1.3-0.4,1.9c-0.5,1.4-1.6,2.4-3,2.4l0,0c0.2-0.6,0.4-1.2,0.3-1.9
			c-0.1-1.4-0.8-2.6-1.4-3.8c-0.4-0.7-0.7-1.5-0.9-2.3c-0.1-0.5-0.1-1,0-1.5c0.3-1.3,1.7-2.5,2.9-2l1,0c0,0.4,0,0.8,0.1,1.2
			C45.7,655.9,46.6,657.8,46.6,659.9z"/>
		<path id="XMLID_122_" class="st3" d="M43.9,376.4c0.7,0.5,1.4,1,1.9,1.7c1,1.3,1.1,3.4-0.1,4.3l-1.1,0.3c-0.7-0.5-1.5-0.9-2.4-1.2
			c-1.3-0.5-2.7-1-3.7-2c-1.5-1.5-0.6-4.7,0.7-6.4c0.7,0.9,1.7,1.6,2.7,2.2C42.6,375.7,43.3,376,43.9,376.4z"/>
		<path id="XMLID_121_" class="st3" d="M39.3,373.1c-0.2-0.3-0.5-0.7-0.6-1.1c-0.6-1.7,0.7-4.5,2.3-5.4l0.3-0.2
			c0.6,1.1,1.5,1.9,2.4,2.8c0.7,0.7,1.4,1.5,1.8,2.3c0.2,0.4,0.4,0.9,0.5,1.4c0.2,1.4-0.6,3.1-2,3.4c-0.6-0.4-1.3-0.7-1.9-1.1
			C41,374.7,39.9,374.1,39.3,373.1z"/>
		<path id="XMLID_120_" class="st3" d="M45.7,383.8c0.8,1.2,0.2,4.2-1.1,4.8c-1.2-1-2.8-1.3-4.3-1.7c-0.9-0.2-1.9-0.5-2.7-1
			c-0.5-0.3-0.9-0.7-1.3-1.2c-0.9-1.3,0.7-4.7,2.2-5.3c1,1,2.4,1.5,3.7,2c0.8,0.3,1.7,0.7,2.4,1.2C45,383,45.4,383.4,45.7,383.8z"/>
		<path id="XMLID_119_" class="st3" d="M45.7,405c1.2,1.5,0.7,4.1-0.9,5.1l-0.1,0.3c-0.6-0.2-1.2-0.2-1.8-0.3
			c-1.4-0.2-2.9-0.4-4.1-1.2c-0.1-0.1-0.1-0.1-0.2-0.2c-1.7-1.5-2-5.9-0.6-7.7l0.1-0.1c0.2,0.3,0.4,0.5,0.6,0.6
			c1.3,0.9,3.1,1.2,4.6,1.7C44.3,403.8,45.1,404.2,45.7,405z"/>
		<path id="XMLID_118_" class="st3" d="M45.5,397.4c1.2,1.8,0.8,4.5-0.7,6l-1.4,0.1c-1.5-0.6-3.3-0.8-4.6-1.7
			c-0.2-0.2-0.5-0.4-0.6-0.6c-1.5-2-1.3-6.4,0.1-8.2l0.1-0.1c0.9,0.6,1.9,1.1,2.9,1.5c0.8,0.4,1.7,0.8,2.4,1.3
			C44.4,396,45,396.6,45.5,397.4z"/>
		<path id="XMLID_117_" class="st3" d="M44.6,388.7c1.9,1.7,2,5.1,0.1,6.8l-1.1,0c-0.8-0.5-1.6-0.9-2.4-1.3c-1-0.4-2-0.9-2.9-1.5
			c-0.6-0.4-1.1-0.9-1.5-1.5c-1-1.5-1-3.9,0.5-4.8l0.3-0.5c0.8,0.5,1.8,0.8,2.7,1C41.8,387.3,43.4,387.6,44.6,388.7z"/>
		<path id="XMLID_116_" class="st3" d="M44.9,500.2c-0.2,0.4-0.4,0.8-0.6,1.3C44.4,501,44.6,500.5,44.9,500.2z"/>
		<path id="XMLID_115_" d="M36.6,634.1c0,0-0.1-0.1-0.1-0.1c0.7-1.7,2.8-2.7,4.6-2.2l0,0.3c0.8,0,1.5,0.4,2,1l0.1,0.3
			c0,0.1,0,0.1,0,0.2c-0.2,4.2,0.3,8.4,1.6,12.3l0,0.2c0,0,0.1,0,0.1,0l0,0.1c-1,1.2-2.5,1.8-4,1.7c-1.5-0.1-2.9-1-3.7-2.3l0.2-0.1
			c-0.1-0.2-0.1-0.4-0.2-0.6c-1.1-3.4-1.3-7-0.6-10.5L36.6,634.1z"/>
		<path id="XMLID_114_" class="st3" d="M43.6,662.3c0,0.7-0.1,1.3-0.3,1.9c-0.7,1.7-2.4,3-4.2,2.9l-1.4-0.2c0.3-1.9-0.3-3.9-0.3-5.9
			c0-0.2,0-0.4,0-0.6c0.2-2,1.4-4,3.3-4l0.6-0.2c0.1,0.8,0.5,1.6,0.9,2.3C42.8,659.8,43.5,661,43.6,662.3z"/>
		<path id="XMLID_111_" class="st3" d="M37.4,660.9c0,2,0.6,4,0.3,5.9c0,0.1,0,0.3-0.1,0.4c-0.5,2.1-3,3.8-4.6,2.5
			c-1.5-1.3-1.4-5.3-0.6-7.1c0.9-1.8,2.9-2.8,4.8-2.3l0.2,0C37.4,660.6,37.4,660.7,37.4,660.9z"/>
		<path id="XMLID_110_" class="st1" d="M36.5,634c0,0,0.1,0,0.1,0.1l-0.2,0.4c-0.7,3.5-0.5,7.1,0.6,10.5l-0.4,0.1
			c-1.2-0.2-2.3-0.5-3.5-0.7c-0.8-0.2-1.6-0.3-2.2-0.9c-0.8-0.7-1-1.8-1.1-2.9c-0.1-1.9,0.4-4,1.7-5.4C32.9,634,34.9,633.3,36.5,634
			z"/>
		<path id="XMLID_109_" class="st0" d="M5,670.7c5.1,8.7,10.1,17.4,15.2,26.2l-0.1,0c-2.1,0.1-4.6,0.5-6.9,0.7
			c-2.8-1.2-5.2-3.1-7.1-5.5l0,0c-1.4-6.8-1.7-13.8-1.3-20.7C4.9,671.2,4.9,670.9,5,670.7z"/>
		<path id="XMLID_108_" class="st1" d="M8.1,699.6l-2.2,0.7c-0.3,0.2-0.6,0.3-0.9,0.5c-2,1.3-3.4,3.4-3.9,5.8l-0.3-0.1
			c-0.9-11.8,1.2-23.7,4.1-35.2c-0.4,6.9,0,13.9,1.3,20.7C6.6,694.6,7.3,697.2,8.1,699.6z"/>
	</g>
	<g id="XMLID_283_">
		<path id="XMLID_555_" class="st5" d="M63.6,647.1c-0.3,23.4-0.6,46.9-0.9,70.3"/>
		<path id="XMLID_553_" class="st5" d="M53.1,647.1c0,2.2,0,4.4,0,6.6c-0.1,20-0.2,39.9-0.3,59.9"/>
		<path id="XMLID_518_" class="st5" d="M12.1,697.6c2.5,8.9,7.9,16.9,15.1,22.4c3,2.3,6.4,4.2,10.1,5c3.7,0.8,7.7,0.2,10.8-2
			c2.9-2.1,4.8-5.9,4.3-9.5c0-0.2-0.1-0.4-0.1-0.5"/>
		<path id="XMLID_476_" class="st5" d="M6,701.1c0.4,13,7.7,25.5,18.6,31.9c5.7,3.4,12.2,5.1,18.2,8c5.7,2.8,12.1,7.2,14.4,13.2
			c0.1,0.3,0.2,0.5,0.3,0.8"/>
		<path id="XMLID_475_" class="st5" d="M110,703.2c0,0.1,0,0.1,0,0.2c0,0.2,0,0.5,0,0.7c0.1,3.2-0.3,6.3-1.3,9.3
			c-0.6,1.9-1.3,3.7-2.3,5.4c-0.7,1.4-1.6,2.6-2.5,3.9c-0.1,0.1-0.2,0.3-0.3,0.4c-0.5,0.6-1.1,1.3-1.6,1.8c-0.3,0.4-0.7,0.7-1.1,1
			c-0.5,0.5-1.1,1-1.7,1.5c-2.4,2-5,3.6-7.7,5.1c-1.2,0.7-2.5,1.3-3.7,1.9c-2.6,1.2-5.2,2.4-7.8,3.6c-1.6,0.7-3.2,1.5-4.8,2.3
			c-3.3,1.6-6.6,3.4-9.5,5.6c-3.4,2.5-6.3,5.5-8.3,9.2"/>
		<path id="XMLID_473_" class="st5" d="M62.6,717.4c0.1,4.4,4.1,8,8.4,8.7c4.2,0.7,8.6-0.7,12.4-2.8c8.9-4.7,16.2-12.7,20.3-22.1"/>
		<path id="XMLID_472_" class="st5" d="M104.1,700.7c-0.1,0-0.3,0-0.4,0c-2.6-0.3-5.3-0.5-7.9-0.8"/>
		<path id="XMLID_470_" class="st5" d="M95.4,699.9c0-0.1,0.1-0.1,0.1-0.2c1-1,1.9-2.1,2.8-3.2c5.7-7,10.4-15,13.7-23.5c0,0,0,0,0,0
			"/>
		<path id="XMLID_469_" class="st5" d="M112.4,672.8C112.5,672.8,112.5,672.8,112.4,672.8c2.2,6.6,3.5,13.3,4,20.1
			c0.1,1.1,0.1,2.2,0.2,3.3c0,1.3,0.1,2.5,0,3.8c0,0.9,0,1.9-0.1,2.8c0,0.8-0.1,1.6-0.1,2.3"/>
		<path id="XMLID_468_" class="st5" d="M20.2,696.9C20.2,696.9,20.2,696.9,20.2,696.9C15.1,688.2,10,679.4,5,670.7"/>
		<path id="XMLID_467_" class="st5" d="M5,670.7c-0.1,0.2-0.1,0.5-0.2,0.7c-2.9,11.5-5,23.4-4.1,35.2"/>
		<path id="XMLID_466_" class="st5" d="M1,706.8c0-0.1,0-0.1,0-0.2c0.5-2.4,2-4.5,3.9-5.8c0.3-0.2,0.6-0.4,0.9-0.5"/>
		<path id="XMLID_465_" class="st5" d="M112.1,673c0,4.3-0.3,8.6-0.9,12.9c-0.1,0.7-0.2,1.4-0.3,2.1c-0.1,0.5-0.2,1-0.3,1.5
			c-0.2,1-0.4,1.9-0.6,2.9c-0.1,0.7-0.3,1.4-0.5,2c-0.2,0.7-0.3,1.3-0.5,2c-0.2,0.7-0.4,1.3-0.6,2c-0.2,0.8-0.5,1.6-0.8,2.3
			c-0.3,0.8-0.6,1.7-0.9,2.5c-0.3,0.7-0.6,1.4-0.9,2.1c-0.5,1.2-1.1,2.4-1.7,3.6c-0.1,0.2-0.2,0.4-0.3,0.6c-0.5,0.9-1,1.8-1.5,2.7
			c-0.4,0.7-0.9,1.4-1.3,2.1c-0.4,0.7-0.9,1.3-1.4,1.9c-0.3,0.4-0.6,0.9-1,1.3c-2.1,2.7-4.5,5.3-7.2,7.5c-1.3,1.1-2.6,2.1-3.9,3
			c-0.1,0.1-0.1,0.1-0.2,0.1c-1.2,0.8-2.4,1.5-3.7,2.2c-2.3,1.2-4.8,2.2-7.4,2.9"/>
		<path id="XMLID_464_" class="st5" d="M57.7,709.3c0,0.2,0,0.3,0,0.5"/>
		<path id="XMLID_463_" class="st5" d="M58.7,646.9c0,0.1,0,0.1,0,0.2c-0.4,20.6-0.6,41.6-1,62.2"/>
		<path id="XMLID_462_" class="st5" d="M58,708.3c-0.1,1-0.1,1.9-0.2,2.9c0,1.9,0.1,3.9,0.3,5.8c0.4,3.4,1.3,6.8,2.6,10
			c0.1,0.2,0.1,0.4,0.2,0.5c0.8,2,1.9,3.9,3.6,5.1c0.6,0.5,1.3,0.8,2.1,1.1c0.9,0.3,1.8,0.5,2.8,0.6c2.3,0.2,4.8-0.3,7.2-0.9
			c0.1,0,0.2,0,0.3-0.1"/>
		<path id="XMLID_461_" class="st5" d="M110.1,703.4c0.4-0.1,0.9-0.1,1.3-0.1c1.1,0,2.2,0.3,3.1,0.8c0.5,0.3,1.1,0.6,1.5,1"/>
		<path id="XMLID_460_" class="st5" d="M12.1,697.6c0.3,0,0.7,0,1.1-0.1c2.2-0.2,4.7-0.6,6.9-0.7"/>
		<path id="XMLID_459_" class="st5" d="M4.8,671c0,0.1,0,0.3,0,0.4c-0.4,6.9,0,13.9,1.3,20.7c0.5,2.6,1.2,5.1,2,7.5
			c0.7,2.1,1.4,4.1,2.3,6.1c4.5,10.1,12.3,19,21.8,24.4c0.6,0.4,1.3,0.7,2,1.1"/>
		<path id="XMLID_458_" class="st5" d="M57.7,708.7c0,0.2,0,0.3,0,0.5c0,0,0,0,0,0c0,0.6,0,1.3,0,1.9c0,5.1-1,10.2-2.9,14.9
			c-1.2,3-2.9,6-5.7,7.6c-2.7,1.5-6,1.5-8.9,0.6c-2.9-0.9-5.6-2.5-8.2-4.2"/>
		<path id="XMLID_457_" class="st5" d="M44.5,646.1c0.1,0,0.2,0,0.3,0c0,0,0.1,0,0.1,0c1.1,0.2,2.3,0.3,3.4,0.5
			c1.6,0.2,3.2,0.3,4.8,0.4c1.9,0.1,3.8,0.1,5.6,0.1c1.6,0,3.2-0.1,4.8-0.3c2.7-0.2,5.3-0.6,7.9-1.1c0.1,0,0.2,0,0.3-0.1
			c0,0,0.1,0,0.1,0"/>
		<path id="XMLID_456_" class="st5" d="M37.1,645.7c0.8,1.3,2.2,2.2,3.7,2.3c1.5,0.1,3.1-0.5,4-1.7"/>
		<path id="XMLID_455_" class="st5" d="M36.7,645.2c-1.2-0.2-2.3-0.5-3.5-0.7c-0.8-0.2-1.6-0.3-2.2-0.9c-0.8-0.7-1-1.8-1.1-2.9
			c-0.1-1.9,0.4-4,1.7-5.4c1.2-1.3,3.2-2,4.9-1.2c0,0,0.1,0,0.1,0.1c0,0,0.1,0,0.1,0.1"/>
		<path id="XMLID_454_" class="st5" d="M36.5,634.1L36.5,634.1c0.7-1.7,2.8-2.8,4.6-2.2"/>
		<path id="XMLID_453_" class="st5" d="M36.5,634.5c-0.7,3.5-0.5,7.1,0.6,10.5c0.1,0.2,0.1,0.4,0.2,0.6"/>
		<path id="XMLID_452_" class="st5" d="M40.8,632.2c0.1,0,0.2,0,0.3,0c0.8,0,1.5,0.4,2,1"/>
		<path id="XMLID_451_" class="st5" d="M43.2,633.4c0,0.1,0,0.1,0,0.2c-0.2,4.2,0.3,8.4,1.6,12.3"/>
		<path id="XMLID_450_" class="st5" d="M70.5,633.7c0.1,0.1,0.1,0.1,0.2,0.2c1.1,1,1.8,2.4,2.2,4c0.5,2.6-0.3,5.3-1.2,7.8
			c0,0,0,0.1,0,0.1"/>
		<path id="XMLID_449_" class="st5" d="M71.5,645.8c2.3,2.3,6,2.9,9,1.6"/>
		<path id="XMLID_448_" class="st5" d="M70.8,633.8c1.7-0.7,3.5-1.3,5.4-1.4c1.9-0.1,3.8,0.6,4.9,2.2c0,0,0,0.1,0.1,0.1
			c0.7,1.1,0.9,2.4,1,3.7c0.1,2.6-0.2,4.9-1,7.3c-0.2,0.6-0.4,1.2-0.7,1.7"/>
		<path id="XMLID_447_" class="st5" d="M80.8,634.7c0.1,0,0.3,0,0.4,0c1.6-0.2,3.3,0,4.7,0.8c1.6,0.9,2.7,2.7,2.8,4.6
			c0.1,1.9-0.7,3.8-2.2,4.9c-1.4,1.1-3.5,1.4-5.2,0.8"/>
		<path id="XMLID_446_" class="st5" d="M43.2,633.7c3.5-0.3,7.1-0.5,10.7-0.6c3.6-0.1,7.1-0.1,10.7,0.1c2,0.1,4.1,0.2,6.1,0.3
			c0.1,0,0.2,0,0.3,0"/>
		<path id="XMLID_445_" class="st5" d="M54,620.7c-0.1,4.1-0.2,8.1-0.2,12.2"/>
		<path id="XMLID_444_" class="st5" d="M64.4,621.5c0,0.7-0.1,1.4-0.1,2.1c-0.1,1.5-0.1,3,0,4.5c0,1.6,0.1,3.2,0.2,4.8
			c0,0,0,0.1,0,0.1"/>
		<path id="XMLID_443_" class="st5" d="M64.1,621.5c0.1,0,0.1-0.1,0.2-0.1c2.2-1.2,4.2-2.8,5.8-4.8c1.8-2.1,3.2-4.5,4-7.1
			c0.1-0.3,0.2-0.6,0.3-0.9c0.3-1.3,0.5-2.7,0.6-4c0.1-2.2-0.2-4.4-0.9-6.5c-0.5-1.5-1.1-2.8-2-4.1c-0.9-1.4-2.1-2.6-3.4-3.6
			c-1.3-1-2.8-1.8-4.4-2.4c-1.1-0.4-2.3-0.6-3.4-0.7c0,0-0.1,0-0.1,0c-0.6-0.1-1.2-0.1-1.8,0c-0.1,0-0.2,0-0.4,0
			c-0.3,0-0.5,0.1-0.8,0.1c-1.6,0.3-3.1,0.8-4.6,1.6c-0.9,0.5-1.7,1-2.5,1.7c-0.8,0.7-1.5,1.4-2.2,2.2c-2.6,3-4.1,6.9-4.6,10.9
			c-0.4,3.6,0,7.5,1.7,10.7c1.7,3.2,4.9,5.7,8.4,6.1"/>
		<path id="XMLID_442_" class="st5" d="M57,610.7C57,610.7,57,610.6,57,610.7c-1.2-1.6-2.2-3.3-2.5-5.2c-0.2-1.2-0.2-2.4,0.1-3.6
			c0.2-0.7,0.5-1.4,0.9-2c0.9-1.3,2.4-2.2,4-2.4c1.5-0.2,3,0.4,4.2,1.3c1.1,0.9,2,2.2,2.3,3.6c0,0,0,0,0,0c0,0.2,0.1,0.3,0.1,0.5
			c0.1,0.4,0.1,0.9,0,1.3c0,0.8-0.2,1.6-0.6,2.4c-0.8,1.8-2.2,3.2-4,3.9c0,0-0.1,0-0.1,0.1C60,611,58.4,611.1,57,610.7
			c-0.1-0.1-0.2-0.1-0.3-0.1"/>
		<path id="XMLID_441_" class="st5" d="M50.6,593.9c-0.5,3.1,1.2,6.5,3.9,8c0.1,0.1,0.2,0.1,0.4,0.2c2.8,1.3,6.4,0.5,8.5-1.8
			c0.1-0.1,0.2-0.2,0.3-0.3"/>
		<path id="XMLID_440_" class="st5" d="M62.3,593.4c1.4,1.3,1.9,3.4,1.4,5.3c-0.1,0.4-0.2,0.8-0.4,1.2"/>
		<path id="XMLID_439_" class="st5" d="M67.3,588.9c0.5,0,0.9,0,1.4,0c1.1,0,2.2,0.1,3.3,0.4c0.9,0.2,1.8,0.6,2.6,1.1
			c1.9,1.3,2.9,4.1,1.8,6c-0.1,0.2-0.3,0.4-0.5,0.6c-0.5,0.5-1.1,0.9-1.8,1c-1.2,0.3-2.5,0.4-3.7,0.5c-1,0.1-2.1,0.6-2.8,1.3
			c-0.7,0.6-1.1,1.4-0.9,2.2c0,0.1,0,0.1,0,0.2"/>
		<path id="XMLID_438_" class="st5" d="M69.3,590c0,0-0.1,0-0.1,0.1c-0.2,0.1-0.3,0.1-0.5,0.2c-0.9,0.5-1.5,1.2-2,2.1
			c-1.1,2-1.2,4.6,0.2,6.5"/>
		<path id="XMLID_437_" class="st5" d="M76,596c0.1,0.1,0.3,0.3,0.4,0.4c1.4,1.6,1.7,4.1,0.8,6c-0.2,0.4-0.5,0.8-0.8,1.2
			c-0.4,0.4-0.8,0.8-1.3,1c-1.1,0.6-2.3,0.8-3.5,0.5c-1.1-0.2-2-0.8-3.1-1.1c-0.7-0.2-1.6-0.2-2.3,0.1c-0.3,0.1-0.6,0.3-0.8,0.6"/>
		<path id="XMLID_436_" class="st5" d="M76.4,603.6c0.2,1.9-0.6,3.8-2,5c-0.6,0.5-1.3,0.9-2.1,1.2c0,0-0.1,0-0.1,0
			c-2.6,0.7-5.5-0.8-6.6-3.3"/>
		<path id="XMLID_435_" class="st5" d="M72.5,609.4c0,0.1-0.1,0.2-0.1,0.3c-0.8,2.4-3.2,4.2-5.7,4.2c-2.2,0-4.3-1.5-5.2-3.5
			c-0.2-0.4-0.3-0.8-0.4-1.2"/>
		<path id="XMLID_434_" class="st5" d="M60.7,609.1c-1.5-2.6,0.7-6.5,3.7-6.4"/>
		<path id="XMLID_432_" class="st5" d="M58.7,587c0-0.1,0-0.1,0-0.2c0.6-3.5,4.3-6.2,7.8-5.6c3.5,0.6,6.1,4.5,5.4,8.1
			c0,0,0,0.1,0,0.1c-0.2,0.8-0.7,1.8-1.5,1.8c-0.6,0-0.9-0.5-1.2-1c-0.2-0.4-0.4-0.8-0.5-1.1c0,0,0,0,0-0.1c-0.8-1.7-2.6-2.9-4.4-3
			c-1.3,0-2.5,0.4-3.4,1.3c0,0,0,0-0.1,0.1c-0.5,0.4-0.8,0.9-1.1,1.4"/>
		<path id="XMLID_431_" class="st5" d="M64.3,587c0,0.3,0,0.6,0,0.9c0.1,1.8,1,3.4,2.4,4.5c0,0,0.1,0.1,0.1,0.1"/>
		<path id="XMLID_430_" class="st5" d="M69.9,616.2c0.1,0.1,0.2,0.3,0.3,0.4c1.1,1.6,1.1,3.9,0,5.5c-0.1,0.1-0.2,0.3-0.3,0.4
			c-1.3,1.4-3.5,1.9-5.3,1"/>
		<path id="XMLID_429_" class="st5" d="M70.2,622.7c0.1,1.2-0.2,2.3-0.9,3.2c-1.2,1.6-3.2,2.6-5.1,2.1c-0.1,0-0.2,0-0.3-0.1"/>
		<path id="XMLID_428_" class="st5" d="M69.8,626.1c0.7,1.7,0.3,3.8-0.9,5.2c-1.1,1.3-2.8,1.8-4.4,1.6c-0.2,0-0.3-0.1-0.5-0.1"/>
		<path id="XMLID_427_" class="st5" d="M48.3,647c-0.3,0.4-0.5,0.9-0.6,1.4c-0.2,1-0.1,2.1,0.4,3c0.6,1.1,1.8,1.9,3,2.2
			c0.3,0.1,0.5,0.1,0.8,0.1"/>
		<path id="XMLID_426_" class="st5" d="M47.1,648.3c-1.4,0.8-1.9,2.6-1.8,4.3c0,0.4,0,0.8,0.1,1.2c0.4,2,1.3,4,1.3,6
			c0,0.6-0.1,1.3-0.4,1.9c-0.5,1.4-1.6,2.4-3,2.4"/>
		<path id="XMLID_425_" class="st5" d="M44.2,652.6c-1.2-0.5-2.6,0.7-2.9,2c-0.1,0.5-0.1,1,0,1.5c0.1,0.8,0.5,1.6,0.9,2.3
			c0.6,1.2,1.3,2.4,1.4,3.8c0,0.7-0.1,1.3-0.3,1.9c-0.7,1.7-2.4,3-4.2,2.9"/>
		<path id="XMLID_416_" class="st5" d="M40.7,656.3c-1.9,0-3,2.1-3.3,4c0,0.2,0,0.4,0,0.6c0,2,0.6,4,0.3,5.9c0,0.1,0,0.3-0.1,0.4
			c-0.5,2.1-3,3.8-4.6,2.5"/>
		<path id="XMLID_415_" class="st5" d="M46.5,661.9c2.6-1.9,4.3-5,4.6-8.2c0-0.1,0-0.2,0-0.3"/>
		<path id="XMLID_414_" class="st5" d="M37.3,660.3c-1.9-0.4-4,0.6-4.8,2.3c-0.9,1.8-0.9,5.8,0.6,7.1"/>
		<path id="XMLID_413_" class="st5" d="M95.6,699.1c0.8-1,1.8-1.8,2.8-2.6c3.1-2.3,7.1-3.3,10.9-2.9c0.1,0,0.2,0,0.3,0"/>
		<path id="XMLID_412_" class="st5" d="M88.6,728c-0.3,0-0.6,0.1-0.9,0.1c-0.1,0-0.2,0-0.2,0.1c-1.4,0.4-2.6,1.2-3.7,2.3
			c-0.2,0.2-0.4,0.4-0.6,0.7c-1.4,1.7-2.4,3.6-3.7,5.4c-1.1,1.5-2.5,3-4.2,3.7c-0.2,0.1-0.5,0.2-0.8,0.3"/>
		<path id="XMLID_411_" class="st5" d="M6.1,692.1c1.9,2.4,4.3,4.3,7.1,5.5c0.2,0.1,0.4,0.2,0.6,0.2"/>
		<path id="XMLID_410_" class="st5" d="M111.6,685.9c1.6,2.3,3.2,4.7,4.8,7"/>
		<path id="XMLID_409_" class="st5" d="M110.8,689.5c2,2.2,3.9,4.5,5.9,6.7l0,0"/>
		<path id="XMLID_408_" class="st5" d="M109.6,691.9c0.2,0.1,0.4,0.3,0.5,0.4c2.6,2,4.7,4.6,6.1,7.6"/>
		<path id="XMLID_407_" class="st5" d="M109.2,693.9c0.2,0.2,0.3,0.3,0.5,0.5c2.6,2.4,4.7,5.2,6.4,8.4"/>
		<path id="XMLID_406_" class="st5" d="M109.4,696.4c1.7,2.6,3.4,5.1,5.1,7.7c0,0.1,0.1,0.1,0.1,0.2"/>
		<path id="XMLID_405_" class="st5" d="M108.4,698.1c0,0.1,0.1,0.2,0.1,0.2c0.9,1.7,1.9,3.3,2.8,5c0.1,0.1,0.1,0.3,0.2,0.4"/>
		<path id="XMLID_404_" class="st5" d="M107.6,700.4c0.1,0.1,0.1,0.2,0.2,0.3c0.7,1.1,1.5,2.3,2.2,3.4c0,0,0,0.1,0.1,0.1"/>
		<path id="XMLID_398_" class="st5" d="M110.5,687.4c0.1,0.2,0.3,0.3,0.4,0.5c1.8,2.2,3.5,4.4,5.3,6.6"/>
		<path id="XMLID_396_" class="st5" d="M106.5,702.8c0.1,0.1,0.3,0.3,0.4,0.4c1.3,1.4,2.1,3.3,2.1,5.2"/>
		<path id="XMLID_395_" class="st5" d="M106,705.3C106,705.3,106,705.3,106,705.3c1.6,2.4,2.5,5.2,2.5,8.1"/>
		<path id="XMLID_392_" class="st5" d="M104.5,709.1c1.3,3,1.9,6.3,1.7,9.6"/>
		<path id="XMLID_390_" class="st5" d="M102.4,712.3C102.4,712.3,102.4,712.3,102.4,712.3c1.2,3.3,1.6,6.8,1.3,10.2"/>
		<path id="XMLID_388_" class="st5" d="M98.6,717c0.1,0.2,0.1,0.4,0.2,0.7c0.9,3,0.9,6.3,0.1,9.4"/>
		<path id="XMLID_364_" class="st5" d="M101.4,714.6c0.7,3.4,1,6.9,0.7,10.4c0,0.2,0,0.5-0.1,0.7"/>
		<path id="XMLID_356_" class="st5" d="M99.6,715.7c0.1,0.2,0.2,0.5,0.2,0.7c1.1,3.1,1.5,6.4,1.2,9.6c0,0,0,0.1,0,0.1"/>
		<path id="XMLID_351_" class="st5" d="M93.5,730.8c0.4-2.2,0.8-4.4,1.2-6.6"/>
		<path id="XMLID_332_" class="st5" d="M91.3,732.1c-0.5-2.1-0.2-4.5,0.8-6.4"/>
		<path id="XMLID_331_" class="st5" d="M88.2,730.1c0.3-0.6,0.6-1.1,0.8-1.7"/>
		<path id="XMLID_330_" class="st5" d="M87.7,734c-0.6-1.5-0.5-3.2,0.1-4.7"/>
		<path id="XMLID_329_" class="st5" d="M58.1,715.7c0,0.4,0,0.8,0,1.3c-0.2,9.5-0.4,19-0.6,28.5c-0.1,2.9-0.1,5.8-0.2,8.8"/>
		<path id="XMLID_319_" class="st5" d="M61,727.4c0,0-0.1,0.1-0.2,0.1c-0.4,0.4-0.9,0.8-1.3,1.1"/>
		<path id="XMLID_318_" class="st5" d="M61.8,729.9c-1,1.6-1.9,3.2-2.9,4.9"/>
		<path id="XMLID_317_" class="st5" d="M63.9,732.4c-1.5,2.4-3.1,4.8-4.6,7.2"/>
		<path id="XMLID_316_" class="st5" d="M66.9,733.4c-0.1,0.1-0.2,0.3-0.4,0.4c-3.2,3.4-5.9,7.4-7.8,11.7"/>
		<path id="XMLID_315_" class="st5" d="M68.1,734.7c-2.7,4.2-5.3,8.5-8,12.7"/>
		<path id="XMLID_312_" class="st5" d="M69.2,734.9c-1.3,3.4-2.6,6.8-3.9,10.2"/>
		<path id="XMLID_311_" class="st5" d="M70.5,734.4c-0.5,2.5-1,5-1.5,7.4"/>
		<path id="XMLID_310_" class="st5" d="M72.4,734.8c-0.3,1.8-0.5,3.7-0.8,5.5"/>
		<path id="XMLID_309_" class="st5" d="M74.8,734.8c-0.2,1.3-0.4,2.6-0.6,3.8"/>
		<path id="XMLID_308_" class="st5" d="M59.6,585.9c0.4,0.4,0.8,0.9,1.2,1.3c0,0,0,0,0.1,0.1c1,1.1,2,2.2,3,3.3"/>
		<path id="XMLID_305_" class="st5" d="M62.3,593.3L62.3,593.3c-0.7-0.1-1.4-0.3-2-0.5c-1.5-0.5-3-1.1-4.4-2
			c-0.9-0.6-1.8-1.2-2.7-1.8c-1.4-1.1-2.8-2.5-3.9-3.9c-1.9-2.4-3.3-5.1-4.1-8"/>
		<path id="XMLID_304_" class="st5" d="M48.9,583.2c0.1,0.6,0.3,1.2,0.4,1.8c0.5,1.9,0.9,3.7,1.4,5.6c0.3,1,0.5,2.1,0.8,3.1
			c0.1,0.5,0.2,1,0.4,1.5"/>
		<path id="XMLID_303_" class="st5" d="M56.8,590.6c0.5-1,0.8-2.1,1-3.2c0.1-1.1,0.1-2.2,0-3.3c-0.3-1.8-1-3.5-2.1-5
			c-0.5-0.6-1-1.1-1.6-1.6c-2.5-2-5.8-2.7-8.9-1.9c-0.1,0-0.1,0-0.2,0"/>
		<path id="XMLID_302_" class="st5" d="M57.3,583c0.1,0.4,0.3,0.7,0.4,1.1c0.3,0.9,0.7,1.8,1,2.7c0.1,0.2,0.1,0.3,0.2,0.5
			c0.6,1.4,1.1,2.9,1.7,4.3"/>
		<path id="XMLID_301_" class="st5" d="M45.9,556.4c-1.5,2.4-2.7,8-1.1,10.2c0.3,0.5,0.7,0.9,1.2,1.3c1.3,1.2,2.9,2,4.4,3
			c0.4,0.3,0.7,0.6,1.1,0.9c1.4,1.5,2.6,3.7,2.6,5.6c0,0,0,0,0,0"/>
		<path id="XMLID_298_" class="st5" d="M51.5,571.8c1.4-0.9,2.9-3.9,2.3-5.4c-0.5-1.1-1.3-2.1-2.3-2.8c-0.3-0.3-0.7-0.6-1.1-0.8
			c-1.4-1-2.8-1.9-3.8-3.3c-0.5-0.8-0.7-1.9-0.6-3c0.1-1.7,0.7-3.6,1.3-4.9"/>
		<path id="XMLID_297_" class="st5" d="M51.7,563.3c1.1-1.8,1.2-4.1,0.4-6.1c-0.4-1.1-1.1-2-1.9-2.8c-0.5-0.5-1-1-1.4-1.5
			c-0.5-0.5-1-1-1.4-1.5c-0.8-0.9-1.4-1.8-1.8-2.9c-0.6-1.7-0.3-5.2,1.2-6.2"/>
		<path id="XMLID_296_" class="st5" d="M50.7,554.2c1.8-0.6,2.6-2.8,2.2-4.7c-0.2-1-0.8-2-1.4-2.8c-0.5-0.7-1.1-1.3-1.8-1.8
			c-1-0.9-2-1.7-2.9-2.6c-0.4-0.4-0.8-0.9-1.1-1.4c-1-1.5-0.6-5.8,0.2-7.6c0-0.1,0.1-0.2,0.1-0.3"/>
		<path id="XMLID_295_" class="st5" d="M51.7,546.5c1.8-2,2.1-5.2,0.7-7.5c-0.2-0.4-0.5-0.7-0.7-1c-0.8-0.9-1.8-1.6-2.8-2.3
			c-1-0.7-2.1-1.5-2.9-2.5c-0.2-0.3-0.4-0.5-0.6-0.8c-0.9-1.4-1.1-3.3-0.2-4.6"/>
		<path id="XMLID_294_" class="st5" d="M51.4,538.3c0.1-0.1,0.1-0.2,0.2-0.3c1.7-2.2,1.5-5.8-0.4-7.8c-0.1-0.2-0.3-0.3-0.5-0.4
			c-1-0.9-2.3-1.4-3.5-2c-0.5-0.2-1.1-0.5-1.6-0.8c-0.8-0.5-1.6-1.1-2.2-1.9c-0.9-1.3,0-5.1,1-6.4"/>
		<path id="XMLID_293_" class="st5" d="M50.9,529.6c1.1-0.4,0.8-3.3,0.3-4.5c-0.2-0.6-0.6-1-1.1-1.5c-0.4-0.4-1-0.8-1.5-1.1
			c-1.1-0.6-2.2-1.1-3-2c-0.5-0.5-0.9-1.1-1.1-1.8c-0.3-0.8-0.3-1.6-0.2-2.4c0.2-1.5,1.2-2.9,2.5-3.6"/>
		<path id="XMLID_291_" class="st5" d="M54.5,504.9c1.6-1.2,2.7-3.1,2.8-5.1c0.1-1.1-0.1-2.2-0.5-3.2c-0.4-0.9-0.9-1.6-1.5-2.3
			c-1.2-1.2-2.8-1.9-4.1-2.9c-0.4-0.3-0.6-0.7-0.7-1.2c-0.3-1.1,0-2.6,0.2-3.8c0-0.2,0.1-0.4,0.1-0.5"/>
		<path id="XMLID_290_" class="st5" d="M57.1,496.6c1.5-1.6,2-4,1.3-6c0-0.1,0-0.1-0.1-0.2c-0.8-2-2.6-3.4-4.6-3.7c-1-0.1-2,0-3-0.2
			c0,0-0.1,0-0.1,0c-0.9-0.2-1.9-0.7-2.1-1.7c-0.4-1.3,0.8-2.6,1.8-3.5"/>
		<path id="XMLID_289_" class="st5" d="M58.5,490.3c1.6-1.2,2.5-3.4,2.1-5.3c-0.3-1.5-1.3-2.8-2.6-3.6c-0.4-0.2-0.9-0.4-1.3-0.5
			c-1.4-0.3-2.8-0.1-4.2,0c-0.7,0-1.4,0-2-0.2c-0.7-0.2-1.4-0.6-1.9-1.1c-1-1.2-0.9-2.9-0.3-4.3c0.6-1.4,1.5-4,2.6-5"/>
		<path id="XMLID_288_" class="st5" d="M58,481.4C58,481.4,58,481.4,58,481.4c1-1.5,0.4-4.7-0.4-6.3c-0.1-0.2-0.2-0.3-0.3-0.5
			c-0.6-1-1.6-1.7-2.6-2.2c-1.1-0.6-2.2-1.1-3.2-1.8c-0.2-0.2-0.4-0.3-0.6-0.5c-0.7-0.7-1.2-1.6-1.3-2.6c-0.1-1.7-0.3-5.5,0.9-6.7"
			/>
		<path id="XMLID_287_" class="st5" d="M57.3,474.7C57.3,474.7,57.3,474.7,57.3,474.7c1.3-1.1-0.2-5.7-0.7-7.4
			c-0.3-0.9-0.9-1.7-1.6-2.4c-0.2-0.2-0.5-0.5-0.7-0.7c-1-0.9-2.1-1.6-2.9-2.5c-0.3-0.3-0.5-0.6-0.7-0.9c-0.5-0.8-0.9-1.7-0.9-2.6
			c0-1.3-0.1-5.1,1.2-5.3"/>
		<path id="XMLID_286_" class="st5" d="M55.7,464.5c1.3-1.4,1.9-3.4,1.7-5.3c-0.1-1.1-0.5-2.1-1.1-3c-0.5-0.7-1.1-1.3-1.7-1.8
			c-1.1-0.7-2.4-1.1-3.6-1.6c-1.2-0.5-2.4-1.3-3-2.4c-0.6-1.2-0.4-2.8,0.7-3.5c0,0,0,0,0.1,0"/>
		<path id="XMLID_284_" class="st5" d="M46.1,567.7c0,0.1-0.1,0.2-0.1,0.2c-1.2,2.3-1.6,5.1-0.9,7.6c0,0.1,0.1,0.3,0.1,0.4"/>
		<path id="XMLID_282_" class="st5" d="M56.7,456c1.2-1.7,0.4-4.2-1.1-5.6c-0.6-0.5-1.2-0.9-1.9-1.3c-1.1-0.6-2.4-1-3.5-1.5
			c-0.5-0.2-1-0.4-1.5-0.6c-1.4-0.7-2.6-1.6-3.3-3c-1.1-2-0.6-4.8,1.2-6.3"/>
		<path id="XMLID_281_" class="st5" d="M54.5,449c1.3-2.1,0.4-5-1.3-6.8c-0.3-0.4-0.7-0.7-1.1-1.1c-1.5-1.3-3.2-2.2-4.7-3.5
			c-0.1-0.1-0.2-0.2-0.3-0.3c-1.7-1.6-3.2-3.8-2.9-6.1"/>
		<path id="XMLID_280_" class="st5" d="M52.2,440.9c1.7-1.1,2.6-3.2,2.5-5.2c-0.2-2-1.5-3.9-3.3-4.7c-0.3-0.1-0.6-0.2-0.9-0.3
			c-1.4-0.4-2.8-0.3-4.2-0.3c-0.7,0-1.3,0-2-0.1c-1.1-0.1-2.1-0.4-2.9-1c-1.4-1-2.1-4.9-1.1-6.3c0,0,0-0.1,0.1-0.1"/>
		<path id="XMLID_279_" class="st5" d="M51.5,430.7c0.8-0.9,1.2-2.2,1-3.4c-0.2-1.2-0.9-2.3-2-2.9c-0.3-0.2-0.6-0.3-1-0.4
			c-0.9-0.2-1.8-0.3-2.7-0.2c-1.2,0.1-2.5,0.4-3.7,0.3c-1-0.1-2.1-0.3-2.8-1c-0.2-0.1-0.4-0.3-0.5-0.5c-0.8-1-0.9-5.9,0.1-6.7"/>
		<path id="XMLID_277_" class="st5" d="M49.9,423.9c0.4-1,0.8-2.1,0.9-3.1c0.1-1.1-0.1-2.3-0.7-3.1c-0.6-0.8-1.5-1.2-2.5-1.4
			c-0.8-0.1-1.6-0.1-2.4-0.1c-1.8,0.2-3.7,0.5-5.3-0.2c-1.2-0.5-2-1.6-2.4-2.9c-0.3-1.3,0-2.7,0.7-3.7"/>
		<path id="XMLID_276_" class="st5" d="M47.7,415.4c0.9-1.2,0.3-3-0.8-3.9c-0.6-0.5-1.4-0.8-2.2-1c-0.6-0.2-1.2-0.2-1.8-0.3
			c-1.4-0.2-2.9-0.4-4.1-1.2c-0.1-0.1-0.1-0.1-0.2-0.2c-1.7-1.5-2-5.9-0.6-7.7"/>
		<path id="XMLID_275_" class="st5" d="M44.8,410.2c1.6-1,2-3.6,0.9-5.1c-0.6-0.8-1.4-1.2-2.3-1.6c-1.5-0.6-3.3-0.8-4.6-1.7
			c-0.2-0.2-0.5-0.4-0.6-0.6c-1.5-2-1.3-6.4,0.1-8.2"/>
		<path id="XMLID_274_" class="st5" d="M44.8,403.4c1.6-1.5,1.9-4.2,0.7-6c-0.5-0.8-1.2-1.4-1.9-1.9c-0.8-0.5-1.6-0.9-2.4-1.3
			c-1-0.4-2-0.9-2.9-1.5c-0.6-0.4-1.1-0.9-1.5-1.5c-1-1.5-1-3.9,0.5-4.8"/>
		<path id="XMLID_273_" class="st5" d="M44.7,395.5c1.8-1.7,1.8-5.1-0.1-6.8c-1.2-1-2.8-1.3-4.3-1.7c-0.9-0.2-1.9-0.5-2.7-1
			c-0.5-0.3-0.9-0.7-1.3-1.2c-0.9-1.3,0.7-4.7,2.2-5.3"/>
		<path id="XMLID_272_" class="st5" d="M44.6,388.7c1.2-0.7,1.9-3.6,1.1-4.8c-0.3-0.5-0.7-0.8-1.1-1.1c-0.7-0.5-1.5-0.9-2.4-1.2
			c-1.3-0.5-2.7-1-3.7-2c-1.5-1.5-0.6-4.7,0.7-6.4c0,0,0,0,0-0.1"/>
		<path id="XMLID_271_" class="st5" d="M45.7,382.4c1.2-1,1.1-3.1,0.1-4.3c-0.5-0.7-1.2-1.2-1.9-1.7c-0.6-0.4-1.3-0.7-1.9-1.1
			c-1-0.6-2.1-1.3-2.7-2.2c-0.2-0.3-0.5-0.7-0.6-1.1c-0.6-1.7,0.7-4.5,2.3-5.4"/>
		<path id="XMLID_270_" class="st5" d="M43.9,376.4C43.9,376.4,43.9,376.4,43.9,376.4c1.5-0.2,2.3-1.9,2-3.4c-0.1-0.5-0.2-1-0.5-1.4
			c-0.4-0.9-1.1-1.6-1.8-2.3c-0.9-0.9-1.8-1.7-2.4-2.8c-0.1-0.2-0.2-0.4-0.3-0.6c-0.9-2.2,0.8-5.4,2.1-7.4c0,0,0-0.1,0-0.1"/>
		<path id="XMLID_269_" class="st5" d="M45.5,371.6c1.7-1.5,2.4-4,1.8-6.2c-0.1-0.4-0.3-0.8-0.4-1.2c-0.5-1.1-1.3-2.1-2.1-3.1
			c-0.7-0.8-1.3-1.7-1.8-2.7c-0.3-0.5-0.5-1.1-0.6-1.7c-0.3-1.6,0.5-5.1,1.9-6.1c0.1-0.1,0.2-0.1,0.2-0.2"/>
		<path id="XMLID_268_" class="st5" d="M47.2,364.1c1.5-1.2,2.4-3,2.6-4.9c0.1-1-0.1-2.1-0.4-3.1c-0.3-0.8-0.7-1.5-1.3-2.2
			c-0.8-0.9-1.8-1.5-2.7-2.3c-0.4-0.3-0.8-0.6-1.1-1c-0.5-0.5-0.9-1.1-1.1-1.8c-0.4-1.1-0.1-2.6,0.8-3.2"/>
		<path id="XMLID_267_" class="st5" d="M50.7,523.5c1.5-1.8,1.8-4.6,0.7-6.7c-0.2-0.3-0.4-0.6-0.6-0.9c-0.9-1.1-2.2-2-3.4-2.8
			c-0.2-0.1-0.4-0.3-0.6-0.4c-1.3-0.9-2.6-1.9-3.3-3.3c-0.8-1.7-0.6-4,0.9-5"/>
		<path id="XMLID_266_" class="st5" d="M50.5,516.3c0.1-0.1,0.2-0.2,0.3-0.3c1.7-1.8,1.9-5,0.3-6.9c-0.1-0.1-0.2-0.2-0.3-0.3
			c-0.8-0.9-2-1.5-3-2.1c-1.2-0.7-2.4-1.5-3.1-2.7c-0.4-0.7-0.6-1.7-0.4-2.5c0.1-0.5,0.3-0.9,0.6-1.3c0-0.1,0.1-0.1,0.1-0.1"/>
		<path id="XMLID_265_" class="st5" d="M50.7,508.8c0.1,0,0.1,0,0.2-0.1c1.5-0.3,2.7-1.6,3.1-3.1c0-0.2,0.1-0.4,0.1-0.7
			c0.1-1.4-0.5-2.9-1.6-3.7c-0.7-0.5-1.5-0.8-2.2-1.3c-1.5-1-2.5-2.7-2.6-4.5c0-0.1,0-0.1,0-0.2c-0.1-1.9,0.8-3.7,2.3-4.8"/>
		<path id="XMLID_264_" class="st5" d="M47.3,495.4c-0.8,1.6-1.6,3.2-2.4,4.8c-0.2,0.4-0.4,0.8-0.6,1.3c0,0.1-0.1,0.1-0.1,0.2"/>
		<path id="XMLID_263_" class="st5" d="M49.8,356.1c1.3-0.6,1.8-2.3,1.4-3.8c-0.1-0.5-0.3-0.9-0.6-1.4c-0.5-0.8-1.2-1.5-1.9-2.1
			c-1.1-1-2.2-1.9-2.9-3.2c-0.4-0.8-0.7-1.7-0.7-2.7c0-2.2,1.2-4.4,3.1-5.3"/>
		<path id="XMLID_262_" class="st5" d="M44.9,342.9c-0.3,0.9-0.6,1.7-0.8,2.6"/>
		<path id="XMLID_261_" class="st5" d="M50.6,350.9c1.4-1.3,1.6-3.5,1.1-5.5c-0.1-0.3-0.2-0.6-0.3-0.9c-0.8-2.1-2.2-4-3-6.2
			c-0.1-0.2-0.2-0.5-0.2-0.7c-0.5-2-0.2-4.4,1.4-5.6"/>
		<path id="XMLID_260_" class="st5" d="M51.6,345.5c0,0,0.1-0.1,0.1-0.1c2-1.8,2.9-4.8,2.4-7.5c-0.2-1-0.6-1.9-1.2-2.8
			c-0.8-1.2-2-2.1-2.6-3.4c-0.2-0.4-0.4-0.8-0.4-1.3c-0.2-1.8,1.4-3.6,3.1-3.6c0,0,0.1,0,0.2,0"/>
		<path id="XMLID_259_" class="st5" d="M53.8,338c0.1,0,0.2,0,0.3,0c1.6,0,3.2-1,4-2.4c0.7-1.3,0.8-2.9,0.2-4.3
			c-0.1-0.3-0.2-0.5-0.4-0.8c-1.1-1.7-3-2.5-4.2-4.1c-1.2-1.5-1.5-3.7-0.9-5.5c0.6-1.6,1.9-2.9,3.5-3.4c0.2-0.1,0.4-0.1,0.6-0.2"/>
		<path id="XMLID_258_" class="st5" d="M58,331.4c0.1,0,0.2-0.1,0.3-0.1c1.4-0.5,2-2.2,2.2-3.7c0.1-1,0-2.1-0.2-3.1
			c-0.3-1.7-1.1-3.3-2.2-4.6c-0.6-0.7-1.3-1.5-1.8-2.3c-0.5-0.7-0.7-1.5-0.6-2.3c0.2-0.9,0.9-1.7,1.7-2.1c0.8-0.4,1.8-0.6,2.7-0.7"
			/>
		<path id="XMLID_257_" class="st5" d="M60.4,324.4c0.6,0.4,1.4,0.2,2-0.2c0.6-0.4,0.9-1.1,1.2-1.8c0.4-1,0.6-2.1,0.5-3.2
			c-0.1-1.6-0.6-3.1-1.5-4.4c-0.7-1-1.6-1.8-2.1-2.9c-0.2-0.3-0.3-0.7-0.3-1.1c-0.1-1.6,1.2-3,2.6-3.5c1.4-0.5,3-0.4,4.6-0.2"/>
		<path id="XMLID_256_" class="st5" d="M64.5,319.2c0.9,0.2,1.9-0.2,2.6-0.9c0.7-0.7,1.1-1.6,1.3-2.6c0.2-0.6,0.3-1.3,0.3-2
			c0.1-1,0-1.9-0.2-2.8c-0.2-1.2-0.7-2.4-0.9-3.6c0-0.1,0-0.2,0-0.2c-0.2-1.1-0.2-2.4,0.2-3.4c0.5-1,1.5-1.8,2.5-1.8
			c0.1,0,0.3,0,0.4,0"/>
		<path id="XMLID_255_" class="st5" d="M68.4,313.7c0.1,0,0.2,0,0.3,0c2.2,0.3,4.5-0.8,5.7-2.6c0.9-1.4,1.1-3.1,0.8-4.7
			c-0.1-0.7-0.4-1.4-0.8-1.9c-0.7-1.1-1.8-2-2.5-3.2c-0.1-0.2-0.2-0.3-0.3-0.5c-0.6-1.4-0.4-3.2,0.6-4.3c0.9-1.1,2.5-1.7,3.9-1.4
			c0.1,0,0.1,0,0.2,0"/>
		<path id="XMLID_253_" class="st5" d="M81,302.6c2.3-1.3,3.6-4.1,3.1-6.7c-0.2-1-0.6-1.8-1.1-2.7c-0.6-1.1-1.4-2.1-2.2-3
			c-0.5-0.6-0.9-1.3-1.1-1.9c-0.4-1-0.6-2-0.6-3.1c0-0.3,0-0.5,0-0.8"/>
		<path id="XMLID_251_" class="st5" d="M83.3,293.1c1.7-0.2,2.7-2.4,2.2-4.1c-0.3-1.1-0.9-2.1-1.7-2.9c-0.4-0.5-0.9-0.9-1.4-1.3
			c-1.3-1.1-2.7-2.3-3.4-3.9c0-0.1-0.1-0.2-0.1-0.2c-0.6-1.6-0.2-3.7,1.3-4.4"/>
		<path id="XMLID_250_" class="st5" d="M79,280.1c0,0.2,0,0.4,0,0.6c0,1.5,0.1,3,0.1,4.5c0,0.4,0,0.7,0,1.1"/>
		<path id="XMLID_249_" class="st5" d="M84,286c0.5-1.3,1-2.5,1.2-3.9c0.2-1.2,0-2.5-0.6-3.5c-0.1-0.1-0.1-0.2-0.2-0.3
			c-0.9-1.1-2.3-1.6-3.5-2.4c-0.2-0.1-0.3-0.2-0.5-0.4c-2.2-1.8-2.8-5.3-1.4-7.7"/>
		<path id="XMLID_248_" class="st5" d="M85.2,278.4c1-1.3,1.3-3.1,0.7-4.7c-0.4-1-1-1.8-1.8-2.5c-0.6-0.6-1.3-1.1-2-1.5
			c-1-0.7-2.1-1.3-3-2.1c-0.5-0.4-0.9-0.9-1.3-1.4c-1.1-1.6-1.3-3.9,0-5.2"/>
		<path id="XMLID_247_" class="st5" d="M84.1,271.3C84.1,271.2,84.1,271.2,84.1,271.3c1.1-1,1.6-2.4,1.6-3.7c0-1.4-0.7-2.7-1.8-3.6
			c0,0,0,0,0,0c-1-0.7-2.2-1.1-3.2-1.7c-0.8-0.5-1.4-1.2-1.9-2c-1.1-1.9-1.3-4.4-0.2-6.3"/>
		<path id="XMLID_246_" class="st5" d="M83.9,263.9c0.9-1.3,1.8-2.7,1.8-4.2c0-1.5-0.9-2.9-2.1-3.9c-0.3-0.3-0.7-0.6-1.1-0.8
			c-1-0.7-2.1-1.2-3.2-1.8c-0.6-0.4-1.2-0.8-1.7-1.3c-1.4-1.4-2.9-6.6-1.9-8.3c0,0,0,0,0,0"/>
		<path id="XMLID_245_" class="st5" d="M83.5,255.9c0,0,0.1-0.1,0.1-0.1c1.4-1.7,0.7-6.2-0.6-8c-0.8-1.1-2.1-1.8-3.4-2.3
			c-0.2-0.1-0.4-0.2-0.5-0.2c-1.2-0.5-2.4-0.9-3.4-1.7c-0.2-0.2-0.5-0.4-0.7-0.6c-1.1-1.1-2.5-7.3-1.7-8.7"/>
		<path id="XMLID_244_" class="st5" d="M80.8,245.5c1.8-0.6,2.3-3.1,1.6-4.8c-0.6-1.3-1.7-2.2-2.9-3c-0.4-0.2-0.8-0.5-1.3-0.7
			c-1.7-0.8-3.5-1.4-4.9-2.7c-1.4-1.2-3.6-6-3-7.8"/>
		<path id="XMLID_243_" class="st5" d="M79.7,237.4c0.5-1.6,1-3.1,1-4.8c0-1.6-0.4-3.4-1.6-4.5c-0.4-0.4-0.9-0.7-1.4-0.9
			c-1.2-0.5-2.6-0.7-3.9-0.6c-1.2,0-2.3,0.1-3.5,0c-0.7-0.1-1.4-0.2-2.1-0.5c-1.7-0.7-3.1-2.6-2.6-4.3c0-0.1,0-0.1,0.1-0.2"/>
		<path id="XMLID_242_" class="st5" d="M79.4,288.4c-1.4,0.2-2.7,1.2-3.4,2.6c-0.6,1.3-0.6,2.9,0,4.2c0,0.1,0,0.1,0.1,0.1
			c0.8,1.4,2.2,2.3,3,3.7c0.6,1,0.8,2.3,0.6,3.4c-0.1,0.5-0.2,1-0.5,1.4c-0.8,1.5-2.4,2.5-4,2.6"/>
		<path id="XMLID_241_" class="st5" d="M65.5,221.9c0-0.1,0-0.2,0-0.2c0.4-1.6,2-2.7,3.7-2.7c1.7,0,3.3,0.9,4.6,2.1
			c1.8,1.6,3.2,3.7,4,5.9"/>
	</g>
</g>
<g id="XMLID_789_">
	<g id="XMLID_892_">
		<path id="XMLID_964_" class="st3" d="M100.1,19.2c-1.4-1.2-3-2.5-3.7-4.2c0-0.1-0.1-0.2-0.1-0.3c-0.6-1.7-0.2-4,1.4-4.8l0.7-0.5
			c1.3,0.9,2.8,1.4,3.8,2.6c0.1,0.1,0.2,0.2,0.2,0.4c0.7,1.1,0.9,2.5,0.7,3.8c-0.2,1.5-0.7,2.8-1.3,4.2l-0.2,0.2
			C101.1,20,100.6,19.6,100.1,19.2z"/>
		<path id="XMLID_963_" class="st3" d="M102.1,12c-1-1.2-2.5-1.8-3.8-2.6c-0.2-0.1-0.4-0.3-0.5-0.4c-2.4-1.9-3.1-5.7-1.5-8.4l0-0.3
			c1.8-0.2,3.6,0.4,5,1.6c1.5,1.2,2.3,3.1,2.3,5.1l0.2,0.1c0.6,1.7,0.3,3.7-0.8,5.1l-0.7,0.2C102.3,12.2,102.2,12.1,102.1,12z"/>
		<path id="XMLID_962_" class="st3" d="M96.4,14.9c0.8,1.8,2.3,3,3.7,4.2c0.5,0.4,1,0.9,1.5,1.4c0.9,0.9,1.6,1.9,1.9,3.1
			c0.4,1.9-0.6,4.2-2.4,4.4l-0.3,0.1c-0.7-1.2-1.6-2.2-2.4-3.3c-0.5-0.7-0.9-1.4-1.2-2.1c-0.4-1-0.7-2.1-0.7-3.3h-0.1
			c0-1.6-0.1-3.2-0.1-4.8C96.3,14.7,96.4,14.8,96.4,14.9z"/>
		<path id="XMLID_961_" class="st3" d="M97,38.5c0.3-1.4,0.1-2.9-0.6-4.1c-0.9-1.5-2.4-2.5-3.2-4c0-0.1-0.1-0.1-0.1-0.2
			c-0.7-1.4-0.7-3.1,0-4.5c0.7-1.5,2.1-2.5,3.6-2.8l0.3-0.1c0.3,0.7,0.7,1.4,1.2,2.1c0.8,1.1,1.7,2.1,2.4,3.3c0.5,0.9,1,1.8,1.2,2.9
			c0.5,2.3-0.4,4.9-2.2,6.4C98.8,37.9,97.9,38.2,97,38.5z"/>
		<path id="XMLID_960_" class="st3" d="M97,38.5c-0.1,0.4-0.3,0.8-0.4,1.2c-0.9,1.6-2.6,2.7-4.4,2.8l-0.1,0
			c-0.2-0.7-0.4-1.5-0.8-2.1c-0.6-1-1.5-1.8-2.2-2.7c-0.3-0.4-0.6-0.8-0.8-1.3c-0.6-1.5-0.4-3.4,0.7-4.7c1-1.2,2.7-1.8,4.2-1.5
			c0,0.1,0.1,0.1,0.1,0.2c0.8,1.5,2.4,2.5,3.2,4C97.2,35.7,97.4,37.2,97,38.5z"/>
		<path id="XMLID_959_" class="st3" d="M92.1,42.6c0.4,1.7,0.1,3.6-0.9,5.1c-1.3,2-3.8,3.2-6.1,2.9c0.1-1,0-2.1-0.2-3.1
			c-0.3-1.3-0.7-2.6-1-3.9c0-0.1,0-0.2,0-0.3c-0.3-1.2-0.3-2.6,0.3-3.7c0.6-1.2,1.9-2.1,3.2-1.9l1.8,0.1c0.7,0.9,1.6,1.7,2.2,2.7
			C91.7,41.1,92,41.8,92.1,42.6z"/>
		<path id="XMLID_958_" class="st3" d="M83.9,43.5c0.3,1.3,0.8,2.6,1,3.9c0.2,1,0.3,2.1,0.2,3.1c0,0.7-0.2,1.4-0.3,2.2
			c-0.3,1-0.7,2-1.4,2.8c-0.7,0.8-1.8,1.2-2.8,1l-0.5,0c-0.1-1.7-0.6-3.4-1.6-4.8c-0.7-1-1.6-1.8-2.1-2.8c-0.2-0.5-0.4-1-0.4-1.5
			c-0.1-1.7,1.3-3.2,2.8-3.8c1.6-0.6,3.3-0.4,4.9-0.3l0.2,0C83.9,43.4,83.9,43.4,83.9,43.5z"/>
		<path id="XMLID_957_" class="st3" d="M78.3,61.8c-0.6,0.5-1.5,0.6-2.2,0.2l0,0c-0.4-1.8-1.2-3.6-2.3-5c-0.7-0.8-1.5-1.6-2-2.5
			c-0.5-0.8-0.8-1.6-0.6-2.5c0.2-1,1-1.8,1.9-2.3c0.9-0.5,1.9-0.6,2.9-0.8l0.4-0.1c0.5,1,1.5,1.9,2.1,2.8c1,1.4,1.5,3.1,1.6,4.8
			c0.1,1.2-0.1,2.4-0.5,3.5C79.3,60.6,78.9,61.3,78.3,61.8z"/>
		<path id="XMLID_956_" class="st3" d="M76.1,62.1c0.2,1.1,0.3,2.3,0.2,3.4c-0.2,1.7-0.9,3.5-2.4,4.1c-0.1-0.3-0.3-0.6-0.4-0.8
			c-1.1-1.8-3.3-2.7-4.6-4.4c-1.3-1.6-1.6-4-0.9-6c0.6-1.7,2.1-3.1,3.8-3.7c0.5,0.9,1.3,1.7,2,2.5C74.9,58.5,75.7,60.2,76.1,62.1z"
			/>
		<path id="XMLID_955_" class="st3" d="M70.9,198.8c1.6,1.5,2.5,4.2,1.2,6.1l-0.4,0.3c-0.5-0.8-1.1-1.4-1.9-1.9
			c-1.2-0.8-2.6-1.2-3.9-1.8c-1.3-0.6-2.6-1.4-3.2-2.7c-0.6-1.3-0.4-3.1,0.8-3.8c0.5,0.3,1.1,0.5,1.6,0.7c1.3,0.5,2.6,1,3.8,1.6
			C69.6,197.7,70.3,198.2,70.9,198.8z"/>
		<path id="XMLID_954_" class="st3" d="M72.9,208.4c0.2,2.1-0.5,4.2-1.9,5.7l-0.7,0.4c-0.3-0.3-0.5-0.5-0.8-0.7
			c-1.1-0.9-2.2-1.7-3.2-2.7c-0.3-0.3-0.6-0.6-0.8-1c-0.6-0.8-0.9-1.8-0.9-2.8c0-1.4-0.1-5.6,1.3-5.7c1.3,0.6,2.7,1,3.9,1.8
			c0.7,0.5,1.4,1.2,1.9,1.9C72.3,206.1,72.8,207.2,72.9,208.4z"/>
		<path id="XMLID_953_" class="st3" d="M69.9,182.8c0.2,2.2-0.9,4.4-2.7,5.6l-0.2,0.2c-1.6-1.4-3.4-2.4-5-3.8
			c-0.1-0.1-0.2-0.2-0.4-0.3c-1.9-1.7-3.5-4.1-3.1-6.6l0.1-0.9c0.7,0.1,1.5,0.1,2.2,0.1c1.5,0,3.1-0.1,4.6,0.3
			c0.3,0.1,0.6,0.2,0.9,0.3C68.3,178.6,69.7,180.7,69.9,182.8z"/>
		<path id="XMLID_952_" class="st3" d="M73.9,69.5c0.6,1.5,0.5,3.2-0.3,4.6c-0.9,1.6-2.6,2.6-4.3,2.6c-0.2-1.1-0.6-2.1-1.3-3
			c-0.9-1.3-2.2-2.3-2.8-3.7c-0.2-0.4-0.4-0.9-0.4-1.4c-0.2-2,1.5-3.9,3.4-3.9l0.8-0.6c1.3,1.7,3.4,2.6,4.6,4.4
			C73.6,68.9,73.7,69.2,73.9,69.5z"/>
		<path id="XMLID_951_" class="st3" d="M67.5,173.7c0.2,1.3-0.2,2.7-1.1,3.7l-1,0.1c-1.5-0.4-3-0.3-4.6-0.3c-0.7,0-1.4,0-2.2-0.1
			c-1.2-0.1-2.3-0.4-3.2-1.1c-1.5-1.1-2.3-5.3-1.2-6.8c0.9,0.7,2,1,3.1,1.1c1.3,0.1,2.7-0.2,4-0.3c1-0.1,2-0.1,2.9,0.2
			c0.4,0.1,0.7,0.2,1.1,0.4C66.5,171.2,67.3,172.4,67.5,173.7z"/>
		<path id="XMLID_950_" class="st3" d="M66.4,211c1,1,2.1,1.8,3.2,2.7c0.3,0.2,0.5,0.5,0.8,0.7c0.7,0.8,1.4,1.6,1.7,2.7
			c0.5,1.8,2.2,6.9,0.8,8l0,0c-2.7-1.2-5.1-2.9-7.1-5.1l0,0c-0.7-0.7-1.2-1.7-1.3-2.7c-0.1-1.8-0.3-5.9,0.9-7.2l0.2-0.1
			C65.8,210.4,66.1,210.7,66.4,211z"/>
		<path id="XMLID_949_" class="st3" d="M69.3,76.8c0.6,2.9-0.4,6.2-2.6,8.1c-0.1-0.4-0.2-0.7-0.3-1c-0.9-2.3-2.4-4.4-3.2-6.7
			c-0.1-0.3-0.2-0.5-0.2-0.8c-0.5-2.2-0.2-4.7,1.5-6l0.7-0.1c0.7,1.3,2,2.4,2.8,3.7C68.6,74.7,69,75.7,69.3,76.8z"/>
		<path id="XMLID_948_" class="st3" d="M54.3,169.2c-0.2-0.2-0.4-0.3-0.6-0.5c-0.9-1.1-1-6.4,0.1-7.3c1.8,0.8,3.8,0.4,5.8,0.3
			c0.9-0.1,1.8-0.1,2.7,0.1c1.1,0.2,2,0.6,2.7,1.5c0.7,0.9,0.9,2.2,0.8,3.4c-0.1,1.2-0.6,2.3-1,3.4l-0.4,0.1
			c-0.9-0.3-1.9-0.3-2.9-0.2c-1.3,0.1-2.7,0.4-4,0.3C56.3,170.2,55.1,169.9,54.3,169.2z"/>
		<path id="XMLID_947_" class="st3" d="M57.2,99c-0.3-0.6-0.5-1.2-0.7-1.8c-0.4-1.7,0.6-5.6,2-6.6c0.4,0.4,0.8,0.8,1.2,1.1
			c1,0.8,2.1,1.5,2.9,2.5c0.6,0.7,1.1,1.5,1.4,2.4c0.4,1.1,0.6,2.2,0.5,3.3c-0.2,2.1-1.2,4-2.8,5.3l-0.3,0.1
			c-0.6-1.2-1.5-2.3-2.3-3.4C58.5,101,57.7,100.1,57.2,99z"/>
		<path id="XMLID_946_" class="st3" d="M66.7,84.8c0.5,2.1,0.4,4.5-1.2,6l0,0c-0.5-0.9-1.3-1.6-2-2.3c-1.2-1.1-2.4-2.1-3.2-3.5
			c-0.5-0.9-0.7-1.9-0.7-2.9c0-2.4,1.3-4.7,3.4-5.8l0,0c0.1,0.3,0.1,0.5,0.2,0.8c0.8,2.4,2.3,4.4,3.2,6.7
			C66.5,84.2,66.6,84.5,66.7,84.8z"/>
		<path id="XMLID_945_" class="st3" d="M68.3,189.8c1.8,2,2.8,5.1,1.4,7.4l-0.8,0.2c-1.2-0.6-2.6-1.1-3.8-1.6
			c-0.5-0.2-1.1-0.4-1.6-0.7c-1.5-0.7-2.8-1.7-3.6-3.2c-1.2-2.2-0.6-5.2,1.3-6.8l0.6-0.5c0.1,0.1,0.2,0.2,0.4,0.3
			c1.6,1.3,3.5,2.4,5,3.8C67.5,189,67.9,189.4,68.3,189.8z"/>
		<path id="XMLID_944_" class="st3" d="M58.3,118.5c0.8,0.5,1.5,1.1,2,1.8c1,1.4,1.2,3.6-0.1,4.7l-1.2,0.3c-0.8-0.6-1.7-1-2.6-1.3
			c-1.4-0.5-2.9-1.1-4-2.2c-1.6-1.7-0.7-5.1,0.8-6.9c0.8,1,1.9,1.7,3,2.4C56.9,117.6,57.6,118,58.3,118.5z"/>
		<path id="XMLID_943_" class="st3" d="M59.9,113.3c-0.5-0.9-1.2-1.8-2-2.5c-0.9-1-1.9-1.9-2.6-3c-0.1-0.2-0.2-0.4-0.3-0.7
			c-1-2.4,0.8-5.9,2.2-8c0.5,1,1.2,2,2,2.9c0.8,1.1,1.7,2.1,2.3,3.4c0.2,0.4,0.4,0.8,0.5,1.3C62.6,108.9,61.8,111.6,59.9,113.3
			L59.9,113.3z"/>
		<path id="XMLID_942_" class="st3" d="M53.2,114.9c-0.3-0.4-0.5-0.7-0.6-1.2c-0.7-1.8,0.8-4.9,2.5-5.8l0.3-0.2
			c0.7,1.2,1.7,2.1,2.6,3c0.7,0.8,1.5,1.6,2,2.5c0.2,0.5,0.4,1,0.5,1.5c0.3,1.5-0.6,3.4-2.1,3.6c-0.7-0.4-1.4-0.8-2.1-1.2
			C55.1,116.6,53.9,115.9,53.2,114.9z"/>
		<path id="XMLID_941_" class="st3" d="M60.2,126.5c0.8,1.3,0.2,4.5-1.2,5.3c-1.3-1.1-3-1.5-4.6-1.9c-1-0.3-2.1-0.6-2.9-1.1
			c-0.5-0.3-1-0.7-1.4-1.2c-1-1.4,0.8-5.2,2.4-5.7c1.1,1.1,2.6,1.6,4,2.2c0.9,0.3,1.8,0.7,2.6,1.3C59.5,125.6,59.9,126,60.2,126.5z"
			/>
		<path id="XMLID_940_" class="st3" d="M59.3,82.1l0.2,0c0,1,0.2,2,0.7,2.9c0.8,1.4,2,2.4,3.2,3.5c0.8,0.7,1.5,1.5,2,2.3
			c0.3,0.5,0.5,1,0.7,1.5c0.4,1.5-0.1,3.5-1.5,4.1l-0.5,0.1c-0.3-0.9-0.8-1.7-1.4-2.4c-0.9-1-1.9-1.7-2.9-2.5
			c-0.4-0.3-0.8-0.7-1.2-1.1c-0.5-0.6-0.9-1.2-1.2-1.9c-0.4-1.2-0.1-2.8,0.9-3.5l0.1-0.3C58.7,83.9,59,83,59.3,82.1z"/>
		<path id="XMLID_939_" class="st3" d="M52,154.2l0.5-0.6c0.1,0.1,0.1,0.1,0.2,0.2c1.3,0.9,2.9,1.1,4.4,1.3c0.7,0.1,1.3,0.2,2,0.4
			c0.9,0.2,1.7,0.5,2.4,1.1c1.2,1,1.8,2.9,0.9,4.2l-0.2,0.9c-0.9-0.2-1.8-0.1-2.7-0.1c-1.9,0.2-4,0.6-5.8-0.3
			c-1.2-0.6-2.2-1.8-2.6-3.2C50.9,156.8,51.2,155.3,52,154.2z"/>
		<path id="XMLID_938_" class="st3" d="M52.5,153.6c-1.9-1.7-2.1-6.3-0.6-8.3l0.1-0.1c0.2,0.3,0.4,0.5,0.7,0.7c1.4,1,3.4,1.3,5,1.9
			c1,0.4,1.9,0.9,2.5,1.7c1.2,1.7,0.8,4.4-1,5.6l-0.1,0.4c-0.7-0.2-1.3-0.3-2-0.4c-1.5-0.2-3.1-0.4-4.4-1.3
			C52.6,153.8,52.6,153.7,52.5,153.6z"/>
		<path id="XMLID_937_" class="st3" d="M52.1,136.3l0.1-0.1c1,0.7,2.1,1.2,3.1,1.6c0.9,0.4,1.8,0.8,2.6,1.4c0.8,0.5,1.5,1.2,2.1,2
			c1.2,2,0.9,4.9-0.8,6.5l-1.5,0.1c-1.7-0.6-3.6-0.9-5-1.9c-0.3-0.2-0.5-0.4-0.7-0.7C50.3,143.1,50.5,138.3,52.1,136.3z"/>
		<path id="XMLID_936_" class="st3" d="M51.1,129.3l0.3-0.5c0.9,0.5,1.9,0.9,2.9,1.1c1.6,0.4,3.4,0.7,4.6,1.9
			c2.1,1.8,2.1,5.5,0.1,7.4l-1.2,0c-0.8-0.5-1.7-1-2.6-1.4c-1.1-0.5-2.2-1-3.1-1.6c-0.6-0.4-1.2-1-1.7-1.6
			C49.4,133,49.4,130.3,51.1,129.3z"/>
	</g>
	<g id="XMLID_893_">
		<path id="XMLID_935_" class="st6" d="M66.5,220.7c-0.3-0.2-0.5-0.4-0.8-0.7c-0.7-0.7-1.2-1.7-1.3-2.7c-0.1-1.8-0.3-5.9,0.9-7.2"/>
		<path id="XMLID_934_" class="st6" d="M72.8,225.2c1.5-1.2-0.2-6.2-0.8-8c-0.3-1-0.9-1.9-1.7-2.7c-0.3-0.3-0.5-0.5-0.8-0.7
			c-1.1-0.9-2.2-1.7-3.2-2.7c-0.3-0.3-0.6-0.6-0.8-1c-0.6-0.8-0.9-1.8-0.9-2.8c0-1.4-0.1-5.6,1.3-5.7"/>
		<path id="XMLID_933_" class="st6" d="M71,214.1c1.4-1.5,2.1-3.7,1.9-5.7c-0.1-1.2-0.6-2.3-1.2-3.2c-0.5-0.8-1.1-1.4-1.9-1.9
			c-1.2-0.8-2.6-1.2-3.9-1.8c-1.3-0.6-2.6-1.4-3.2-2.7c-0.6-1.3-0.4-3.1,0.8-3.8c0,0,0,0,0.1,0"/>
		<path id="XMLID_932_" class="st6" d="M72.1,204.9c1.3-1.8,0.4-4.6-1.2-6.1c-0.6-0.6-1.3-1-2-1.4c-1.2-0.6-2.6-1.1-3.8-1.6
			c-0.5-0.2-1.1-0.4-1.6-0.7c-1.5-0.7-2.8-1.7-3.6-3.2c-1.2-2.2-0.6-5.2,1.3-6.8"/>
		<path id="XMLID_931_" class="st6" d="M69.7,197.2c1.4-2.3,0.4-5.4-1.4-7.4c-0.4-0.4-0.8-0.8-1.2-1.2c-1.6-1.4-3.4-2.4-5-3.8
			c-0.1-0.1-0.2-0.2-0.4-0.3c-1.9-1.7-3.5-4.1-3.1-6.6"/>
		<path id="XMLID_930_" class="st6" d="M67.2,188.5c1.8-1.2,2.9-3.4,2.7-5.6c-0.2-2.2-1.6-4.2-3.6-5.1c-0.3-0.1-0.6-0.2-0.9-0.3
			c-1.5-0.4-3-0.3-4.6-0.3c-0.7,0-1.4,0-2.2-0.1c-1.2-0.1-2.3-0.4-3.2-1.1c-1.5-1.1-2.3-5.3-1.2-6.8c0,0,0-0.1,0.1-0.1"/>
		<path id="XMLID_929_" class="st6" d="M66.5,177.4c0.9-1,1.3-2.4,1.1-3.7c-0.2-1.3-1-2.5-2.2-3.2c-0.3-0.2-0.7-0.3-1.1-0.4
			c-0.9-0.3-1.9-0.3-2.9-0.2c-1.3,0.1-2.7,0.4-4,0.3c-1.1-0.1-2.2-0.4-3.1-1.1c-0.2-0.2-0.4-0.3-0.6-0.5c-0.9-1.1-1-6.4,0.1-7.3"/>
		<path id="XMLID_928_" class="st6" d="M64.7,170c0.4-1.1,0.9-2.2,1-3.4c0.1-1.2-0.1-2.5-0.8-3.4c-0.7-0.9-1.6-1.3-2.7-1.5
			c-0.9-0.2-1.8-0.1-2.7-0.1c-1.9,0.2-4,0.6-5.8-0.3c-1.2-0.6-2.2-1.8-2.6-3.2c-0.3-1.4,0-2.9,0.8-4"/>
		<path id="XMLID_927_" class="st6" d="M62.4,160.8c1-1.3,0.3-3.2-0.9-4.2c-0.7-0.6-1.5-0.9-2.4-1.1c-0.7-0.2-1.3-0.3-2-0.4
			c-1.5-0.2-3.1-0.4-4.4-1.3c-0.1-0.1-0.1-0.1-0.2-0.2c-1.9-1.7-2.1-6.3-0.6-8.3"/>
		<path id="XMLID_926_" class="st6" d="M59.2,155.1c1.7-1.1,2.2-3.9,1-5.6c-0.6-0.9-1.5-1.3-2.5-1.7c-1.7-0.6-3.6-0.9-5-1.9
			c-0.3-0.2-0.5-0.4-0.7-0.7c-1.6-2.2-1.4-6.9,0.2-9"/>
		<path id="XMLID_925_" class="st6" d="M59.2,147.7c1.7-1.6,2-4.5,0.8-6.5c-0.5-0.8-1.2-1.5-2.1-2c-0.8-0.5-1.7-1-2.6-1.4
			c-1.1-0.5-2.2-1-3.1-1.6c-0.6-0.4-1.2-1-1.7-1.6c-1.1-1.6-1.1-4.3,0.6-5.3"/>
		<path id="XMLID_923_" class="st6" d="M59.1,139.1c2-1.9,2-5.6-0.1-7.4c-1.3-1.1-3-1.5-4.6-1.9c-1-0.3-2.1-0.6-2.9-1.1
			c-0.5-0.3-1-0.7-1.4-1.2c-1-1.4,0.8-5.2,2.4-5.7"/>
		<path id="XMLID_922_" class="st6" d="M59,131.8c1.3-0.7,2-4,1.2-5.3c-0.3-0.5-0.7-0.9-1.2-1.2c-0.8-0.6-1.7-1-2.6-1.3
			c-1.4-0.5-2.9-1.1-4-2.2c-1.6-1.7-0.7-5.1,0.8-6.9c0,0,0,0,0,0"/>
		<path id="XMLID_921_" class="st6" d="M60.2,125c1.3-1.1,1.2-3.3,0.1-4.7c-0.5-0.7-1.2-1.3-2-1.8c-0.7-0.4-1.4-0.8-2.1-1.2
			c-1.1-0.6-2.2-1.4-3-2.4c-0.3-0.4-0.5-0.7-0.6-1.2c-0.7-1.8,0.8-4.9,2.5-5.8"/>
		<path id="XMLID_920_" class="st6" d="M58.2,118.5C58.2,118.5,58.3,118.5,58.2,118.5c1.6-0.3,2.5-2.1,2.2-3.7
			c-0.1-0.5-0.3-1-0.5-1.5c-0.5-0.9-1.2-1.8-2-2.5c-0.9-1-1.9-1.9-2.6-3c-0.1-0.2-0.2-0.4-0.3-0.7c-1-2.4,0.8-5.9,2.2-8
			c0,0,0-0.1,0.1-0.1"/>
		<path id="XMLID_919_" class="st6" d="M60,113.2c1.8-1.6,2.7-4.3,2-6.7c-0.1-0.4-0.3-0.9-0.5-1.3c-0.6-1.2-1.5-2.3-2.3-3.4
			c-0.7-0.9-1.4-1.9-2-2.9c-0.3-0.6-0.5-1.2-0.7-1.8c-0.4-1.7,0.6-5.6,2-6.6c0.1-0.1,0.2-0.1,0.3-0.2"/>
		<path id="XMLID_918_" class="st6" d="M61.8,105.1c1.6-1.3,2.6-3.2,2.8-5.3c0.1-1.1-0.1-2.3-0.5-3.3c-0.3-0.9-0.8-1.7-1.4-2.4
			c-0.9-1-1.9-1.7-2.9-2.5c-0.4-0.3-0.8-0.7-1.2-1.1c-0.5-0.6-0.9-1.2-1.2-1.9c-0.4-1.2-0.1-2.8,0.9-3.5"/>
		<path id="XMLID_917_" class="st6" d="M64.6,96.4c1.4-0.6,2-2.6,1.5-4.1c-0.1-0.5-0.4-1-0.7-1.5c-0.5-0.9-1.3-1.6-2-2.3
			c-1.2-1.1-2.4-2.1-3.2-3.5c-0.5-0.9-0.7-1.9-0.7-2.9c0-2.4,1.3-4.7,3.4-5.8"/>
		<path id="XMLID_916_" class="st6" d="M59.3,82.1c-0.3,0.9-0.6,1.8-0.9,2.8"/>
		<path id="XMLID_915_" class="st6" d="M65.5,90.8c1.6-1.4,1.8-3.8,1.2-6c-0.1-0.4-0.2-0.7-0.3-1c-0.9-2.3-2.4-4.4-3.2-6.7
			c-0.1-0.3-0.2-0.5-0.2-0.8c-0.5-2.2-0.2-4.7,1.5-6"/>
		<path id="XMLID_914_" class="st6" d="M66.6,85c0,0,0.1-0.1,0.1-0.1c2.2-1.9,3.2-5.2,2.6-8.1c-0.2-1.1-0.6-2.1-1.3-3
			c-0.9-1.3-2.2-2.3-2.8-3.7c-0.2-0.4-0.4-0.9-0.4-1.4c-0.2-2,1.5-3.9,3.4-3.9c0.1,0,0.1,0,0.2,0"/>
		<path id="XMLID_913_" class="st6" d="M69,76.8c0.1,0,0.2,0,0.3,0c1.8,0,3.5-1.1,4.3-2.6c0.8-1.4,0.8-3.2,0.3-4.6
			c-0.1-0.3-0.3-0.6-0.4-0.8c-1.1-1.8-3.3-2.7-4.6-4.4c-1.3-1.6-1.6-4-0.9-6c0.6-1.7,2.1-3.1,3.8-3.7c0.2-0.1,0.5-0.1,0.7-0.2"/>
		<path id="XMLID_912_" class="st6" d="M73.5,69.6c0.1,0,0.3-0.1,0.4-0.1c1.5-0.6,2.2-2.4,2.4-4.1c0.1-1.1,0-2.3-0.2-3.4
			c-0.4-1.8-1.2-3.6-2.3-5c-0.7-0.8-1.5-1.6-2-2.5c-0.5-0.8-0.8-1.6-0.6-2.5c0.2-1,1-1.8,1.9-2.3c0.9-0.5,1.9-0.6,2.9-0.8"/>
		<path id="XMLID_911_" class="st6" d="M76.1,62.1c0.7,0.4,1.5,0.2,2.2-0.2c0.6-0.5,1-1.2,1.3-1.9c0.4-1.1,0.6-2.3,0.5-3.5
			c-0.1-1.7-0.6-3.4-1.6-4.8c-0.7-1-1.6-1.8-2.1-2.8c-0.2-0.5-0.4-1-0.4-1.5c-0.1-1.7,1.3-3.2,2.8-3.8c1.6-0.6,3.3-0.4,4.9-0.3"/>
		<path id="XMLID_910_" class="st6" d="M80.6,56.4c1,0.2,2.1-0.2,2.8-1c0.7-0.7,1.2-1.8,1.4-2.8c0.2-0.7,0.3-1.4,0.3-2.2
			c0.1-1,0-2.1-0.2-3.1c-0.3-1.3-0.7-2.6-1-3.9c0-0.1,0-0.2,0-0.3c-0.3-1.2-0.3-2.6,0.3-3.7c0.6-1.2,1.9-2.1,3.2-1.9"/>
		<path id="XMLID_909_" class="st6" d="M84.9,50.5c0.1,0,0.2,0,0.3,0c2.3,0.3,4.8-0.8,6.1-2.9c0.9-1.5,1.2-3.3,0.9-5.1
			c-0.2-0.7-0.4-1.5-0.8-2.1c-0.6-1-1.5-1.8-2.2-2.7c-0.3-0.4-0.6-0.8-0.8-1.3c-0.6-1.5-0.4-3.4,0.7-4.7c1-1.2,2.7-1.8,4.2-1.5
			c0.1,0,0.1,0,0.2,0"/>
		<path id="XMLID_908_" class="st6" d="M98.5,38.3c0.4-0.2,0.8-0.5,1.1-0.8c1.7-1.6,2.6-4.1,2.2-6.4c-0.2-1-0.6-2-1.2-2.9
			c-0.7-1.2-1.6-2.2-2.4-3.3c-0.5-0.7-0.9-1.4-1.2-2.1c-0.4-1-0.7-2.1-0.7-3.3c0-0.3,0-0.6,0-0.9"/>
		<path id="XMLID_907_" class="st6" d="M101,28.1c1.9-0.2,2.9-2.6,2.4-4.4c-0.3-1.2-1-2.2-1.9-3.1c-0.5-0.5-1-1-1.5-1.4
			c-1.4-1.2-3-2.5-3.7-4.2c0-0.1-0.1-0.2-0.1-0.3c-0.6-1.7-0.2-4,1.4-4.8"/>
		<path id="XMLID_906_" class="st6" d="M96.3,14c0,0.2,0,0.4,0,0.6c0,1.6,0.1,3.2,0.1,4.8c0,0.4,0,0.8,0,1.2"/>
		<path id="XMLID_905_" class="st6" d="M101.8,20.3c0.6-1.4,1.1-2.7,1.3-4.2c0.2-1.3,0-2.7-0.7-3.8c-0.1-0.1-0.2-0.2-0.2-0.4
			c-1-1.2-2.5-1.8-3.8-2.6c-0.2-0.1-0.4-0.3-0.5-0.4c-2.4-1.9-3.1-5.7-1.5-8.4"/>
		<path id="XMLID_904_" class="st6" d="M103.1,12.1c1.1-1.4,1.4-3.4,0.8-5.1"/>
		<path id="XMLID_903_" class="st6" d="M96.8,22.9c-1.6,0.3-3,1.3-3.6,2.8c-0.7,1.4-0.6,3.1,0,4.5c0,0.1,0.1,0.1,0.1,0.2
			c0.8,1.5,2.4,2.5,3.2,4c0.7,1.2,0.9,2.7,0.6,4.1c-0.1,0.4-0.3,0.8-0.4,1.2c-0.9,1.6-2.6,2.7-4.4,2.8"/>
		<path id="XMLID_902_" class="st7" d="M65.4,219.8c0.1,0.1,0.2,0.2,0.3,0.3c2,2.1,4.4,3.9,7.1,5.1c0.1,0.1,0.3,0.1,0.4,0.2"/>
		<path id="XMLID_895_" class="st7" d="M99.7,37.5c-0.9,0.3-1.8,0.7-2.6,1c-0.2,0.1-0.3,0.1-0.5,0.2"/>
		<path id="XMLID_894_" class="st7" d="M95.9,0.3c0.1,0,0.3,0,0.4,0c1.8-0.2,3.6,0.4,5,1.6c1.5,1.2,2.3,3.1,2.3,5.1"/>
	</g>
</g>
</svg>
