<?xml version="1.0" encoding="utf-8"?>
<!-- Generator: Adobe Illustrator 19.0.0, SVG Export Plug-In . SVG Version: 6.00 Build 0)  -->
<svg version="1.1" id="Layer_2" xmlns="http://www.w3.org/2000/svg" xmlns:xlink="http://www.w3.org/1999/xlink" x="0px" y="0px"
	 viewBox="0 0 113.7 395.4" style="enable-background:new 0 0 113.7 395.4;" xml:space="preserve">
<style type="text/css">
	.st0{fill:#1C75BC;}
	.st1{fill:#FFFFFF;}
	.st2{fill:#A7A9AC;}
	.st3{fill:#939598;}
	.st4{fill:#754C29;}
	.st5{fill:#2B3990;}
	.st6{fill:none;stroke:#000000;stroke-miterlimit:10;}
	.st7{fill:#6D6E71;}
	.st8{fill:#58595B;}
	.st9{fill:none;stroke:#000000;stroke-width:5.000000e-002;stroke-miterlimit:10;}
</style>
<g id="XMLID_27_">
	<g id="XMLID_43_">
		<path id="XMLID_368_" class="st0" d="M12.6,102.6c0.6-0.3,1.3-0.6,1.9-0.9c0,0,0,0,0,0l0.1,0.2c3-0.1,6-0.3,9-0.4l0.3,0
			c0-0.1,0-0.1,0-0.2h0.1c1.3,0.4,2.7,0.8,4,1.2h0.1c0,0.1,0,0.2,0,0.3c8.3-0.1,16.1-0.2,24.4-0.3c0,0,0,0,0,0c0.1,0,0.1,0,0.2,0h0
			c0.9-0.2,1.9-0.2,2.8-0.4c0,0,0,0.1,0,0.1c8.6,0,17.3,0.2,25.8,0.2l0.1,0c0,0,0,0,0,0c0.9-0.8,1.9-1.7,2.8-2.5
			c2.7,0.1,5.7-0.1,8.4,0v0.1c0.8,0,1.6,0,2.4,0h0.1v0c0.5,0.5,1.1,1,1.6,1.5l0,0.2c0,2.7,0,5.4,0,8.1h-0.1c-0.1,1-1.2,1.5-2.1,1.5
			c-0.9,0-1.8-0.4-2.7-0.3c-24.5-0.1-50.1,1.1-74.6,1c-0.9-0.5-2-0.4-3-0.2c-1,0.1-2.1,0.4-3.1,0.2c-0.2-2.6,0.1-5.6-0.1-8.2
			c0.5-0.6,0.7-0.7,1.2-1.3h0.1C12.6,102.4,12.6,102.5,12.6,102.6z"/>
		<path id="XMLID_333_" class="st0" d="M94.9,264.9c0.9,1.2,0.7,2.9,0.2,4.7c0,0.2,0,0.3,0,0.5c-24.8,7.2-51.3,7.1-76-0.3l-0.9,0.2
			c-0.6-0.8-0.9-1.8-0.8-2.8c0.1-1.1,0.6-2.2,1.5-2.8l0.3-0.1c24.2,9,50.9,9.4,75.3,1.1L94.9,264.9z"/>
		<path id="XMLID_328_" class="st1" d="M94.4,265.2c-24.4,8.3-51.1,7.9-75.3-1.1l-0.1-0.4c1.8-19,2.7-38.1,2.8-57.2l0.3-0.5
			c0,0-0.1-0.1-0.1-0.1c22.2,5.9,45.5,6.1,67.8,0.7l0.2,0c1.4,19.2,2.9,38.4,4.3,57.6c0.2,0.2,0.4,0.4,0.5,0.6L94.4,265.2z
			 M68.7,259v-32.4c0-3.2-2.3-5.7-5.8-6H48.1c-2.2,0.2-4.5,2.8-4.5,6v31.6c0,1.8,1.3,3.3,3,3.3l19.9,0
			C67.8,261.4,68.7,260.3,68.7,259z"/>
		<path id="XMLID_327_" class="st1" d="M93,82.7c0,2.5,0,5,0,7.4c-2.9-0.1-6.1,0.2-8.9,0.2c0-2.3,0-5.1,0-7.3
			C87,82.8,90,82.8,93,82.7z"/>
		<path id="XMLID_326_" class="st1" d="M23.1,202.2c0.4-10.5,0.7-21,1.1-31.5c20.3,5.2,42,4.4,62.2-1.2c1.1,11.4,2.1,22.7,3.2,34
			l0.2,0c0,0.1,0,0.3,0,0.4l-0.4,0c-21.7,6.1-44.7,5.7-66.2-1.3l-0.9-0.1C22.5,202.4,22.8,202.3,23.1,202.2L23.1,202.2z"/>
		<path id="XMLID_325_" class="st0" d="M84.7,131.7c-0.1,0.7-0.4,1.3-0.9,1.6h0c-19.3,1.5-38.7,1.8-58.1,0.8l-0.3,0
			c-0.6-0.4-1.1-1.1-1.2-2c-0.1-0.9,0.4-1.9,1.1-2.4c19.6,0.1,39.2,0.2,58.8,0.4l0.1-0.1C84.6,130.5,84.8,131.1,84.7,131.7z"/>
		<path id="XMLID_324_" class="st1" d="M84.4,99.9c-0.1,0-0.1,0-0.2,0c0-2-0.2-4.3-0.2-6.3l0-0.1c2.9,0,5.9,0,8.8,0
			c0.1,2,0,4.3,0,6.4c0,0-0.1,0-0.1,0C90.1,99.8,87.1,99.9,84.4,99.9z"/>
		<path id="XMLID_319_" class="st2" d="M93,90.1c0-2.5,0-5,0-7.4c-2.9,0.1-6,0.1-8.9,0.3c0,2.3,0,5.1,0,7.3
			C86.9,90.3,90.1,90,93,90.1z M84.4,99.9c-0.9,0.8-1.9,1.7-2.8,2.5l-0.1-0.2c0-2.9,0.1-5.8,0.1-8.8c0-0.2,0-0.3,0-0.5l-0.1-2.8
			c-0.2-2.8-0.4-5-0.5-7.8l0.4-2.5c0-0.1,0-0.2,0-0.3c4.7-0.1,9.5-0.2,14.2-0.3h0.1c0,3.8-0.1,7.6-0.1,11.4c1,0.8,0.6,3-0.3,4
			c0,1.7,0.1,3.7,0.1,5.4h-0.1c-0.8,0-1.6,0-2.4,0v-0.1c0,0,0.1,0,0.1,0c-0.1-2,0-4.3,0-6.4c-2.9,0-5.9,0-8.8,0l0,0.1
			c0,2,0.2,4.3,0.2,6.3C84.3,99.9,84.3,99.9,84.4,99.9z"/>
		<path id="XMLID_318_" class="st3" d="M83.8,133.3C83.8,133.3,83.8,133.3,83.8,133.3L83.8,133.3L83.8,133.3z"/>
		<path id="XMLID_317_" class="st0" d="M80.9,82.3c0.2,2.8,0.4,5,0.5,7.8c-8.5,0.1-17.3,0.2-25.8,0.3h-0.3c0-0.1,0-0.1,0-0.2
			c-0.1-2.6-0.1-5.4-0.2-8l0.1,0C63.7,82.9,72.4,83.3,80.9,82.3z"/>
		<path id="XMLID_316_" class="st1" d="M78.9,44.6c-2.3,10.7-4.6,21.5-6.9,32.2L71.8,77c-4.2-9-8.4-18-12.6-27
			c-0.8-1.8-2.4-3.6-2.3-5.6c7.1,0.2,14.6-0.1,21.7,0.1L78.9,44.6z"/>
		<path id="XMLID_315_" class="st1" d="M74.1,78.6c1.4-7.7,3.6-15.8,5-23.5c-0.1,7.5-0.3,15.6-0.4,23.2
			C77.1,78.4,75.7,78.4,74.1,78.6z"/>
		<path id="XMLID_312_" class="st2" d="M55.6,79.3c0,0,0.1,0,0.1,0c4.7-0.1,9.3-0.2,14-0.3l0-0.6l2.2-1.3c0-0.1-0.1-0.1-0.1-0.2
			l0.2-0.1c2.3-10.7,4.6-21.5,6.9-32.2c0-0.1,0-0.1,0.1-0.2c0.5,0.3,1.1,0.6,1.6,0.9h0.1c0.1,11,0.6,23.4,0.7,34.4
			c0,0.1,0,0.2,0,0.3l-0.4,2.5c-8.5,0.9-17.2,0.6-25.7-0.1l-0.1,0c0,0,0,0,0-0.1L55.6,79.3z M79.1,55.1c-1.4,7.7-3.6,15.8-5,23.5
			c1.7-0.1,3-0.2,4.7-0.3C78.8,70.7,79,62.6,79.1,55.1z"/>
		<path id="XMLID_311_" class="st1" d="M69.8,78.5l0,0.6c-4.7,0.1-9.3,0.2-14,0.3V79c-0.1-9.2-0.2-18.4-0.2-27.5
			C60.3,60.5,65,69.5,69.8,78.5z"/>
		<rect id="XMLID_310_" x="56.8" y="224.2" class="st3" width="9.6" height="17"/>
		<rect id="XMLID_309_" x="56.8" y="242.3" class="st3" width="9.6" height="17"/>
		<rect id="XMLID_308_" x="55.3" y="144.6" class="st3" width="5.3" height="9.4"/>
		<rect id="XMLID_307_" x="55.3" y="154.5" class="st3" width="5.3" height="9.4"/>
		<path id="XMLID_306_" d="M56.8,1.9c1.5,1.6,2,4.2,1.7,6.4c-0.1,0-0.1,0-0.2,0c-2.7-0.1-5.5,0.3-8.3,0.2c0,0-0.1,0-0.1,0
			c-0.1-1.3-0.3-2.5-0.1-3.8c0.2-1.2,0.7-2.5,1.6-3.3C52.9,0,55.3,0.3,56.8,1.9z"/>
		<path id="XMLID_305_" class="st0" d="M23.2,202.7c21.5,7,44.5,7.4,66.2,1.3l0.4,0c0.1,0.9,0.1,1.8,0.2,2.6l-0.2,0
			c-22.2,5.5-45.6,5.2-67.8-0.7c-0.5-0.6-0.7-1.4-0.5-2.1c0.1-0.5,0.4-0.9,0.8-1.2L23.2,202.7z"/>
		<path id="XMLID_304_" class="st0" d="M81.4,93.4L81.4,93.4c0.1,2.9,0,5.8,0,8.8l0.1,0.2c0,0,0,0,0,0l-0.1,0
			c-8.6,0-17.2-0.2-25.8-0.2c0,0,0-0.1,0-0.1c-0.1-2.7-0.2-5.4-0.3-8.2v0C64.1,93.7,72.6,93.6,81.4,93.4z"/>
		<rect id="XMLID_303_" x="46" y="224.1" class="st3" width="9.6" height="17"/>
		<rect id="XMLID_302_" x="45.9" y="242.1" class="st3" width="9.6" height="17"/>
		<path id="XMLID_301_" class="st2" d="M55.3,90.2L53,90.3c-0.1,0-0.2,0-0.3,0c-0.1-2.7-0.1-5.3-0.2-8l2.6-0.1c0,0,0,0,0,0.1
			C55.2,84.8,55.2,87.6,55.3,90.2z"/>
		<rect id="XMLID_300_" x="49.3" y="144.5" class="st3" width="5.3" height="9.4"/>
		<rect id="XMLID_299_" x="49.3" y="154.5" class="st3" width="5.3" height="9.4"/>
		<path id="XMLID_298_" class="st0" d="M52.7,90.3c-8.2,0.1-16.4,0.2-24.6,0.2c0-2.6,0-5.3,0-7.9v-0.2c1.6,0,3.2,0,4.8,0
			c1.2,0,2.5,0,3.7,0c5.3,0,10.6-0.1,15.9-0.1C52.6,85,52.6,87.6,52.7,90.3z"/>
		<path id="XMLID_297_" class="st3" d="M52.8,102.5c-0.1,0-0.1,0-0.2,0c0,0,0,0,0,0C52.6,102.5,52.7,102.5,52.8,102.5z"/>
		<path id="XMLID_296_" class="st2" d="M55.5,51.5c0.1,9.2,0.2,18.4,0.2,27.5v0.3c0,0-0.1,0-0.1,0l-0.5,2.9l-2.6,0.1
			c-5.3,0-10.6,0.1-15.9,0.1l0-2.4c0.1,0,0.2,0,0.3,0c5.1-0.1,10.1-0.3,15.2-0.4l0.1-0.6c-0.1-9.2-0.2-18.5-0.3-27.8l-0.3-0.2
			c-4.5,9-9.1,18-13.6,27l-2.3-1.4c0-0.1,0-0.2-0.1-0.3l0.2,0c4.2-10.3,8.1-20.6,13.6-30.1c0-0.6,0-1.2,0-1.7
			c2.6-0.1,5.1-0.1,7.7-0.2v0.2c-0.1,2,1.5,3.8,2.3,5.6c4.2,9,8.4,18,12.6,27c0,0.1,0.1,0.1,0.1,0.2l-2.2,1.3
			C65,69.5,60.3,60.5,55.5,51.5z"/>
		<path id="XMLID_295_" class="st0" d="M52.2,93.8c0.1,2.6,0.2,6.1,0.3,8.7c-8.3,0.1-16.1,0.2-24.4,0.3c0-0.1,0-0.2,0-0.3
			c0-2.7-0.3-6.1-0.3-8.8l0.4,0C36.3,93.6,44.3,93.7,52.2,93.8z"/>
		<path id="XMLID_294_" class="st1" d="M51.8,51.3c0.1,9.3,0.2,18.5,0.3,27.8l-0.1,0.6C47,79.7,41.9,79.9,36.9,80v0
			c0.3-0.6,0.6-1.3,1-1.9c4.5-9,9.1-18,13.6-27L51.8,51.3z"/>
		<path id="XMLID_287_" class="st4" d="M49.3,144.5v9.4h5.3v-9.4H49.3z M49.3,154.5v9.4h5.3v-9.4H49.3z M60.6,154.5h-5.3v9.4h5.3
			V154.5z M55.3,154h5.3v-9.4h-5.3V154z M59.4,142.8c1.7,0,3.1,1.5,3.1,3.3v18.4c0,0.8-0.6,1.4-1.3,1.4l-12.2,0
			c-1,0-1.8-0.8-1.8-1.9v-18c0-1.8,1.4-3.3,3.1-3.3H59.4z"/>
		<path id="XMLID_286_" d="M62.1,367.3c-0.1-1.4-1.2-2.7-2.5-2.8c-1.4-0.2-2.7,0.9-3.1,2.4l0,0.2c-3.1,0.4-6.2,1-9.3,1.9
			c0-0.1,0-0.3-0.1-0.4l0.2,0c0-0.3,0-0.7,0-1c0-0.1,0-0.1,0-0.2c-0.1-8.1-0.2-16.3-0.3-24.4c0.4-1.3,1.3-1.6,2.4-2
			c1.2-0.4,2.5-0.4,3.7-0.4c2.7,0,5.2,0.4,7.9,0.6c0.5,0,1,0.1,1.4,0.3c0.4,0.2,0.6,0.6,0.5,1.2l0,0.2c0.1,8,0.3,16,0.4,24l0,0.5
			c-0.4,0-0.8,0.1-1.2,0.1L62.1,367.3z"/>
		<path id="XMLID_284_" class="st4" d="M60.3,338.4c0.6-0.1,1.3-0.2,1.9-0.2s1.3,0.3,1.8,0.7c0.5,0.5,0.8,1.2,1,1.9
			c0.2,0.7,0.2,1.5,0.2,2.2l0.1,0c0.3,7.9,0.6,15.8,0.9,23.8c-0.9,0.1-1.8,0.2-2.7,0.3l0-0.5c-0.1-8-0.3-16-0.4-24l0-0.2
			c0.1-0.5-0.1-0.9-0.5-1.2c-0.4-0.3-0.9-0.3-1.4-0.3c-2.7-0.1-5.2-0.6-7.9-0.6c-1.2,0-2.5,0-3.7,0.4c-1.2,0.4-2.1,0.7-2.4,2
			c0.1,8.1,0.2,16.3,0.3,24.4c0,0.1,0,0.1,0,0.2c0,0.3,0,0.7,0,1l-0.2,0c-0.2-1.1-1-2-2-2.3c-0.2-0.1-0.5-0.1-0.7-0.1l0-0.3
			c0.1-7.2,0.1-14.3,0.2-21.5h0c-0.1-1.6,0.4-3.3,1.5-4.4c1-1.2,2.6-1.8,4-1.6v0C53.5,338.4,56.9,338.5,60.3,338.4L60.3,338.4z"/>
		<path id="XMLID_278_" class="st4" d="M66.6,261.4l-19.9,0c-1.6,0-3-1.5-3-3.3v-31.6c0-3.2,2.3-5.7,4.5-6h14.8
			c3.5,0.2,5.8,2.8,5.8,6V259C68.7,260.3,67.8,261.4,66.6,261.4z M66.4,242.3h-9.6v17h9.6V242.3z M55.7,241.1v-17H46v17H55.7z
			 M55.6,259.1v-17h-9.6v17H55.6z M56.8,241.2h9.6v-17h-9.6V241.2z"/>
		<path id="XMLID_277_" class="st0" d="M86.4,169.6c-20.2,5.5-42,6.4-62.2,1.2c-0.7-0.5-1.5-2-1.3-2.9c0.2-0.8,0.9-1.3,1.7-1.4
			l0,0.3c8.7,3.8,17.8,5.1,27.1,5c9.3-0.2,18.9-1.7,27.8-4.1c2.4-0.7,5-0.9,7.2-2.3c0.8,0.3,1.3,1.2,1.3,2.1c0,0.9-0.5,1.8-1.3,2.1
			L86.4,169.6z"/>
		<path id="XMLID_276_" class="st1" d="M30,66.3c1.4,4.3,2.4,8.8,2.9,13.4c-1.2,0-1.9-0.2-3.1-0.2c0-0.1,0-0.3,0-0.5
			C29.8,74.8,29.9,70.6,30,66.3L30,66.3z"/>
		<path id="XMLID_275_" class="st1" d="M16.3,302.9c0.7-11,1.3-21.8,2-32.7c-0.1-0.1-0.2-0.2-0.2-0.3l0.9-0.2
			c24.8,7.4,51.2,7.5,76,0.3c1.1,12.2,2.2,24.4,3.3,36.6l0.2,0.1c1.5,15.7,3.1,31.3,4.6,47v0.1c-0.4,0-0.6,0.6-0.6,1
			c0,0.5,0.1,1-0.2,1.4c-0.3,0.4-0.9,0.2-1.4,0.3c-0.6,0.1-1.2,0.6-1.3,1.3c-0.1,0.3,0,0.7,0.1,1l-0.2,1c-2-0.5-4.3,0.7-5.2,2.8
			l-0.3-0.1c-0.5-0.9-1.7-1.4-2.6-0.9c-0.9,0.4-1.5,1.6-1.3,2.7l-0.2,0c-0.8-0.8-2-1-3-0.9s-2.1,0.6-3.2,0.7c-1.1,0.2-2.3,0-3.1-0.8
			l-0.1,0.3c-2.3-0.7-5.1,0.8-5.9,3.4c-0.4-1.1-1-2.1-1.9-2.7c-0.9-0.6-2-0.8-3-0.3c-0.9,0.5-1.4,1.6-1.3,2.6l-0.3,0
			c-0.7,0.1-1.3,0.2-2,0.2c-0.3-7.9-0.6-15.8-0.9-23.8l-0.1,0c0-0.7,0-1.5-0.2-2.2c-0.2-0.7-0.5-1.4-1-1.9c-0.5-0.5-1.1-0.7-1.8-0.7
			s-1.3,0.1-1.9,0.2v0.1c-3.4,0-6.8-0.1-10.2-0.1v0c-1.5-0.2-3,0.4-4,1.6c-1,1.2-1.6,2.8-1.5,4.4h0c-0.1,7.2-0.1,14.3-0.2,21.5
			l0,0.3c-0.9,0-1.8,0.5-2.3,1.3c0,0,0,0,0,0c-1.1-1-2.3-1.9-3.7-2.4c-1.5-0.6-3.1-0.5-4.6-0.5c-1.5,0-3.1,0.1-4.6,0.1v0
			c-0.9,0.4-1.9-0.3-2.6-1.1c-0.7-0.8-1.5-1.7-2.5-1.6c-1,0-1.9,1-2.8,0.9c-0.8-0.1-1.4-0.9-2-1.5c-1.5-1.6-3.4-2.6-5.4-2.8
			l-0.4-0.2c0.5-18.3,1.1-36.7,1.6-55C15.6,303.3,15.8,303.1,16.3,302.9z"/>
		<path id="XMLID_274_" class="st1" d="M28.7,44.4c0,0,0-0.1,0-0.1c6.7,0,13.9,0,20.6,0c0,0,0,0.1,0,0.1c0,0.6,0,1.2,0,1.7
			c-5.5,9.5-9.4,19.8-13.6,30.1l-0.2,0C33.3,65.7,31,55,28.7,44.4z"/>
		<path id="XMLID_273_" class="st2" d="M27.1,45.2l-0.1-0.4c0.5-0.1,1.1-0.2,1.6-0.3C31,55,33.3,65.7,35.5,76.3c0,0.1,0,0.2,0.1,0.3
			l2.3,1.4c-0.3,0.6-0.6,1.3-1,1.9v0c-0.1,0-0.2,0-0.3,0l0,2.4c-1.2,0-2.5,0-3.7,0l0-2.7v0c-0.5-4.6-1.5-9.1-2.9-13.4h-0.1
			c0,4.3-0.1,8.5-0.1,12.8l-2.2,0c0,0,0,0,0,0C27.4,67.7,27.3,56.4,27.1,45.2z"/>
		<path id="XMLID_272_" class="st5" d="M26.9,44.7c-1.4-0.3-2.7-0.5-4.1-0.8l0-0.1c1.4-0.4,2.9-0.9,4.3-1.3
			c7.7-7.9,15.4-15.8,23.2-23.7c-0.2-3.4-0.1-6.9-0.2-10.3c2.8,0.1,5.6-0.3,8.3-0.2c0.1,3.3,0.2,6.6,0.3,9.9l-0.2,0.2
			c7.5,8,15.2,15.8,22.7,23.8c1.2,0.7,2.8,1.4,4,2.1l0,0.1c-1.5,0.2-2.9,0.5-4.4,0.7l0,0.1c0,0,0,0,0,0.1h-0.1
			c-0.5-0.3-1.1-0.6-1.6-0.9c0,0.1,0,0.1-0.1,0.2l-0.3-0.1c-7.1-0.2-14.6,0.1-21.7-0.1v-0.2c-2.6,0.1-5.1,0.1-7.7,0.2
			c0,0,0-0.1,0-0.1c-6.7,0-13.9,0-20.6,0c0,0,0,0.1,0,0.1c-0.5,0.1-1.1,0.2-1.6,0.3C27,44.7,27,44.8,26.9,44.7L26.9,44.7z"/>
		<path id="XMLID_217_" class="st1" d="M25.7,134.3c-0.1,0-0.2-0.1-0.3-0.1l0.3,0c19.4,1,38.8,0.7,58.1-0.8v0c1,10.7,2,21.3,3,32
			c0,0-0.1,0-0.1,0c-2.1,1.4-4.7,1.6-7.2,2.3c-9,2.4-18.5,3.9-27.8,4.1c-9.3,0.2-18.4-1.2-27.1-5l0-0.3c0,0,0.1,0,0.1,0v-0.1
			c0.3-10.6,0.6-21.3,0.8-31.9L25.7,134.3z M62.5,164.5v-18.4c0-1.8-1.4-3.3-3.1-3.3h-9c-1.7,0-3.1,1.5-3.1,3.3v18
			c0,1,0.8,1.9,1.8,1.9l12.2,0C62,165.9,62.5,165.3,62.5,164.5z"/>
		<path id="XMLID_178_" class="st1" d="M14.6,101.6C14.6,101.6,14.5,101.6,14.6,101.6l-0.1-0.1c-0.1-3.1-0.2-6.2-0.3-9.2l0-0.2
			c3.2,0.2,6.4,0.3,9.6,0.5h0c0,2.9,0.1,5.8,0.1,8.6c0,0.1,0,0.1,0,0.2l-0.3,0c-3,0.1-6,0.3-9,0.4L14.6,101.6z"/>
		<path id="XMLID_175_" class="st1" d="M19.1,114.5c0.3-1.1-0.7-2-1.6-2.5c0,0,0,0,0,0c24.5,0.1,50.1-1.1,74.6-1
			c-0.9,0.1-1.9,0.8-1.8,1.8l-0.1,0c-1.5,6-3.4,11.8-5.9,17.3l0,0c0,0,0,0,0,0l-0.1,0.1c-19.6-0.1-39.2-0.2-58.8-0.4
			C23.8,124.6,21.5,119.3,19.1,114.5z"/>
		<path id="XMLID_160_" class="st1" d="M14.6,89.7L14.6,89.7c-0.1-2.4-0.2-4.9-0.2-7.3c3.2,0.1,6.1-0.4,9.3-0.3
			c0.1,2.4,0,5.6,0.2,7.9C20.7,89.9,17.8,89.7,14.6,89.7z"/>
		<path id="XMLID_112_" class="st2" d="M14.4,82.3c0,2.4,0.1,4.9,0.1,7.3h0.1c3.2,0,6.1,0.3,9.3,0.3c-0.1-2.4,0-5.6-0.2-7.9
			C20.6,81.9,17.6,82.4,14.4,82.3z M12.2,89.3c0-3.4-0.1-6.7-0.1-10h0.3c5.1-0.1,10.2-0.1,15.3-0.2c0,0,0,0,0,0l2.2,0
			c0,0.1,0,0.3,0,0.5c1.2,0,1.9,0.2,3.1,0.2v0l0,2.7c-1.6,0-3.2,0-4.8,0v0.2c0,2.6,0,5.3,0,7.9c8.2-0.1,16.4-0.2,24.6-0.2
			c0.1,0,0.2,0,0.3,0l2.3-0.1c0,0.1,0,0.1,0,0.2h0.3c8.5-0.1,17.3-0.2,25.8-0.3l0.1,2.8c0,0.2,0,0.3,0,0.5h-0.1
			c-8.8,0.2-17.3,0.2-26.1,0.5v0c0.1,2.7,0.2,5.4,0.3,8.2c-0.9,0.2-1.9,0.2-2.8,0.4h0c-0.1,0-0.1,0-0.2,0c-0.1-2.6-0.2-6.1-0.3-8.7
			c-8-0.1-15.9-0.2-23.9-0.2l-0.4,0c0,2.7,0.3,6.1,0.3,8.8h-0.1c-1.3-0.4-2.7-0.8-4-1.2H24c0-2.9-0.1-5.8-0.1-8.6h0
			c-3.2-0.2-6.4-0.3-9.6-0.5l0,0.2c0.1,3.1,0.2,6.2,0.3,9.2l0.1,0.1c-0.6,0.3-1.3,0.6-1.9,0.9c0-0.1,0-0.1,0-0.2
			c0-3.2-0.1-6.3-0.2-9.4c-0.5-0.3-1.2-0.9-1.2-1.6C11.3,90.6,11.6,89.5,12.2,89.3z"/>
	</g>
	<g id="XMLID_46_">
		<path id="XMLID_378_" class="st6" d="M28.7,44.3c0,0,0,0.1,0,0.1C31,55,33.3,65.7,35.5,76.3c0,0.1,0,0.2,0.1,0.3"/>
		<path id="XMLID_269_" class="st6" d="M35.7,76.2c4.2-10.3,8.1-20.6,13.6-30.1"/>
		<path id="XMLID_268_" class="st6" d="M49.3,44.3C49.3,44.4,49.3,44.4,49.3,44.3c0,0.7,0,1.2,0,1.8c0,0.2,0,0.3,0,0.5"/>
		<path id="XMLID_267_" class="st6" d="M28.7,44.3c6.7,0,13.9,0,20.6,0"/>
		<path id="XMLID_266_" class="st6" d="M56.9,44.4c-0.1,2,1.5,3.8,2.3,5.6c4.2,9,8.4,18,12.6,27c0,0.1,0.1,0.1,0.1,0.2
			c0,0,0,0.1,0.1,0.1"/>
		<path id="XMLID_264_" class="st6" d="M79,44.3C79,44.3,79,44.3,79,44.3c0,0.1,0,0.2-0.1,0.3c-2.3,10.7-4.6,21.5-6.9,32.2"/>
		<path id="XMLID_263_" class="st6" d="M56.9,44.4c7.1,0.2,14.6-0.1,21.7,0.1"/>
		<path id="XMLID_262_" class="st6" d="M51.8,51.3c0.1,9.3,0.2,18.5,0.3,27.8"/>
		<path id="XMLID_261_" class="st6" d="M36.9,79.9c0.3-0.6,0.6-1.3,1-1.9c4.5-9,9.1-18,13.6-27c0,0,0.1-0.1,0.1-0.2"/>
		<path id="XMLID_260_" class="st6" d="M55.5,51.1c0,0.1,0,0.3,0,0.4c0.1,9.2,0.2,18.4,0.2,27.5"/>
		<path id="XMLID_259_" class="st6" d="M55.3,51.1c0.1,0.1,0.2,0.3,0.2,0.4c4.8,9,9.5,18,14.3,27"/>
		<path id="XMLID_258_" class="st6" d="M55.6,79.3c0,0,0.1,0,0.1,0c4.7-0.1,9.3-0.2,14-0.3"/>
		<path id="XMLID_256_" class="st6" d="M36.6,80c0.1,0,0.2,0,0.3,0c5.1-0.1,10.1-0.3,15.2-0.4"/>
		<path id="XMLID_255_" class="st6" d="M27.1,45.2c0.1,11.3,0.3,22.6,0.4,33.9c0,0,0,0.1,0,0.2"/>
		<path id="XMLID_254_" class="st6" d="M29.9,66.3c0,4.3-0.1,8.5-0.1,12.8c0,0.1,0,0.3,0,0.5"/>
		<path id="XMLID_253_" class="st6" d="M30,66.3c1.4,4.3,2.4,8.8,2.9,13.4v0"/>
		<path id="XMLID_252_" class="st6" d="M29.8,79.5c1.2,0,1.9,0.2,3.1,0.2c0,0,0,0,0,0"/>
		<path id="XMLID_251_" class="st6" d="M79.1,55.1c-0.1,7.5-0.3,15.6-0.4,23.2"/>
		<path id="XMLID_249_" class="st6" d="M79.1,55.1c-1.4,7.7-3.6,15.8-5,23.5"/>
		<path id="XMLID_248_" class="st6" d="M74.1,78.6c1.7-0.1,3-0.2,4.7-0.3"/>
		<path id="XMLID_247_" class="st6" d="M80.6,45.2C80.6,45.2,80.6,45.2,80.6,45.2c0.1,11,0.6,23.4,0.7,34.4c0,0.1,0,0.2,0,0.3"/>
		<path id="XMLID_246_" class="st6" d="M22.7,43.9c1.4,0.3,2.7,0.5,4.1,0.8"/>
		<path id="XMLID_245_" class="st6" d="M22.4,43.8c0.1,0,0.2-0.1,0.3-0.1c1.4-0.4,2.9-0.9,4.3-1.3"/>
		<path id="XMLID_244_" class="st6" d="M80.7,45c1.5-0.2,2.9-0.5,4.4-0.7"/>
		<path id="XMLID_242_" class="st6" d="M85.1,44.3c-1.2-0.7-2.8-1.4-4-2.1"/>
		<path id="XMLID_241_" class="st6" d="M26.9,42.5c0,0,0.1-0.1,0.1-0.1c7.7-7.9,15.4-15.8,23.2-23.7"/>
		<path id="XMLID_240_" class="st6" d="M81.1,42.2c-7.5-8-15.2-15.8-22.7-23.8l0,0"/>
		<path id="XMLID_239_" class="st6" d="M58.2,7.6c0,0.2,0,0.4,0,0.7c0.1,3.3,0.2,6.6,0.3,9.9"/>
		<path id="XMLID_238_" class="st6" d="M49.9,8c0,0.2,0,0.3,0,0.5c0.2,3.4,0,6.9,0.2,10.3"/>
		<path id="XMLID_237_" class="st6" d="M49.9,8.5C49.9,8.5,49.9,8.5,49.9,8.5c2.8,0.1,5.6-0.3,8.4-0.2c0.1,0,0.1,0,0.2,0"/>
		<path id="XMLID_235_" class="st6" d="M49.9,8.5c-0.1-1.3-0.3-2.5-0.1-3.8c0.2-1.2,0.7-2.5,1.6-3.3c1.6-1.4,4-1.1,5.5,0.5
			c1.5,1.6,2,4.2,1.7,6.4"/>
		<path id="XMLID_234_" class="st6" d="M27.6,79C27.6,79,27.6,79,27.6,79c-5.1,0.1-10.2,0.1-15.3,0.2"/>
		<path id="XMLID_233_" class="st6" d="M81.2,79.6C81.3,79.6,81.3,79.6,81.2,79.6c4.8-0.1,9.6-0.2,14.3-0.3"/>
		<path id="XMLID_232_" class="st6" d="M95.7,79.2C95.7,79.2,95.7,79.2,95.7,79.2c0,3.8-0.1,7.6-0.1,11.4"/>
		<path id="XMLID_231_" class="st6" d="M84.1,90.3c0-2.3,0-5.1,0-7.3"/>
		<path id="XMLID_230_" class="st6" d="M84.1,82.9c2.9-0.1,6-0.1,8.9-0.3"/>
		<path id="XMLID_228_" class="st6" d="M93,82.7c0,2.5,0,5,0,7.4"/>
		<path id="XMLID_227_" class="st6" d="M93,90.1c-2.9-0.1-6.1,0.2-8.9,0.2"/>
		<path id="XMLID_226_" class="st6" d="M95.5,90.6c1,0.8,0.6,3-0.3,4"/>
		<path id="XMLID_225_" class="st6" d="M95.3,94.6c0,1.7,0.1,3.7,0.1,5.4v0"/>
		<path id="XMLID_224_" class="st6" d="M95.3,99.9c0.5,0.5,1.1,1,1.6,1.5"/>
		<path id="XMLID_223_" class="st6" d="M96.9,101.7c0,2.7,0,5.4,0,8.1c0,0,0,0,0,0"/>
		<path id="XMLID_221_" class="st6" d="M90.2,112.7c-0.1-1,0.9-1.8,1.8-1.8c0.9-0.1,1.8,0.3,2.7,0.3c0.9,0,2-0.5,2.1-1.5"/>
		<path id="XMLID_220_" class="st6" d="M84,93.6c0,2,0.2,4.3,0.2,6.3"/>
		<path id="XMLID_219_" class="st6" d="M84.1,93.5c2.9,0,5.9,0,8.8,0"/>
		<path id="XMLID_218_" class="st6" d="M92.9,93.5c0.1,2,0,4.3,0,6.4"/>
		<path id="XMLID_216_" class="st6" d="M92.9,99.8C92.9,99.8,92.8,99.8,92.9,99.8c-2.8-0.1-5.8,0.1-8.5,0c-0.1,0-0.1,0-0.2,0"/>
		<path id="XMLID_214_" class="st6" d="M12,79.2C12,79.2,12,79.2,12,79.2c0,3.4,0.1,6.7,0.1,10.1"/>
		<path id="XMLID_213_" class="st6" d="M12.2,89.3c-0.6,0.2-0.8,1.3-0.9,2c-0.1,0.7,0.6,1.3,1.2,1.6"/>
		<path id="XMLID_212_" class="st6" d="M12.4,92.9c0.1,3.1,0.1,6.3,0.2,9.4c0,0.1,0,0.1,0,0.2c0,0,0,0.1,0,0.1"/>
		<path id="XMLID_211_" class="st6" d="M14.4,82.3c0,2.4,0.1,4.9,0.1,7.3c0,0,0,0.1,0,0.1"/>
		<path id="XMLID_210_" class="st6" d="M14.4,82.3c3.2,0.1,6.1-0.4,9.3-0.3"/>
		<path id="XMLID_209_" class="st6" d="M23.8,82c0.1,2.4,0,5.6,0.2,7.9"/>
		<path id="XMLID_207_" class="st6" d="M14.6,89.7c3.2,0,6.1,0.3,9.3,0.3"/>
		<path id="XMLID_202_" class="st6" d="M14.2,92.2c0.1,3.1,0.2,6.2,0.3,9.2"/>
		<path id="XMLID_200_" class="st6" d="M14.2,92c3.2,0.2,6.4,0.3,9.6,0.5"/>
		<path id="XMLID_199_" class="st6" d="M23.8,92.4c0,0,0,0.1,0,0.1c0,2.9,0.1,5.8,0.1,8.6c0,0.1,0,0.1,0,0.2"/>
		<path id="XMLID_198_" class="st6" d="M14.6,101.8c3-0.1,6-0.3,9-0.4"/>
		<path id="XMLID_186_" class="st6" d="M55.1,82.2C55.1,82.2,55.1,82.2,55.1,82.2c0.1,2.6,0.1,5.5,0.2,8c0,0.1,0,0.1,0,0.2"/>
		<path id="XMLID_185_" class="st6" d="M52.5,82.3c0.1,2.7,0.1,5.3,0.2,8c0,0,0,0,0,0"/>
		<path id="XMLID_184_" class="st6" d="M55.2,82.2c8.5,0.7,17.2,1,25.7,0.1"/>
		<path id="XMLID_183_" class="st6" d="M80.9,82.3c0.2,2.8,0.4,5,0.5,7.8"/>
		<path id="XMLID_182_" class="st6" d="M55.6,90.4c8.5-0.1,17.3-0.2,25.8-0.3"/>
		<path id="XMLID_181_" class="st6" d="M81.5,92.9c0,0.2,0,0.3,0,0.5c0,2.9-0.1,5.8-0.1,8.8"/>
		<path id="XMLID_180_" class="st6" d="M55,93.9c0.1,0,0.2,0,0.2,0c8.8-0.2,17.3-0.2,26.1-0.5"/>
		<path id="XMLID_179_" class="st6" d="M55.3,93.9c0.1,2.7,0.2,5.4,0.3,8.2c0,0,0,0.1,0,0.1"/>
		<path id="XMLID_177_" class="st6" d="M55.6,102.2c8.6,0,17.3,0.2,25.8,0.2"/>
		<path id="XMLID_176_" class="st6" d="M28.1,82.7c0,2.6,0,5.3,0,7.9v0"/>
		<path id="XMLID_174_" class="st6" d="M28.1,82.5c1.6,0,3.2,0,4.8,0c1.2,0,2.5,0,3.7,0c5.3,0,10.6-0.1,15.9-0.1"/>
		<path id="XMLID_173_" class="st6" d="M28.1,90.6c8.2-0.1,16.4-0.2,24.6-0.2c0.1,0,0.2,0,0.3,0"/>
		<path id="XMLID_172_" class="st6" d="M27.9,93.6c0,2.7,0.3,6.1,0.3,8.8c0,0.1,0,0.2,0,0.3"/>
		<path id="XMLID_167_" class="st6" d="M52.2,93.8c-8-0.1-15.9-0.2-23.9-0.2"/>
		<path id="XMLID_166_" class="st6" d="M52.2,93.8c0.1,2.6,0.2,6.1,0.3,8.7c0,0,0,0,0,0"/>
		<path id="XMLID_165_" class="st6" d="M52.8,102.5C52.8,102.5,52.8,102.5,52.8,102.5"/>
		<path id="XMLID_164_" class="st6" d="M28.2,102.8c8.3-0.1,16.1-0.2,24.4-0.3c0.1,0,0.1,0,0.2,0"/>
		<path id="XMLID_163_" class="st6" d="M12.5,102.4c-0.5,0.5-0.7,0.7-1.2,1.3"/>
		<path id="XMLID_162_" class="st6" d="M11.3,103.6c0.2,2.6-0.1,5.6,0.1,8.2"/>
		<path id="XMLID_161_" class="st6" d="M11.4,111.9c1,0.2,2,0,3.1-0.2c1-0.2,2.1-0.2,3,0.2c0,0,0,0,0,0c0.9,0.5,1.9,1.4,1.6,2.5"/>
		<path id="XMLID_159_" class="st6" d="M19.1,114.5c2.4,4.8,4.7,10.1,6.2,15.4"/>
		<path id="XMLID_158_" class="st6" d="M90.1,112.8c-1.5,6-3.4,11.8-5.9,17.3"/>
		<path id="XMLID_157_" class="st6" d="M16.9,111.9c0.2,0,0.4,0,0.6,0c24.5,0.1,50.1-1.1,74.6-1"/>
		<path id="XMLID_156_" class="st6" d="M84,130c0.1,0,0.1,0.1,0.2,0.1c0,0,0,0,0,0c0.4,0.4,0.6,1,0.6,1.6c-0.1,0.7-0.4,1.3-0.9,1.6
			c0,0,0,0,0,0c0,0,0,0,0,0"/>
		<path id="XMLID_155_" class="st6" d="M83.8,133.2C83.8,133.2,83.8,133.2,83.8,133.2L83.8,133.2c1,10.7,2,21.4,3,32.1"/>
		<path id="XMLID_154_" class="st6" d="M25.3,129.8c-0.7,0.5-1.2,1.4-1.1,2.4c0.1,0.8,0.5,1.6,1.2,2c0.1,0,0.2,0.1,0.3,0.1
			c0,0,0,0,0,0"/>
		<path id="XMLID_153_" class="st6" d="M25.5,134.5c-0.3,10.6-0.6,21.3-0.8,31.9"/>
		<path id="XMLID_152_" class="st6" d="M24.8,166.5C24.8,166.5,24.7,166.5,24.8,166.5c-0.1,0-0.2,0-0.2,0c-0.7,0-1.4,0.6-1.7,1.4
			c-0.3,0.9,0.6,2.4,1.3,2.9"/>
		<path id="XMLID_151_" class="st6" d="M86.7,165.3c0.8,0.3,1.3,1.2,1.3,2.1c0,0.9-0.5,1.8-1.3,2.1"/>
		<path id="XMLID_150_" class="st6" d="M86.4,169.6c1.1,11.4,2.1,22.7,3.2,34v0"/>
		<path id="XMLID_149_" class="st6" d="M24.2,170.7c-0.3,10.5-0.7,21-1.1,31.5c0,0,0,0,0,0.1"/>
		<path id="XMLID_148_" class="st6" d="M23.1,202.2c-0.3,0.1-0.5,0.2-0.7,0.4c-0.4,0.3-0.7,0.7-0.8,1.2c-0.2,0.7,0,1.6,0.5,2.1
			c0,0,0.1,0.1,0.1,0.1"/>
		<path id="XMLID_147_" class="st6" d="M89.8,203.6c0,0.1,0,0.3,0,0.4c0.1,0.9,0.1,1.8,0.2,2.6c1.4,19.2,2.9,38.4,4.3,57.6"/>
		<path id="XMLID_146_" class="st6" d="M21.8,206.6c-0.1,19.1-1,38.2-2.8,57.2"/>
		<path id="XMLID_145_" class="st6" d="M18.8,264.3c-0.8,0.7-1.4,1.7-1.5,2.8c-0.1,1,0.2,2,0.8,2.8c0.1,0.1,0.2,0.2,0.2,0.3"/>
		<path id="XMLID_144_" class="st6" d="M94.3,264.3c0.2,0.2,0.4,0.4,0.5,0.6c0.9,1.2,0.7,2.9,0.2,4.7"/>
		<path id="XMLID_143_" class="st6" d="M95.1,269.5c0,0.2,0,0.3,0,0.5c1.1,12.2,2.2,24.4,3.3,36.6"/>
		<path id="XMLID_142_" class="st6" d="M18.3,270.2c-0.7,11-1.3,21.8-2,32.7c0,0,0,0.1,0,0.1"/>
		<path id="XMLID_141_" class="st6" d="M16.4,302.9c0,0-0.1,0-0.1,0c-0.5,0.2-0.8,0.3-1.3,0.5"/>
		<path id="XMLID_140_" class="st6" d="M15,303.4c-0.5,18.3-1.1,36.7-1.6,55"/>
		<path id="XMLID_139_" class="st6" d="M98.6,306.7c1.5,15.7,3.1,31.3,4.6,47"/>
		<path id="XMLID_138_" class="st6" d="M13.8,358.6c2,0.2,4,1.2,5.4,2.8c0.6,0.6,1.2,1.4,2,1.5c1,0.1,1.8-0.9,2.8-0.9
			c1,0,1.8,0.9,2.5,1.6c0.7,0.8,1.7,1.5,2.6,1.1"/>
		<path id="XMLID_137_" class="st6" d="M28.8,364.7c0.1,0,0.3,0,0.4,0c1.5,0,3.1-0.1,4.6-0.1c1.5,0,3.1-0.1,4.6,0.5
			c1.4,0.5,2.5,1.5,3.7,2.4c0,0,0,0,0,0c0.2,0.2,0.4,0.3,0.6,0.5c0.4,0.4,0.9,0.7,1.3,1.1"/>
		<path id="XMLID_136_" class="st6" d="M42.1,367.6C42.1,367.6,42.1,367.6,42.1,367.6c0.5-0.8,1.4-1.3,2.3-1.4c0.2,0,0.5,0,0.7,0.1
			c1,0.3,1.8,1.2,2,2.3c0,0.1,0.1,0.3,0.1,0.4c0,0,0,0,0,0.1"/>
		<path id="XMLID_133_" class="st6" d="M46.9,369.1c0.1,0,0.2-0.1,0.3-0.1c3.1-0.8,6.2-1.5,9.3-1.9c0.1,0,0.2,0,0.3,0"/>
		<path id="XMLID_132_" class="st6" d="M56.5,366.9c0.3-1.5,1.7-2.6,3.1-2.4c1.3,0.1,2.4,1.4,2.5,2.8c0,0.1,0,0.1,0,0.2"/>
		<path id="XMLID_131_" class="st6" d="M62.2,367.3c0.4,0,0.8-0.1,1.2-0.1c0.9-0.1,1.8-0.2,2.7-0.3c0.7-0.1,1.3-0.2,2-0.2"/>
		<path id="XMLID_130_" class="st6" d="M68.5,366.8c0-0.1,0-0.2-0.1-0.3c-0.1-1,0.5-2.1,1.3-2.6c0.9-0.5,2.1-0.3,3,0.3
			c0.9,0.6,1.5,1.6,1.9,2.7c0.9-2.6,3.6-4.1,5.9-3.4c0.1,0,0.2,0,0.2,0.1"/>
		<path id="XMLID_129_" class="st6" d="M80.6,363.3c0.8,0.8,2,1,3.1,0.8c1.1-0.2,2.1-0.6,3.2-0.7s2.3,0,3,0.9"/>
		<path id="XMLID_128_" class="st6" d="M90.1,364.3c-0.2-1.1,0.3-2.3,1.3-2.7c0.9-0.4,2.1,0,2.6,0.9"/>
		<path id="XMLID_127_" class="st6" d="M94.3,362.6c0.9-2.1,3.2-3.3,5.2-2.8c0.1,0,0.2,0.1,0.3,0.1"/>
		<path id="XMLID_126_" class="st6" d="M100.3,359.6c-0.3-0.2-0.5-0.5-0.6-0.8c-0.1-0.3-0.1-0.7-0.1-1c0.1-0.7,0.7-1.2,1.3-1.3
			c0.5-0.1,1.1,0.1,1.4-0.3c0.3-0.3,0.2-0.9,0.2-1.4c0-0.5,0.2-1,0.6-1c0,0,0,0,0.1,0"/>
		<path id="XMLID_125_" class="st6" d="M63,342.7c0.1,8,0.3,16,0.4,24"/>
		<path id="XMLID_124_" class="st6" d="M47.1,342.9c0.1,8.1,0.2,16.3,0.3,24.4"/>
		<path id="XMLID_123_" class="st6" d="M44.6,344.4c-0.1,7.2-0.1,14.3-0.2,21.5"/>
		<path id="XMLID_122_" class="st6" d="M65.2,343.1c0.3,7.9,0.6,15.8,0.9,23.8c0,0.2,0,0.3,0,0.5"/>
		<path id="XMLID_121_" class="st6" d="M47.1,342.9c0.4-1.3,1.3-1.6,2.4-2c1.2-0.4,2.5-0.4,3.7-0.4c2.7,0,5.2,0.4,7.9,0.6
			c0.5,0,1,0.1,1.4,0.3c0.4,0.2,0.6,0.6,0.5,1.2"/>
		<path id="XMLID_120_" class="st6" d="M47.3,367.3c0,0.1,0,0.1,0,0.2c0,0.3,0,0.7,0,1"/>
		<path id="XMLID_119_" class="st6" d="M44.6,344.4C44.6,344.4,44.6,344.4,44.6,344.4c-0.1-1.7,0.4-3.3,1.5-4.5c1-1.2,2.6-1.8,4-1.6
			"/>
		<path id="XMLID_118_" class="st6" d="M60.3,338.4c0.6-0.1,1.3-0.2,1.9-0.2s1.3,0.3,1.8,0.7c0.5,0.5,0.8,1.2,1,1.9
			c0.2,0.7,0.2,1.5,0.2,2.2"/>
		<path id="XMLID_117_" class="st6" d="M49.8,338.4c0.1,0,0.2,0,0.3,0c3.4,0,6.8,0.1,10.2,0.1c0.1,0,0.2,0,0.3,0"/>
		<path id="XMLID_116_" class="st6" d="M19,269.7c24.8,7.4,51.2,7.5,76,0.3c0,0,0.1,0,0.1,0"/>
		<path id="XMLID_115_" class="st6" d="M22,206C22,206,22,206,22,206c22.2,5.9,45.6,6.2,67.8,0.7"/>
		<path id="XMLID_114_" class="st6" d="M24.1,101.2c1.3,0.4,2.7,0.8,4,1.2"/>
		<path id="XMLID_113_" class="st6" d="M52.5,102.5c0.1,0,0.1,0,0.2,0h0c0.9-0.2,1.9-0.2,2.8-0.4c0.1,0,0.1,0,0.2,0"/>
		<path id="XMLID_111_" class="st6" d="M81.5,102.4C81.5,102.4,81.6,102.4,81.5,102.4c1-0.9,1.9-1.7,2.9-2.5
			c0.1-0.1,0.2-0.1,0.2-0.2"/>
		<path id="XMLID_110_" class="st6" d="M23.2,202.7c21.5,7,44.5,7.4,66.2,1.3"/>
		<path id="XMLID_109_" class="st6" d="M24.2,170.7c20.3,5.2,42,4.4,62.2-1.2"/>
		<path id="XMLID_108_" class="st6" d="M24.6,166.8c8.7,3.8,17.8,5.1,27.1,5c9.3-0.2,18.9-1.7,27.8-4.1c2.4-0.7,5-0.9,7.2-2.3
			c0,0,0.1,0,0.1,0"/>
		<path id="XMLID_107_" class="st6" d="M25.7,134.1c19.4,1,38.8,0.7,58.1-0.8h0c0,0,0,0,0,0"/>
		<path id="XMLID_106_" class="st6" d="M84.1,130.2c-19.6-0.1-39.2-0.2-58.8-0.4c-0.1,0-0.1,0-0.2,0"/>
		<path id="XMLID_105_" class="st6" d="M19.1,264.1c24.2,9,50.9,9.4,75.3,1.1"/>
		<line id="XMLID_104_" class="st6" x1="46" y1="224.1" x2="46" y2="241.1"/>
		<line id="XMLID_103_" class="st6" x1="46" y1="241.1" x2="55.7" y2="241.1"/>
		<line id="XMLID_102_" class="st6" x1="55.7" y1="241.1" x2="55.7" y2="224.1"/>
		<line id="XMLID_101_" class="st6" x1="55.7" y1="224.1" x2="46" y2="224.1"/>
		<line id="XMLID_100_" class="st6" x1="56.8" y1="224.2" x2="56.8" y2="241.2"/>
		<line id="XMLID_99_" class="st6" x1="56.8" y1="241.2" x2="66.5" y2="241.2"/>
		<line id="XMLID_98_" class="st6" x1="66.5" y1="241.2" x2="66.5" y2="224.2"/>
		<line id="XMLID_97_" class="st6" x1="66.5" y1="224.2" x2="56.8" y2="224.2"/>
		<line id="XMLID_95_" class="st6" x1="45.9" y1="242.1" x2="45.9" y2="259.1"/>
		<line id="XMLID_94_" class="st6" x1="45.9" y1="259.1" x2="55.6" y2="259.1"/>
		<line id="XMLID_93_" class="st6" x1="55.6" y1="259.1" x2="55.6" y2="242.1"/>
		<line id="XMLID_92_" class="st6" x1="55.6" y1="242.1" x2="45.9" y2="242.1"/>
		<line id="XMLID_91_" class="st6" x1="56.8" y1="242.3" x2="56.8" y2="259.3"/>
		<line id="XMLID_88_" class="st6" x1="56.8" y1="259.3" x2="66.4" y2="259.3"/>
		<line id="XMLID_87_" class="st6" x1="66.4" y1="259.3" x2="66.4" y2="242.3"/>
		<line id="XMLID_86_" class="st6" x1="66.4" y1="242.3" x2="56.8" y2="242.3"/>
		<path id="XMLID_85_" class="st6" d="M68.7,259v-32.4c0-3.2-2.3-5.7-5.8-6H48.1c-2.2,0.2-4.5,2.8-4.5,6v31.6c0,1.8,1.3,3.3,3,3.3
			l19.9,0C67.8,261.4,68.7,260.3,68.7,259z"/>
		<line id="XMLID_84_" class="st6" x1="49.3" y1="144.5" x2="49.3" y2="153.9"/>
		<line id="XMLID_83_" class="st6" x1="49.3" y1="153.9" x2="54.7" y2="153.9"/>
		<line id="XMLID_81_" class="st6" x1="54.7" y1="153.9" x2="54.7" y2="144.5"/>
		<line id="XMLID_80_" class="st6" x1="54.7" y1="144.5" x2="49.3" y2="144.5"/>
		<line id="XMLID_79_" class="st6" x1="55.3" y1="144.6" x2="55.3" y2="154"/>
		<line id="XMLID_78_" class="st6" x1="55.3" y1="154" x2="60.7" y2="154"/>
		<line id="XMLID_77_" class="st6" x1="60.7" y1="154" x2="60.7" y2="144.6"/>
		<line id="XMLID_76_" class="st6" x1="60.7" y1="144.6" x2="55.3" y2="144.6"/>
		<line id="XMLID_74_" class="st6" x1="49.3" y1="154.5" x2="49.3" y2="163.9"/>
		<line id="XMLID_73_" class="st6" x1="49.3" y1="163.9" x2="54.6" y2="163.9"/>
		<line id="XMLID_72_" class="st6" x1="54.6" y1="163.9" x2="54.6" y2="154.5"/>
		<line id="XMLID_71_" class="st6" x1="54.6" y1="154.5" x2="49.3" y2="154.5"/>
		<line id="XMLID_70_" class="st6" x1="55.3" y1="154.5" x2="55.3" y2="163.9"/>
		<line id="XMLID_69_" class="st6" x1="55.3" y1="163.9" x2="60.6" y2="163.9"/>
		<line id="XMLID_67_" class="st6" x1="60.6" y1="163.9" x2="60.6" y2="154.5"/>
		<line id="XMLID_66_" class="st6" x1="60.6" y1="154.5" x2="55.3" y2="154.5"/>
		<path id="XMLID_62_" class="st6" d="M62.5,164.5v-18.4c0-1.8-1.4-3.3-3.1-3.3h-9c-1.7,0-3.1,1.5-3.1,3.3v18c0,1,0.8,1.9,1.8,1.9
			l12.2,0C62,165.9,62.5,165.3,62.5,164.5z"/>
		<path id="XMLID_60_" class="st6" d="M48.9,44.4c0.1,0,0.2,0,0.3,0c2.6-0.1,5.1-0.1,7.7-0.2c0,0,0,0,0.1,0"/>
		<path id="XMLID_59_" class="st6" d="M26.9,44.8c0,0,0.1,0,0.1,0c0.5-0.1,1.1-0.2,1.6-0.3c0.1,0,0.1,0,0.2,0"/>
		<path id="XMLID_58_" class="st6" d="M78.9,44.3C78.9,44.3,79,44.4,78.9,44.3c0.6,0.3,1.1,0.6,1.6,0.9"/>
		<path id="XMLID_55_" class="st6" d="M12.4,102.7c0.1,0,0.2-0.1,0.2-0.1c0.6-0.3,1.3-0.6,1.9-0.9c0,0,0,0,0,0c0,0,0.1,0,0.1,0"/>
		<path id="XMLID_53_" class="st6" d="M92.8,99.9c0.8,0,1.6,0,2.4,0"/>
	</g>
</g>
<g id="XMLID_652_">
	<g id="XMLID_397_">
		<path id="XMLID_494_" class="st7" d="M111.1,361.5c-0.9,0.5-1.8,0.9-2.7,1c0.3-1.4,0.2-3.1-0.2-4.4l0,0c0.6-0.4,1-1.2,1.2-2.2
			c0.2-0.9,0.1-1.8,0-2.7c0-0.1,0-0.2-0.1-0.4l0.1,0c0.6,0.2,1.5,0.1,2.1,0c0.4-0.1,0.8-0.4,1.1-0.9c0.5,1.9,0.8,4,0.9,6.1
			c0,0.4,0,0.8-0.1,1.1c-0.1,0.4-0.3,0.7-0.6,0.9C112.3,360.6,111.7,361.1,111.1,361.5z"/>
		<path id="XMLID_493_" class="st8" d="M112.5,351.8c-0.3,0.5-0.7,0.8-1.1,0.9c-0.6,0.1-1.5,0.2-2.1,0l-0.1,0
			c-0.3-2.1-1.2-4.2-2.5-4.5v-0.1c0.5-0.2,1.2-0.9,2-1.7c1.4-1.4,2.9-3,3.5-1.8c0.6,1.3,0.8,2.9,0.8,4.5c0,0.7,0,1.4-0.2,2
			C112.8,351.4,112.7,351.6,112.5,351.8z"/>
		<path id="XMLID_492_" class="st8" d="M104,363.8c1-1.1,1.4-3.1,1.5-5.2c0.7,0,1.5,0,2.2-0.3c0.1-0.1,0.3-0.1,0.4-0.2l0,0
			c0.5,1.3,0.5,2.9,0.2,4.4c-0.2,1-0.6,2-1.1,2.6c-1.2,1.3-2.8,0.9-3.8-0.7C103.6,364.2,103.8,364,104,363.8z"/>
		<path id="XMLID_490_" class="st7" d="M105.5,358.6c0-0.6,0-1.3,0-1.9c0-1.4-0.2-3.1-0.8-3.9c0-0.5,0-1-0.2-1.4
			c-0.3-0.6-0.7-1-1.1-1.3c-0.7-0.5-1.4-0.9-2.2-1.1v0c0.2-1.3,0.9-2.5,1.6-3.4c1-1.3,2.3-2.6,3.5-2c1,0.5,1.6,2,2.4,2.8l0.1,0.2
			c-0.8,0.8-1.5,1.6-2,1.7v0.1c1.2,0.3,2.1,2.4,2.5,4.5c0,0.1,0,0.2,0.1,0.4c0.1,0.9,0.2,1.8,0,2.7c-0.2,1-0.7,1.7-1.2,2.2
			c-0.1,0.1-0.2,0.2-0.4,0.2C107,358.6,106.2,358.6,105.5,358.6z"/>
		<path id="XMLID_487_" class="st8" d="M101.2,366.4c0.1-0.6,0.2-1.3,0.2-2c0.7,0.2,1.4,0.2,2-0.1c0.9,1.7,2.6,2.1,3.8,0.7
			c0.5-0.6,0.9-1.5,1.1-2.6c0.9-0.1,1.9-0.4,2.7-1c0.5,0.7,0.6,2,0.6,3.1c0,0.6,0,1.3-0.2,1.7c-0.1,0.3-0.4,0.5-0.6,0.6
			c-1.5,1-3.5,2.1-5,3l-0.2-0.1c-0.1,1-0.3,2.1-0.6,3c-0.6,2-1.6,3.7-2.9,4c-1,0.3-2-0.3-3.1-0.4c-1.3-0.1-2.5,0.5-3.7,1.2H95
			c0-0.9-0.1-1.8-0.3-2.7C97.6,374.5,100.3,371.1,101.2,366.4z"/>
		<path id="XMLID_486_" class="st7" d="M101.4,364c-0.1-1.1-0.7-2-1.2-2.8c-0.4-0.8-0.8-1.7-1.1-2.6c0-0.6,0-1.2-0.2-1.8
			c-0.6-0.8-1.3-1.3-2-1.6c-0.2-1.7,0.4-3.6,0.9-5.2c0.1-0.4,0.3-0.9,0.6-1.2c0.2-0.2,0.5-0.2,0.8-0.3c0.6,0,1.3,0,1.9,0.2v0
			c0.8,0.2,1.5,0.6,2.2,1.1c0.4,0.3,0.9,0.7,1.1,1.3c0.2,0.4,0.3,0.9,0.2,1.4c0.6,0.8,0.8,2.5,0.8,3.9c0,0.6,0,1.3,0,1.9
			c-0.1,2.1-0.5,4.2-1.5,5.2c-0.2,0.2-0.4,0.3-0.6,0.4c-0.6,0.3-1.3,0.3-2,0.1C101.4,364.3,101.4,364.1,101.4,364z"/>
		<path id="XMLID_485_" class="st8" d="M96.9,355.2c0.8,0.2,1.5,0.8,2,1.6c0.2,0.6,0.2,1.2,0.2,1.8c-0.1,1.5-0.6,3-1.4,3.5
			c-1.3,0.8-2.8-0.5-3.4-2.6l-0.1,0.1c-0.1-0.3-0.3-0.6-0.4-0.8c-0.3-0.4-0.7-0.8-1.1-1c0.7-1.5,1.9-2.5,3.1-2.6
			C96.1,355.1,96.5,355.1,96.9,355.2z"/>
		<path id="XMLID_484_" class="st7" d="M94.7,374.9c0.2,0.9,0.3,1.8,0.3,2.7c0,0.3,0,0.7-0.1,1c-0.3,2-1.5,3.3-2.6,4
			c-2.9,1.7-6,0.9-9,0.1l-0.1-0.3c0.9-1,1.7-2.2,2.3-3.8c0.6-1.6,0.8-3.6,0.3-5.2c2.4-0.5,4.6-2.5,6-5.8l0.5,0
			c0.8,2,1.6,4.1,2.1,6.3C94.6,374.3,94.6,374.6,94.7,374.9z"/>
		<path id="XMLID_483_" class="st7" d="M101.4,364.4c0,0.7-0.1,1.4-0.2,2c-1,4.7-3.7,8.1-6.5,8.4c-0.1-0.3-0.1-0.6-0.2-0.8
			c-0.6-2.2-1.3-4.4-2.1-6.3l-0.5,0c0.4-1,0.8-2,1.1-3.1c0.3-1.2,0.7-2.4,0.7-3.7h0c0.3,0.1,0.6-0.4,0.6-0.9c0-0.1,0-0.3-0.1-0.4
			l0.1-0.1c0.6,2.1,2.1,3.4,3.4,2.6c0.8-0.6,1.4-2,1.4-3.5c0.3,1,0.7,1.8,1.1,2.6c0.5,0.9,1,1.7,1.2,2.8
			C101.4,364.1,101.4,364.3,101.4,364.4z"/>
		<path id="XMLID_480_" class="st7" d="M85.8,373.4L85.8,373.4c-2.4,0.5-4.8-0.4-6.9-2.1l-0.3-0.1c0.1-1.4,0.2-2.9,0.1-4.3
			c-0.1-1.3-0.4-2.5-0.9-3.4c-0.1-0.1-0.2-0.3-0.3-0.4l0,0c-0.1-1.1,0.6-2,1.1-2.6c0.9-1,1.7-2,2.7-2.6c1.1-0.6,2.3-0.7,3.4-0.8
			c1.1-0.1,2.2-0.2,3.4-0.3c1.5-0.1,3.2-0.1,4.5,0.7c0.4,0.3,0.8,0.6,1.1,1c0.2,0.2,0.3,0.5,0.4,0.8c0,0.1,0,0.2,0.1,0.4
			c0,0.5-0.3,1-0.6,0.9h0c0,1.3-0.3,2.5-0.7,3.7c-0.3,1.1-0.7,2.1-1.1,3.1C90.5,370.9,88.2,372.9,85.8,373.4z"/>
		<path id="XMLID_479_" class="st8" d="M85.8,373.4c0.5,1.6,0.3,3.7-0.3,5.2c-0.6,1.6-1.4,2.9-2.3,3.8c-0.9,0.9-1.9,1.6-2.9,2.1
			c-0.4,0.2-0.8,0.4-1.3,0.6c-0.5,0.2-1.1,0.5-1.6,0.1c-0.7-0.5-1-1.9-1.3-3.1l0-0.2c0.3-0.1,0.7-0.3,1-0.6c1.1-1.2,1.2-3.9,0.9-6.1
			c0-0.3-0.1-0.5-0.1-0.8c0.4-0.7,0.5-1.7,0.6-2.8c0-0.2,0-0.3,0-0.5l0.3,0.1C81.1,373.1,83.5,373.9,85.8,373.4L85.8,373.4z"/>
		<path id="XMLID_478_" class="st7" d="M77.5,385.3c0.5,0.4,1.1,0.1,1.6-0.1c0.4-0.2,0.8-0.4,1.3-0.6l0,0.1c-1,2.2-2.2,5.2-3.7,5.9
			c-1,0.4-2.1,0.1-3.1-0.3c-0.6-0.2-1.3-0.6-1.9-1.1c-0.2-0.2-0.3-0.4-0.5-0.6c-0.6-0.8-1-1.9-1.1-3.2c1.2-1,1.9-3.1,2.6-5.1
			c0.9,1.1,1.9,1.7,3,1.6c0.1,0,0.3,0,0.4-0.1l0,0.2C76.4,383.4,76.8,384.8,77.5,385.3z"/>
		<path id="XMLID_477_" class="st8" d="M77.7,363.7c0.5,0.9,0.8,2.1,0.9,3.4c0.1,1.4,0.1,2.9-0.1,4.3c0,0.2,0,0.3,0,0.5
			c-0.1,1-0.2,2.1-0.6,2.8c-0.5-2.9-1.4-5.7-2.7-7.8c-0.3-0.5-0.6-0.9-1-1.3c0.4,0.1,0.9,0.1,1.3,0.2c0.5,0,1,0.1,1.5-0.3
			C77.5,365,77.8,364.3,77.7,363.7z"/>
		<path id="XMLID_476_" class="st7" d="M70.2,385.5c-0.1,0-0.1,0.1-0.2,0.1c-0.3,0.2-0.6,0.4-0.9,0.5c-1.2,0.3-2.4-0.2-3.6-0.8
			c-0.9-0.4-1.9-1.1-2.2-2.5c0.9-0.6,1.7-1.6,2.3-2.9c0.6-1.4,1-3.2,1-5l0.6,0c1.1,0,2.4,0.1,3.3,1.3c0.6,0.8,1,2.1,1.5,3
			c0.2,0.4,0.4,0.8,0.7,1.1C72.1,382.5,71.3,384.5,70.2,385.5z"/>
		<path id="XMLID_475_" class="st7" d="M74.3,365.4c0.3,0.4,0.7,0.8,1,1.3c1.3,2.1,2.2,4.8,2.7,7.8c0,0.3,0.1,0.5,0.1,0.8
			c0.3,2.2,0.2,4.9-0.9,6.1c-0.3,0.3-0.6,0.5-1,0.6c-0.1,0-0.3,0-0.4,0.1c-1.1,0-2.1-0.6-3-1.6c-0.3-0.3-0.5-0.7-0.7-1.1
			c-0.5-1-0.9-2.2-1.5-3c-0.9-1.2-2.2-1.3-3.3-1.3l-0.6,0c0.1-1.4-0.1-2.9-0.3-4.3c-0.3-1.8-1-3.6-2-4.5c0.1,0,0.2-0.1,0.3-0.1
			c2-0.7,4-1.2,6-1.7c0.6-0.2,1.3-0.3,1.9-0.2C73.2,364.4,73.8,364.8,74.3,365.4z"/>
		<path id="XMLID_472_" class="st8" d="M68,388.8c0.5-0.7,0.8-1.7,1.1-2.7c0.3-0.1,0.6-0.2,0.9-0.5c0.1,0,0.1-0.1,0.2-0.1
			c0,1.2,0.5,2.4,1.1,3.2c0.2,0.2,0.3,0.4,0.5,0.6l-0.1,0.1C70.5,390.1,69.1,389.9,68,388.8L68,388.8z"/>
		<path id="XMLID_471_" class="st8" d="M63.3,382.8c0.3,1.4,1.3,2.1,2.2,2.5c1.2,0.6,2.4,1.1,3.6,0.8c-0.2,1-0.6,1.9-1.1,2.7
			c-0.5,0.9-1.2,1.6-1.8,2c-1.3,0.8-2.8,0.6-4-0.6l0,0c0.2-0.4,0.4-0.8,0.5-1.3c0.4-1.8,0.2-3.7-0.3-5.5
			C62.7,383.2,63,383,63.3,382.8z"/>
		<path id="XMLID_470_" class="st8" d="M64.7,366.1c-0.1,0-0.2,0.1-0.3,0.1c-0.2-0.2-0.4-0.4-0.7-0.5c-0.5-0.2-1-0.2-1.5-0.2
			c-1.2,0.1-2.5,0.3-3.7,0.7c0.5-1.8,1.2-3.7,2.3-4.4c0.8-0.5,1.7-0.2,2.5,0.6C64,363.3,64.5,364.6,64.7,366.1L64.7,366.1z"/>
		<path id="XMLID_469_" class="st7" d="M55.9,367.4c0.9-0.5,1.7-0.8,2.6-1.1c1.2-0.4,2.5-0.6,3.7-0.7c0.5,0,1,0,1.5,0.2
			c0.2,0.1,0.5,0.3,0.7,0.5c0.9,0.9,1.6,2.7,2,4.5c0.3,1.4,0.4,2.8,0.3,4.3c-0.1,1.8-0.4,3.5-1,5c-0.6,1.3-1.4,2.3-2.3,2.9
			c-0.3,0.2-0.7,0.4-1,0.5h0c-0.2,0.1-0.4,0.1-0.6,0.2c-1.5,0.4-3,0.1-4.5-0.3l-0.6-0.3c0.6-2,0.7-4.4,0.8-6.7
			c0.1-3.2-0.3-7-1.8-8.7C55.7,367.4,55.8,367.4,55.9,367.4z"/>
		<path id="XMLID_468_" class="st7" d="M49.8,388.6c2.3,0.2,4.8-0.7,6.2-3.8c0.3-0.6,0.5-1.2,0.7-1.9l0.6,0.3c1.5,0.4,3,0.7,4.5,0.3
			c0.2,0,0.4-0.1,0.6-0.2h0c0.4,1.8,0.7,3.8,0.3,5.5c-0.1,0.5-0.3,0.9-0.5,1.3c-0.6,1.1-1.4,1.8-2.3,2.3c-2.7,1.6-5.7,1.7-8.4,0.2
			c-0.9-0.5-1.8-1.2-2.4-2.4c0.2-0.3,0.5-0.6,0.7-1L49.8,388.6z"/>
		<path id="XMLID_466_" class="st8" d="M49,390.2c-2.2,2.7-4.8,4.3-7.5,4.7c-3,0.5-6-0.2-8.9-1.6c-1.4-0.7-2.9-1.8-3.4-4.1l0-0.1
			c1-0.5,2-1.3,2.6-2.8c0.7-1.6,0.8-3.7,0.8-5.8c2,0,4,0.1,6,0.2v0.1c2.9,3.6,6.5,7,10,7.7c0.3,0.1,0.7,0.1,1.1,0.1l0,0.7
			C49.5,389.6,49.3,389.9,49,390.2z"/>
		<path id="XMLID_464_" class="st8" d="M45.4,373.3c0.2-2.8-0.2-5.7-1.5-7.4c-0.2-0.3-0.4-0.5-0.7-0.7c1.3-1.6,3.3-1.7,4.7-0.2
			c0.4,0.4,0.8,1.1,1,1.8c0,0.1,0,0.3,0.1,0.5c0,0.6-0.1,1.3-0.5,1.6l-0.1,0c-0.1,1.2-0.3,2.4-0.9,3.3
			C47,373.1,46.1,373.7,45.4,373.3z"/>
		<path id="XMLID_463_" class="st7" d="M40.7,380.8c-0.7,0-1.4,0-2.1-0.1c-2,0-4-0.1-6-0.2c0-0.5,0-0.9-0.1-1.3
			c-0.1-1.9-0.3-3.9-0.8-5.6c-0.9-2.9-2.6-4.7-4.3-6.4l-0.1-0.1c0.5-1.2,0.6-2.8,0.5-4.2c0.7-1.2,1.7-1.9,2.6-2.1
			c1.2-0.3,2.3-0.1,3.5,0.2c2.6,0.7,5.1,1.7,7.6,3c0.6,0.3,1.2,0.7,1.7,1.2c0.2,0.2,0.5,0.5,0.7,0.7c1.3,1.7,1.7,4.6,1.5,7.4
			c-0.1,1.5-0.4,3-0.9,4.3c-0.4,1.2-1,2.2-1.7,2.8C42.1,380.8,41.4,380.8,40.7,380.8z"/>
		<path id="XMLID_462_" class="st7" d="M38.7,380.7c0.7,0,1.4,0,2.1,0.1c0.7,0,1.4,0,2-0.4c0.7-0.5,1.3-1.6,1.7-2.8
			c0.5-1.3,0.8-2.8,0.9-4.3c0.8,0.3,1.6-0.2,2.2-1.2c0.5-0.9,0.8-2.1,0.9-3.3l0.1,0c0.3-0.4,0.5-1,0.5-1.6c1.2-0.8,2.4-1.5,3.7-1.6
			c1.1-0.1,2.4,0.5,3.2,1.8c-0.1,0-0.1,0-0.2,0.1c1.5,1.8,1.8,5.5,1.8,8.7c0,2.3-0.2,4.7-0.8,6.7c-0.2,0.7-0.4,1.3-0.7,1.9
			c-1.4,3-3.9,3.9-6.2,3.8c-0.4,0-0.7-0.1-1.1-0.1C45.1,387.8,41.6,384.4,38.7,380.7L38.7,380.7z"/>
		<path id="XMLID_461_" class="st7" d="M27.4,367.2c1.7,1.6,3.4,3.4,4.3,6.4c0.5,1.7,0.7,3.7,0.8,5.6c0,0.4,0.1,0.9,0.1,1.3
			c0.1,2.1-0.1,4.2-0.8,5.8c-0.6,1.5-1.6,2.3-2.6,2.8c-0.7,0.3-1.4,0.5-2.1,0.6c-1.5,0.3-3.1,0.5-4.6-0.5c-1.1-0.8-1.9-2.2-2.7-3.7
			c-0.1-0.2-0.2-0.5-0.3-0.7c-1.5-3.4-2.6-7.2-3.3-11.3l-0.3-0.3c0.5-1.1,1-2.3,1.4-3.5c0.6-1.5,1.2-3,1.6-4.6
			c0.1,0.2,0.2,0.3,0.3,0.4l0.4,0.3c0.6,0.7,1.3,1.5,1.9,2.2c0.5,0.6,1,1.2,1.6,1.5c1.3,0.8,2.9,0.1,3.8-1.6
			c0.1-0.2,0.2-0.5,0.3-0.7L27.4,367.2z"/>
		<path id="XMLID_460_" class="st8" d="M20.4,357.7l0,0.1c0.1,0,0.2-0.1,0.2-0.1c1.2-0.4,2.5-0.7,3.8-0.2c1.2,0.4,2.4,1.7,3,3.6
			c0.2,0.6,0.3,1.1,0.3,1.7c0.1,1.4-0.1,3-0.5,4.2c-0.1,0.2-0.2,0.5-0.3,0.7c-0.9,1.8-2.5,2.4-3.8,1.6c-0.6-0.3-1.1-0.9-1.6-1.5
			c-0.6-0.7-1.3-1.5-1.9-2.2l-0.4-0.3c-0.1-0.1-0.2-0.3-0.3-0.4c0.1-0.6,0.3-1.1,0.4-1.7c0.3-1.8,0.4-3.7,0.1-5.5
			C19.8,357.7,20.1,357.7,20.4,357.7z"/>
		<path id="XMLID_459_" class="st8" d="M17.3,359.3c0-0.2,0-0.4,0-0.6c0.1-0.2,0.2-0.3,0.3-0.3c0.6-0.3,1.2-0.5,1.8-0.6
			c0.3,1.7,0.2,3.7-0.1,5.5c-0.1,0.6-0.2,1.2-0.4,1.7C18.1,363.5,17.5,361.4,17.3,359.3z"/>
		<path id="XMLID_457_" class="st7" d="M19.3,357.1c0.1,0.2,0.1,0.4,0.1,0.7c-0.6,0.1-1.2,0.3-1.8,0.6c-0.1,0.1-0.2,0.1-0.3,0.3
			c-0.1,0.2-0.1,0.4,0,0.6c0.2,2.1,0.8,4.2,1.6,5.7c-0.4,1.6-1,3.1-1.6,4.6c-0.5,1.2-0.9,2.4-1.4,3.5c-0.5,1.1-1,2.1-1.5,3.1
			c-0.4,0.8-0.9,1.5-1.5,1.9c-0.2,0.1-0.3,0.3-0.5,0.3c-0.8,0.4-1.6,0.1-2.4-0.1c-1.8-0.6-3.7-1.2-5.3-2.5c-1.7-1.3-3.2-3.5-3.9-6.5
			c-1-4.3-0.2-9.3,0.7-13.7c0.2-1.1,0.5-2.4,1-3.2c0.6-1,1.5-1.2,2.4-1.3c2.6-0.4,5.7-0.8,8.3-0.3l0,0.4c1.2,0.2,2.3,0.5,3.4,1.2
			C17.8,353.3,19,354.9,19.3,357.1L19.3,357.1z"/>
		<path id="XMLID_456_" class="st8" d="M16.2,373.4c0.7,4.1,1.8,7.9,3.3,11.3c0.1,0.2,0.2,0.5,0.3,0.7l-0.1,0.1
			c-1.5,0.1-3.1-0.3-4.5-1.3c-0.6-0.4-1.2-0.9-1.5-1.8c-0.5-1.3-0.5-3-0.8-4.4c0.6-0.4,1-1.2,1.5-1.9c0.6-1,1-2,1.5-3.1L16.2,373.4z
			"/>
	</g>
	<g id="XMLID_398_">
		<path id="XMLID_455_" class="st9" d="M13.1,350.9c-2.6-0.6-5.7-0.1-8.3,0.3c-0.8,0.1-1.7,0.3-2.4,1.3c-0.5,0.8-0.8,2-1,3.2
			c-0.9,4.4-1.7,9.4-0.7,13.7c0.7,2.9,2.3,5.1,3.9,6.5c1.7,1.4,3.5,2,5.3,2.5c0.8,0.3,1.7,0.5,2.4,0.1c0.2-0.1,0.3-0.2,0.5-0.3
			c0.6-0.4,1-1.2,1.5-1.9c0.6-1,1-2,1.5-3.1c0.5-1.1,1-2.3,1.4-3.5c0.6-1.5,1.2-3,1.6-4.6c0.1-0.6,0.3-1.1,0.4-1.7
			c0.3-1.8,0.4-3.7,0.1-5.5c0-0.2-0.1-0.4-0.1-0.7c-0.1-0.3-0.2-0.6-0.3-0.9"/>
		<path id="XMLID_454_" class="st9" d="M20.1,359.3c-0.2-0.1-0.3-0.7-0.1-1c0.1-0.2,0.3-0.3,0.4-0.4c0.1,0,0.2-0.1,0.2-0.1
			c1.2-0.4,2.5-0.7,3.8-0.2c1.2,0.4,2.4,1.7,3,3.6c0.2,0.6,0.3,1.1,0.3,1.7c0.1,1.4-0.1,3-0.5,4.2c-0.1,0.2-0.2,0.5-0.3,0.7
			c-0.9,1.8-2.5,2.4-3.8,1.6c-0.6-0.3-1.1-0.9-1.6-1.5c-0.6-0.7-1.3-1.5-1.9-2.2"/>
		<path id="XMLID_453_" class="st9" d="M16.2,373.4c0.7,4.1,1.8,7.9,3.3,11.3c0.1,0.2,0.2,0.5,0.3,0.7c0.7,1.5,1.6,2.9,2.7,3.7
			c1.4,1,3,0.8,4.6,0.5c0.7-0.1,1.4-0.3,2.1-0.6c1-0.5,2-1.3,2.6-2.8c0.7-1.6,0.8-3.7,0.8-5.8c0-0.5,0-0.9-0.1-1.3
			c-0.1-1.9-0.3-3.9-0.8-5.6c-0.9-2.9-2.6-4.7-4.3-6.4"/>
		<path id="XMLID_452_" class="st9" d="M27.4,363.7c0.1-0.3,0.2-0.5,0.4-0.7c0.7-1.2,1.7-1.9,2.6-2.1c1.2-0.3,2.3-0.1,3.5,0.2
			c2.6,0.7,5.1,1.7,7.6,3c0.6,0.3,1.2,0.7,1.7,1.2c0.2,0.2,0.5,0.5,0.7,0.7c1.3,1.7,1.7,4.6,1.5,7.4c-0.1,1.5-0.4,3-0.9,4.3
			c-0.4,1.2-1,2.2-1.7,2.8c-0.6,0.4-1.3,0.4-2,0.4c-0.7,0-1.4,0-2.1-0.1c-2,0-4-0.1-6-0.2c-0.2,0-0.3,0-0.5,0"/>
		<path id="XMLID_449_" class="st9" d="M45.2,373.3c0,0,0.1,0,0.1,0.1c0.8,0.3,1.6-0.2,2.2-1.2c0.5-0.9,0.8-2.1,0.9-3.3
			c0-0.2,0-0.5,0-0.7"/>
		<path id="XMLID_447_" class="st9" d="M38.7,380.8c2.9,3.6,6.5,7,10,7.7c0.3,0.1,0.7,0.1,1.1,0.1c2.3,0.2,4.8-0.7,6.2-3.8
			c0.3-0.6,0.5-1.2,0.7-1.9c0.6-2,0.7-4.4,0.8-6.7c0.1-3.2-0.3-7-1.8-8.7c-0.1-0.2-0.3-0.4-0.5-0.5"/>
		<path id="XMLID_446_" class="st9" d="M49.8,389.2c-0.2,0.3-0.5,0.7-0.7,1c-2.2,2.7-4.8,4.3-7.5,4.7c-3,0.5-6-0.2-8.9-1.6
			c-1.4-0.7-2.9-1.8-3.4-4.1"/>
		<path id="XMLID_445_" class="st9" d="M62.3,383.3c-0.2,0.1-0.4,0.1-0.6,0.2c-1.5,0.4-3,0.1-4.5-0.3"/>
		<path id="XMLID_444_" class="st9" d="M55.5,367.5c0.1,0,0.1-0.1,0.2-0.1c0.1,0,0.1-0.1,0.2-0.1c0.9-0.5,1.7-0.8,2.6-1.1
			c1.2-0.4,2.5-0.6,3.7-0.7c0.5,0,1,0,1.5,0.2c0.2,0.1,0.5,0.3,0.7,0.5c0.9,0.9,1.6,2.7,2,4.5c0.3,1.4,0.4,2.8,0.3,4.3
			c-0.1,1.8-0.4,3.5-1,5c-0.6,1.3-1.4,2.3-2.3,2.9c-0.3,0.2-0.7,0.4-1,0.5"/>
		<path id="XMLID_443_" class="st9" d="M58.4,366.6c0-0.1,0.1-0.2,0.1-0.3c0.5-1.8,1.2-3.7,2.3-4.4c0.8-0.5,1.7-0.2,2.5,0.6
			c0.7,0.8,1.2,2.2,1.4,3.6"/>
		<path id="XMLID_441_" class="st9" d="M49,390c0,0.1,0.1,0.1,0.1,0.2c0.6,1.2,1.5,1.9,2.4,2.4c2.7,1.5,5.7,1.4,8.4-0.2
			c0.8-0.5,1.7-1.2,2.3-2.3c0.2-0.4,0.4-0.8,0.5-1.3c0.4-1.8,0.2-3.7-0.3-5.5h0c-0.2-0.7-0.3-1.3-0.5-1.9"/>
		<path id="XMLID_440_" class="st9" d="M64.3,366.2C64.3,366.2,64.4,366.2,64.3,366.2c0.2-0.1,0.3-0.1,0.4-0.1c2-0.7,4-1.2,6-1.7
			c0.6-0.2,1.3-0.3,1.9-0.2c0.6,0.2,1.2,0.6,1.7,1.2c0.3,0.4,0.7,0.8,1,1.3c1.3,2.1,2.2,4.8,2.7,7.8c0,0.3,0.1,0.5,0.1,0.8
			c0.3,2.2,0.2,4.9-0.9,6.1c-0.3,0.3-0.6,0.5-1,0.6c-0.1,0-0.3,0-0.4,0.1c-1.1,0-2.1-0.6-3-1.6c-0.3-0.3-0.5-0.7-0.7-1.1
			c-0.5-1-0.9-2.2-1.5-3c-0.9-1.2-2.2-1.3-3.3-1.3"/>
		<path id="XMLID_438_" class="st9" d="M72.9,380c0,0.1-0.1,0.3-0.1,0.5c-0.6,2-1.4,4.1-2.6,5.1c-0.1,0-0.1,0.1-0.2,0.1
			c-0.3,0.2-0.6,0.4-0.9,0.5c-1.2,0.3-2.4-0.2-3.6-0.8c-0.9-0.4-1.9-1.1-2.2-2.5c0-0.2-0.1-0.4-0.1-0.6"/>
		<path id="XMLID_437_" class="st9" d="M69.1,386.1C69.1,386.1,69.1,386.1,69.1,386.1c-0.3,1.1-0.6,2-1.1,2.7
			c-0.5,0.9-1.2,1.6-1.8,2c-1.3,0.8-2.8,0.6-4-0.6"/>
		<path id="XMLID_436_" class="st9" d="M77.4,363.2c-0.1-0.1-0.1-0.1-0.2-0.2"/>
		<path id="XMLID_435_" class="st9" d="M77.9,374.5L77.9,374.5c0.4-0.7,0.5-1.8,0.6-2.8c0-0.2,0-0.3,0-0.5c0.1-1.4,0.2-2.9,0.1-4.3
			c-0.1-1.3-0.4-2.5-0.9-3.4c-0.1-0.1-0.2-0.3-0.3-0.4"/>
		<path id="XMLID_433_" class="st9" d="M78.9,371.3c2.2,1.7,4.6,2.6,6.9,2.1h0c2.4-0.5,4.6-2.5,6-5.8c0.4-1,0.8-2,1.1-3.1
			c0.3-1.2,0.7-2.4,0.7-3.7c0-0.1,0-0.2,0-0.2"/>
		<path id="XMLID_432_" class="st9" d="M85.8,373.3C85.8,373.4,85.8,373.4,85.8,373.3c0.5,1.7,0.3,3.7-0.3,5.3
			c-0.6,1.6-1.4,2.9-2.3,3.8c-0.9,0.9-1.9,1.6-2.9,2.1c-0.4,0.2-0.8,0.4-1.3,0.6c-0.5,0.2-1.1,0.5-1.6,0.1c-0.7-0.5-1-1.9-1.3-3.1"
			/>
		<path id="XMLID_431_" class="st9" d="M80.4,384.7c-1,2.2-2.2,5.2-3.7,5.9c-1,0.4-2.1,0.1-3.1-0.3c-0.6-0.2-1.3-0.6-1.9-1.1
			c-0.2-0.2-0.3-0.4-0.5-0.6c-0.6-0.8-1-1.9-1.1-3.2c0-0.2,0-0.4,0-0.6"/>
		<path id="XMLID_430_" class="st9" d="M71.6,389.4c-1.2,0.7-2.5,0.5-3.6-0.5"/>
		<path id="XMLID_429_" class="st9" d="M83.3,382.7c3,0.8,6.1,1.6,9-0.1c1.2-0.7,2.3-2,2.6-4c0-0.3,0.1-0.7,0.1-1
			c0-0.9-0.1-1.8-0.3-2.7c-0.1-0.3-0.1-0.6-0.2-0.8c-0.6-2.2-1.3-4.4-2.1-6.3"/>
		<path id="XMLID_426_" class="st9" d="M94.4,374.9c0.1,0,0.2,0,0.3,0c2.9-0.3,5.6-3.8,6.5-8.4c0.1-0.6,0.2-1.3,0.2-2
			c0-0.1,0-0.3,0-0.4c-0.1-1.1-0.7-2-1.2-2.8c-0.4-0.8-0.8-1.7-1.1-2.6c-0.2-0.5-0.3-1.1-0.4-1.7"/>
		<path id="XMLID_423_" class="st9" d="M94.3,359.5c0.6,2.1,2.1,3.4,3.4,2.6c0.8-0.6,1.4-2,1.4-3.5c0-0.6,0-1.2-0.2-1.8
			c0-0.1-0.1-0.3-0.1-0.4"/>
		<path id="XMLID_422_" class="st9" d="M100.5,364.1c0.3,0.1,0.6,0.2,0.9,0.3c0.7,0.2,1.4,0.2,2-0.1c0.2-0.1,0.4-0.2,0.6-0.4
			c1-1.1,1.4-3.1,1.5-5.2c0-0.6,0-1.3,0-1.9c0-1.4-0.2-3.1-0.8-3.9c-0.1-0.2-0.3-0.3-0.4-0.4"/>
		<path id="XMLID_421_" class="st9" d="M106.6,348.2c0.1,0,0.1,0,0.2,0c1.2,0.3,2.1,2.4,2.5,4.5c0,0.1,0,0.2,0.1,0.4
			c0.1,0.9,0.2,1.8,0,2.7c-0.2,1-0.7,1.7-1.2,2.2c-0.1,0.1-0.2,0.2-0.4,0.2c-0.7,0.4-1.5,0.3-2.2,0.3"/>
		<path id="XMLID_420_" class="st9" d="M108.1,358.1c0.5,1.3,0.5,2.9,0.2,4.4c-0.2,1-0.6,2-1.1,2.6c-1.2,1.3-2.8,0.9-3.8-0.7
			c-0.1-0.2-0.2-0.4-0.3-0.6"/>
		<path id="XMLID_419_" class="st9" d="M105.9,366.4c-0.1,1.1-0.2,2.3-0.4,3.4c-0.1,1-0.3,2.1-0.6,3c-0.6,2-1.6,3.7-2.9,4
			c-1,0.3-2-0.3-3.1-0.4c-1.3-0.1-2.5,0.5-3.7,1.2"/>
		<path id="XMLID_418_" class="st9" d="M106.8,348.2c0.5-0.2,1.2-0.9,2-1.7c1.4-1.4,2.9-3,3.5-1.8c0.6,1.3,0.8,2.9,0.8,4.5
			c0,0.7,0,1.4-0.2,2c-0.1,0.3-0.2,0.5-0.3,0.7c-0.3,0.5-0.7,0.8-1.1,0.9c-0.6,0.1-1.5,0.2-2.1,0"/>
		<path id="XMLID_416_" class="st9" d="M112.5,351.7c0,0,0,0.1,0,0.2c0.5,1.9,0.8,4,0.9,6.1c0,0.4,0,0.8-0.1,1.1
			c-0.1,0.4-0.3,0.7-0.6,0.9c-0.6,0.6-1.2,1.1-1.8,1.4c-0.9,0.5-1.8,0.9-2.7,1"/>
		<path id="XMLID_415_" class="st9" d="M111,361.4C111,361.4,111,361.4,111,361.4c0.6,0.7,0.6,2,0.6,3.2c0,0.6,0,1.3-0.2,1.7
			c-0.1,0.3-0.4,0.5-0.6,0.6c-1.5,1-3.5,2.1-5,3"/>
		<path id="XMLID_414_" class="st9" d="M12.8,377.6c0.1,0.2,0.1,0.4,0.2,0.6c0.3,1.4,0.3,3.1,0.8,4.4c0.4,0.9,1,1.4,1.5,1.8
			c1.4,1,3,1.4,4.5,1.3"/>
		<path id="XMLID_413_" class="st9" d="M19.2,365.4c-0.1-0.1-0.2-0.3-0.3-0.4c-0.9-1.5-1.5-3.6-1.6-5.7c0-0.2,0-0.4,0-0.6
			c0.1-0.2,0.2-0.3,0.3-0.3c0.6-0.3,1.2-0.5,1.8-0.6c0.3,0,0.6-0.1,1,0"/>
		<path id="XMLID_412_" class="st9" d="M12.2,351.1c0.3,0,0.6,0.1,0.9,0.1c1.2,0.2,2.3,0.5,3.4,1.2c1.3,0.9,2.5,2.5,2.9,4.7
			c0,0,0,0,0,0.1"/>
		<path id="XMLID_411_" class="st9" d="M42.9,365.6c0.1-0.2,0.2-0.3,0.3-0.4c1.3-1.6,3.3-1.7,4.7-0.2c0.4,0.4,0.8,1.1,1,1.8
			c0,0.1,0,0.3,0.1,0.5c0,0.6-0.1,1.3-0.5,1.6"/>
		<path id="XMLID_409_" class="st9" d="M48.9,367.3C48.9,367.3,48.9,367.3,48.9,367.3c1.2-0.8,2.5-1.6,3.8-1.7
			c1.1-0.1,2.4,0.5,3.2,1.8c0.1,0.2,0.2,0.4,0.3,0.6"/>
		<path id="XMLID_408_" class="st9" d="M70.6,364.5c1.2,0.4,2.5,0.7,3.7,0.9c0.4,0.1,0.9,0.1,1.3,0.2c0.5,0,1,0.1,1.5-0.3
			c0.4-0.3,0.7-1,0.6-1.7c0,0,0-0.1,0-0.2"/>
		<path id="XMLID_407_" class="st9" d="M77.4,363.4c0,0,0-0.1,0-0.1l0,0c-0.1-1.1,0.6-2,1.1-2.6c0.9-1,1.7-2,2.7-2.6
			c1.1-0.6,2.3-0.7,3.4-0.8c1.1-0.1,2.2-0.2,3.4-0.3c1.5-0.1,3.2-0.1,4.5,0.7c0.4,0.3,0.8,0.6,1.1,1c0.2,0.2,0.3,0.5,0.4,0.8
			c0,0.1,0,0.2,0.1,0.4c0,0.5-0.3,1-0.6,0.9"/>
		<path id="XMLID_406_" class="st9" d="M92.6,357.9c0,0,0-0.1,0.1-0.1c0.7-1.5,1.9-2.5,3.1-2.6c0.4,0,0.8,0,1.2,0.1
			c0.8,0.2,1.5,0.8,2,1.6c0,0,0.1,0.1,0.1,0.2"/>
		<path id="XMLID_405_" class="st9" d="M101.1,348.9c0.8,0.2,1.5,0.6,2.2,1.1c0.4,0.3,0.9,0.7,1.1,1.3c0.2,0.4,0.3,0.9,0.2,1.4
			c0,0.2-0.1,0.5-0.2,0.7"/>
		<path id="XMLID_404_" class="st9" d="M97.1,356.1c-0.1-0.3-0.1-0.6-0.2-0.9c-0.2-1.7,0.4-3.6,0.9-5.2c0.1-0.4,0.3-0.9,0.6-1.2
			c0.2-0.2,0.5-0.2,0.8-0.3c0.6,0,1.3,0,1.9,0.2"/>
		<path id="XMLID_402_" class="st9" d="M101.1,349.8c0-0.3,0-0.6,0-0.9v0c0.2-1.3,0.9-2.5,1.6-3.4c1-1.3,2.3-2.6,3.5-2
			c1,0.5,1.6,2,2.4,2.8"/>
	</g>
</g>
</svg>
